<svg width="40" height="51" viewBox="0 0 40 51" fill="none" xmlns="http://www.w3.org/2000/svg">
<path fill-rule="evenodd" clip-rule="evenodd" d="M6.6879 29.7993L0 34.8949L7.00637 31.3917V50.5H8.28026V36.4872H8.9172V50.5H10.1911V36.4872H11.1465V50.5H12.1019V36.4872H13.0573V50.5H14.3312V36.4872L22.6115 50.5H23.8854L15.9236 36.4872H16.879L24.8408 50.5H26.1147L18.1529 36.4872H19.1083L27.0701 50.5H28.344L20.3822 36.4872H21.3376L29.2994 50.5H30.5733L19.1083 30.1178L23.2484 23.1114L32.1656 18.6528C33.2637 19.6437 33.7069 20.3309 35.0319 20.5636C35.6704 20.6758 35.8266 20.7573 36.3057 20.5636C36.7849 20.37 36.8139 19.9588 37.2612 19.9267C37.7996 19.888 38.2166 20.2452 38.2166 20.2452L39.172 20.8821L39.8089 21.5191C39.3271 20.6675 38.9738 20.2527 38.2166 19.6082C38.3435 18.7292 37.8981 17.6974 37.8981 17.6974C37.8883 17.5733 37.4457 17.1462 37.2612 17.0605C36.636 17.1502 36.3756 17.4008 35.9873 18.0159C35.8414 18.8038 35.7656 19.2439 35.9873 19.9267C35.621 20.0859 35.4105 20.0551 35.0319 19.9267C34.2332 19.6452 33.9802 19.4272 33.758 18.9713C33.4953 18.4838 33.5417 18.2031 33.758 17.6974L32.8026 17.0605V16.4235C33.3034 16.4761 33.5826 16.4264 34.0764 16.105C34.4261 15.6524 34.4514 15.3647 34.3949 14.8312C34.1799 14.3453 33.9216 14.2795 33.4395 14.1942C32.7201 14.327 32.465 14.479 32.1656 14.8312L31.5287 15.4681C31.0953 15.1993 30.802 15.0644 30.2548 14.8312C29.282 14.6947 28.7172 14.738 27.707 14.8312C28.3431 15.0215 28.6985 15.1335 29.2994 15.4681C30.3109 15.8514 30.7569 16.1744 31.2102 17.0605L30.8917 17.3789L25.1592 20.5636L27.0701 15.7866H18.4713L14.0127 26.2961L11.1465 15.7866H3.18471L6.6879 29.7993ZM33.758 15.4681C33.4905 15.9339 33.2465 16.0019 32.8026 16.105C32.4282 16.0267 32.3827 15.8707 32.4841 15.4681C32.7228 15.0204 32.9389 14.8911 33.4395 14.8312C33.7747 14.943 33.8648 15.0693 33.758 15.4681ZM37.2612 18.0159C36.8793 17.9705 36.6242 18.301 36.6242 18.6528C36.6242 19.0046 36.732 19.2988 37.2612 19.2898C37.5752 19.2336 37.5796 18.6528 37.5796 18.6528C37.5753 18.6225 37.6656 18.0833 37.2612 18.0159Z" fill="white"/>
<path d="M14.6497 14.8312L12.4204 14.1942V16.105L14.6497 15.1496L16.879 16.105V14.1942L14.6497 14.8312Z" fill="white"/>
<path fill-rule="evenodd" clip-rule="evenodd" d="M8.28013 4.95857C8.02045 5.1304 7.9468 5.26763 7.96166 5.59551C9.28838 5.96025 10.045 6.12908 11.4648 6.23246V10.0541C12.3487 11.8352 13.099 12.5605 15.605 12.6019C16.5848 12.3664 17.1332 12.2503 18.1527 11.328C18.5135 11.0127 19.4266 9.41719 19.4266 9.0987V3.68468C20.7118 3.6319 21.3282 4.02599 22.2929 5.27704C22.5689 5.31078 22.7141 5.27365 22.9298 4.95857C21.968 3.60654 21.2208 3.09506 19.4266 2.72927C19.4266 2.72927 18.7589 0.704784 18.1527 0.818441C17.1672 1.00324 15.605 1.13691 15.605 1.13691C14.9005 1.1932 12.7387 0.499969 12.7387 0.499969C12.7387 0.499969 11.5223 1.31442 11.4648 2.4108V5.59551C10.179 5.47978 9.49179 5.30851 8.28013 4.95857ZM14.6496 4.95855C13.7129 5.46685 13.1529 5.59681 12.1018 5.59549V2.41078C12.1583 1.89414 12.2511 1.61052 12.7387 1.13689C13.5547 1.22575 13.9098 1.35991 14.3311 1.77384C15.3522 2.02628 15.6877 1.92559 16.2419 1.77384C17.3257 1.38877 17.7863 1.28636 18.1527 1.45536C18.6487 2.10024 18.723 2.44282 18.7897 3.04772C18.2477 3.4876 17.84 3.7004 16.8789 4.00314C15.9697 4.30258 15.4766 4.50238 14.6496 4.95855ZM14.6496 5.59549C13.6945 6.06242 13.1343 6.18817 12.1018 6.23244V10.0541C12.5501 10.7667 12.7118 11.2131 13.6941 11.6465C14.3624 11.875 14.7315 12.0106 15.605 11.9649L15.6338 11.956C16.3486 11.7344 16.7581 11.6074 17.5158 11.0095C18.169 10.4464 18.433 10.0105 18.7897 9.0987V4.00314C18.2159 4.1921 17.7679 4.34184 16.8789 4.64008C16.0042 4.88063 15.5164 5.10256 14.6496 5.59549Z" fill="white"/>
</svg>
