<svg width="125" height="50" viewBox="0 0 125 50" fill="none" xmlns="http://www.w3.org/2000/svg">
<path fill-rule="evenodd" clip-rule="evenodd" d="M6.66041 29.1789L0 34.2535L6.97758 30.7647V49.7945H8.24623V35.8393H8.88055V49.7945H10.1492V35.8393H11.1007V49.7945H12.0522V35.8393H13.0037V49.7945H14.2723V35.8393L22.5185 49.7945H23.7872L15.8581 35.8393H16.8096L24.7387 49.7945H26.0073L18.0783 35.8393H19.0298L26.9588 49.7945H28.2275L20.2984 35.8393H21.2499L29.179 49.7945H30.4476L19.0298 29.4961L23.1529 22.5185L32.0334 18.0782C33.127 19.065 33.5683 19.7494 34.8879 19.9812C35.5238 20.0929 35.6794 20.1741 36.1565 19.9812C36.6337 19.7883 36.6626 19.3789 37.108 19.3469C37.6442 19.3084 38.0595 19.664 38.0595 19.664L39.011 20.2984L39.6453 20.9327C39.1655 20.0846 38.8136 19.6715 38.0595 19.0297C38.1859 18.1543 37.7423 17.1267 37.7423 17.1267C37.7326 17.0032 37.2918 16.5778 37.108 16.4924C36.4854 16.5817 36.2261 16.8314 35.8394 17.4439C35.6941 18.2286 35.6185 18.6669 35.8394 19.3469C35.4746 19.5054 35.265 19.4747 34.8879 19.3469C34.0925 19.0666 33.8406 18.8495 33.6192 18.3954C33.3576 17.9098 33.4038 17.6304 33.6192 17.1267L32.6677 16.4924V15.8581C33.1665 15.9104 33.4446 15.8609 33.9364 15.5409C34.2846 15.0901 34.3098 14.8036 34.2536 14.2723C34.0394 13.7884 33.7822 13.7229 33.3021 13.6379C32.5856 13.7702 32.3316 13.9215 32.0334 14.2723L31.3991 14.9066C30.9675 14.6389 30.6754 14.5045 30.1304 14.2723C29.1617 14.1363 28.5991 14.1795 27.5931 14.2723C28.2266 14.4619 28.5805 14.5734 29.179 14.9066C30.1864 15.2883 30.6305 15.6099 31.0819 16.4924L30.7648 16.8096L25.0558 19.9812L26.9588 15.2238H18.3954L13.9552 25.6901L11.1007 15.2238H3.17163L6.66041 29.1789ZM33.6192 14.9066C33.3528 15.3705 33.1099 15.4382 32.6677 15.5409C32.2949 15.4629 32.2496 15.3075 32.3506 14.9066C32.5883 14.4607 32.8035 14.332 33.3021 14.2723C33.6359 14.3836 33.7256 14.5094 33.6192 14.9066ZM37.108 17.4439C36.7277 17.3987 36.4737 17.7279 36.4737 18.0782C36.4737 18.4285 36.581 18.7216 37.108 18.7125C37.4208 18.6566 37.4252 18.0782 37.4252 18.0782C37.4208 18.048 37.5107 17.511 37.108 17.4439Z" fill="white"/>
<path d="M14.5895 14.2723L12.3693 13.6379V15.5409L14.5895 14.5894L16.8096 15.5409V13.6379L14.5895 14.2723Z" fill="white"/>
<path fill-rule="evenodd" clip-rule="evenodd" d="M8.24671 4.44027C7.9881 4.6114 7.91475 4.74806 7.92954 5.0746C9.25082 5.43784 10.0043 5.60598 11.4183 5.70893V9.51488C12.2985 11.2887 13.0458 12.0109 15.5414 12.0522C16.5172 11.8176 17.0634 11.7021 18.0787 10.7835C18.438 10.4696 19.3474 8.88057 19.3474 8.56339V3.17162C20.6273 3.11906 21.2412 3.51153 22.2019 4.75744C22.4768 4.79104 22.6213 4.75406 22.8362 4.44027C21.8783 3.0938 21.1341 2.58443 19.3474 2.22014C19.3474 2.22014 18.6824 0.203973 18.0787 0.317163C17.0973 0.501206 15.5414 0.634325 15.5414 0.634325C14.8399 0.690383 12.687 0 12.687 0C12.687 0 11.4755 0.811105 11.4183 1.90298V5.0746C10.1378 4.95934 9.45338 4.78878 8.24671 4.44027ZM14.59 4.44026C13.6572 4.94647 13.0994 5.07589 12.0527 5.07458V1.90296C12.1089 1.38844 12.2014 1.10599 12.687 0.634306C13.4996 0.722795 13.8533 0.856408 14.2728 1.26863C15.2897 1.52004 15.6238 1.41976 16.1758 1.26863C17.2551 0.885145 17.7139 0.783161 18.0787 0.951468C18.5726 1.59369 18.6466 1.93486 18.7131 2.53728C18.1733 2.97535 17.7673 3.18728 16.8101 3.48877C15.9047 3.78698 15.4136 3.98596 14.59 4.44026ZM14.59 5.07458C13.6388 5.53959 13.0809 5.66482 12.0527 5.70891V9.51486C12.4991 10.2245 12.6602 10.6691 13.6385 11.1007C14.304 11.3283 14.6716 11.4634 15.5414 11.4178L15.5701 11.4089C16.282 11.1882 16.6898 11.0618 17.4444 10.4663C18.0949 9.90555 18.3578 9.47148 18.7131 8.56339V3.48877C18.1417 3.67696 17.6955 3.82608 16.8101 4.12309C15.939 4.36266 15.4533 4.58367 14.59 5.07458Z" fill="white"/>
<path fill-rule="evenodd" clip-rule="evenodd" d="M33.9362 40.914L35.2048 41.2312L39.0108 39.9626C40.3947 39.7226 40.847 39.8343 40.9137 40.5969C41.2141 41.4381 41.0651 41.651 40.5966 41.8655L32.6675 44.0857C31.5444 46.008 31.8095 46.8062 32.3504 48.2088C33.3002 49.2586 34.008 49.5105 35.522 49.4774L43.1339 47.2573L44.4025 49.7946L48.8428 48.2088L45.6712 39.9626C44.0377 38.2466 43.1439 38.0885 41.5481 37.7424C39.5099 37.6304 38.5414 38.035 36.7906 38.6939L33.9362 40.914ZM37.1078 44.4028C36.5307 45.0606 36.4416 45.4735 36.7906 46.3058L37.1078 46.9401C37.6371 47.4044 37.9965 47.4276 38.6936 47.2573L41.8652 46.3058C42.3241 45.9627 42.3681 45.6733 42.1824 45.0372L41.8652 43.7685C41.6739 43.0905 41.2 43.1851 40.2794 43.4514L37.1078 44.4028Z" fill="white"/>
<path d="M64.0666 39.0111C64.9499 39.9108 64.961 40.3293 64.0666 40.9141L62.1636 41.5484C61.1957 41.8211 60.7217 41.7042 59.9435 41.2312L58.6748 39.9626C57.5579 39.719 56.9521 39.643 56.4547 41.2312L58.0405 46.3058C58.5684 46.9468 58.8915 47.2567 59.9435 46.9401L63.7494 45.9887C64.208 46.0014 64.4261 46.0585 64.7009 46.3058C64.6646 46.7926 64.5324 47.0044 64.0666 47.2573L56.1375 49.7946C54.9309 50.1724 54.417 49.9125 53.6002 49.1603L51.0629 42.1827C50.7775 40.9956 50.955 40.5327 51.6973 39.9626L56.7719 38.3768L60.2606 37.7424C61.3024 37.5215 61.8614 37.5069 62.7979 37.7424L64.0666 39.0111Z" fill="white"/>
<path d="M65.9696 26.3246C65.6842 26.7341 65.766 26.8266 65.9696 26.9589C66.696 27.0735 66.9661 27.2371 66.9211 27.9104L66.6039 49.7946L71.6785 49.7946V41.5484C71.917 40.2555 72.1504 40.4066 72.63 41.2312L76.7531 49.4774C77.3211 50.045 77.6047 50.1497 78.0217 49.7946L82.1449 47.5745C82.9574 47.1455 82.1748 47.0945 81.1934 46.9401L76.7531 38.3768C76.503 37.7374 76.1501 37.7184 75.4844 37.7424L71.6785 39.0111V25.6903C71.6053 25.079 71.4425 24.9034 71.0442 24.7388C70.4337 24.7825 69.9943 24.8657 69.1412 25.0559C68.0044 25.2582 67.3224 25.5 65.9696 26.3246Z" fill="white"/>
<path d="M84.6822 39.6454C84.2387 39.7961 84.1375 39.9253 84.365 40.2797C84.8299 40.2835 84.9603 40.4319 84.9993 40.9141V49.1603C85.1697 49.7711 85.3434 49.9724 85.9508 49.7946L89.7568 47.8916C90.2193 47.5917 90.2244 47.4522 89.7568 47.2573H88.8053V39.3282C89.2627 38.9835 89.2436 38.7741 88.8053 38.3768C88.4337 38.2585 88.2253 38.2841 87.8538 38.3768L84.6822 39.6454Z" fill="white"/>
<path d="M83.4135 37.1081L84.0478 38.0596C84.2457 38.1646 84.3786 38.1769 84.6822 38.0596L88.1709 37.1081C88.509 36.9561 88.6857 36.8652 88.4881 36.4738L86.9023 34.888C86.6033 34.6784 86.4101 34.6348 85.9508 34.888L83.4135 36.4738C83.3158 36.6973 83.2962 36.8313 83.4135 37.1081Z" fill="white"/>
<path d="M92.2941 39.0111C91.5256 39.7493 91.572 39.967 92.6112 39.9626V48.8431C92.9899 49.4401 93.3335 49.5179 94.197 49.1603L97.3687 47.5745C97.8507 47.3267 97.8868 47.1879 97.3687 46.9401H96.7343V42.1827C97.0292 41.3115 97.2852 40.993 98.003 40.9141C98.3866 40.901 98.5149 41.1285 99.2716 42.1827L103.078 49.1603C103.426 49.6551 103.678 49.7429 104.346 49.1603L106.884 46.3058C107.177 45.8203 107.04 45.7202 106.566 45.6715H105.615L102.76 38.3768C102.164 37.2395 101.429 37.3854 99.906 38.0596L96.7343 39.6454V38.6939C96.6311 37.8273 96.1332 37.7669 94.8314 38.0596L92.2941 39.0111Z" fill="white"/>
<path d="M118.936 33.6193C119.578 33.6175 119.886 33.6652 119.887 34.2536C119.889 34.8421 118.936 34.888 118.936 34.888C114.699 35.3278 114.285 36.9351 114.178 37.1081C114.071 37.2811 113.927 38.5717 114.178 39.3282C114.65 41.4443 115.043 42.5135 115.764 44.4028C116.247 44.9372 116.457 45.2587 116.398 45.9887C116.47 46.555 115.764 47.2573 115.764 47.2573C115.764 47.2573 114.334 47.7547 111.641 48.8431C108.948 49.9316 109.055 49.6967 107.518 49.7946C107.157 49.6203 107.171 49.4788 107.518 49.1603L108.786 48.8431L111.324 47.2573C111.58 46.286 111.431 45.9173 111.007 45.3543L109.421 39.0111C109.425 37.868 109.497 37.4573 109.738 37.1081C111.743 36.1551 113.353 35.5386 114.495 35.2051C115.638 34.8717 118.773 33.8419 118.936 33.6193Z" fill="white"/>
<g clip-path="url(#clip0_252_1294)">
<path d="M124.713 28.2616C124.407 27.5346 123.842 26.9472 123.127 26.6136C122.412 26.28 121.599 26.2239 120.845 26.4563C120.091 26.6886 119.45 27.1927 119.047 27.8709C118.644 28.549 118.507 29.3527 118.664 30.1259C118.82 30.8992 119.258 31.5868 119.892 32.0553C120.527 32.5239 121.313 32.7399 122.098 32.6614C122.883 32.5829 123.611 32.2156 124.14 31.6307C124.669 31.0458 124.963 30.2851 124.963 29.4962C124.963 29.0721 124.878 28.6522 124.713 28.2616ZM121.791 32.2693C120.262 32.2693 119.018 31.0253 119.018 29.4962C119.018 27.9671 120.262 26.7231 121.791 26.7231C123.32 26.7231 124.564 27.9671 124.564 29.4962C124.564 31.0253 123.32 32.2693 121.791 32.2693Z" fill="white"/>
<path d="M122.979 30.1018C122.89 29.8913 122.768 29.7206 122.616 29.5936C122.962 29.4 123.137 29.1003 123.137 28.7014C123.137 28.3717 123.003 28.1074 122.738 27.9158C122.481 27.729 122.131 27.6343 121.699 27.6343C121.415 27.6343 121.089 27.6675 120.73 27.7324L120.676 27.7423V31.3592H121.276V29.8134H121.802C122.241 29.8134 122.528 30.314 122.656 31.3012L122.663 31.3591H123.266L123.255 31.283C123.175 30.7425 123.082 30.345 122.979 30.1018ZM122.368 29.1486C122.241 29.2439 122.043 29.2922 121.78 29.2922H121.276V28.1937C121.392 28.1832 121.534 28.1779 121.699 28.1779C122.273 28.1779 122.552 28.3589 122.552 28.7313C122.551 28.9199 122.492 29.0565 122.369 29.1486H122.368Z" fill="white"/>
</g>
<defs>
<clipPath id="clip0_252_1294">
<rect width="6.34325" height="6.34325" fill="white" transform="translate(118.619 26.3245)"/>
</clipPath>
</defs>
</svg>
