<svg width="180" height="180" viewBox="0 0 180 180" fill="none" xmlns="http://www.w3.org/2000/svg">
<path fill-rule="evenodd" clip-rule="evenodd" d="M96.7249 27.968C131.971 27.968 139.391 76.5924 139.535 76.9926C139.684 77.4048 139.824 77.8291 139.959 78.2409C140.234 79.0773 140.588 79.8825 140.863 80.7133C141.031 81.2202 141.34 81.64 141.547 82.1187C141.949 83.0331 142.442 83.9058 143.018 84.7234C143.255 85.0472 143.442 85.405 143.572 85.7846C143.662 86.0751 143.964 86.1527 144.094 86.4091C144.304 86.8241 144.585 87.2033 144.828 87.6019C144.883 87.742 145.01 87.8416 145.16 87.8624L145.113 88.258C145.201 88.4007 145.231 88.208 145.323 88.2418C145.438 88.3963 145.602 88.5334 145.619 88.7685C145.634 88.9894 145.893 89.0102 145.982 89.2029C146.176 89.6213 146.717 89.8346 146.709 90.3835C147.098 90.6264 147.289 91.0435 147.582 91.3706C147.733 91.5213 147.824 91.7196 147.842 91.9303L147.845 91.9789C147.842 92.1885 148.249 92.1414 148.139 92.4272C148.761 92.8918 148.923 93.6508 149.251 94.2797C149.778 95.2886 150.385 96.2635 150.742 97.3685C150.921 97.9212 151.269 98.4441 151.462 99.0038C151.896 100.262 152.418 101.492 152.7 102.803C152.816 103.344 153.054 103.859 153.165 104.402L153.294 105.029C153.485 105.971 153.667 106.914 153.787 107.868C153.849 108.083 153.849 108.311 153.787 108.526C153.683 108.771 153.958 108.928 153.981 109.174C154.008 109.465 153.891 109.741 153.975 110.051C154.022 110.221 153.975 110.495 154.029 110.693C154.202 111.336 153.983 111.999 154.171 112.638C154.201 112.885 154.175 113.135 154.095 113.371C153.964 114.158 154.203 114.961 153.965 115.728C153.854 116.107 153.832 116.506 153.903 116.894L153.932 117.043C153.953 117.154 153.967 117.262 153.912 117.336C153.695 117.631 153.751 117.979 153.708 118.301L153.7 118.355C153.638 118.716 153.702 119.094 153.592 119.462C153.443 119.823 153.359 120.206 153.344 120.596C153.4 121.256 153.176 121.849 153.039 122.462C152.971 122.768 153.028 123.132 152.689 123.36C152.517 123.476 152.923 123.701 152.677 123.871L152.648 123.889C152.467 123.99 152.475 124.154 152.526 124.351C152.572 124.53 152.257 124.654 152.347 124.838C152.438 125.022 152.478 125.289 152.373 125.323C152.11 125.409 152.377 125.694 152.156 125.748C152.135 125.76 152.12 125.781 152.116 125.805C152.04 126.495 151.594 127.061 151.484 127.751C151.4 128.162 151.239 128.555 151.009 128.907C150.819 129.247 150.657 129.602 150.525 129.968C150.277 130.585 149.854 131.1 149.615 131.713C149.551 131.879 149.119 131.823 149.338 132.164C149.086 132.253 149.163 132.513 149.061 132.675C148.95 132.798 148.82 132.903 148.676 132.986C148.583 133.351 148.404 133.689 148.155 133.973C147.72 134.607 147.245 135.213 146.732 135.787L146.309 136.259C145.744 136.888 145.16 137.503 144.414 137.936C144.223 138.048 144.31 138.259 144.152 138.374C143.238 139.045 142.396 139.807 141.357 140.316C140.922 140.53 140.549 140.908 140.104 141.13C139.261 141.551 138.478 142.076 137.576 142.404L137.416 142.46C136.842 142.65 136.276 142.938 135.693 143.147C134.496 143.615 133.246 143.939 131.971 144.11L131.184 144.197C130.485 144.274 129.784 144.345 129.078 144.364C128.744 144.373 128.423 144.268 128.117 144.306C127.819 144.343 127.516 144.319 127.228 144.234C127.001 144.171 126.808 144.366 126.563 144.261C126.375 144.144 126.141 144.126 125.939 144.212L125.898 144.23C125.782 144.297 125.553 144.174 125.376 144.134C125.118 144.098 124.864 144.036 124.619 143.947C124.429 143.86 124.187 144.141 124.055 143.842C123.814 144.028 107.485 140.165 92.4851 148.009C91.2635 148.815 89.8341 149.169 88.5289 149.794C87.9221 150.086 87.24 150.219 86.5869 150.418L86.4474 150.462C85.2944 150.833 84.112 151.086 82.9313 151.35C81.8466 151.584 80.7475 151.747 79.6411 151.837C78.8457 151.909 78.0466 151.942 77.2532 152.028C76.9314 152.063 76.616 151.837 76.3012 152.031C75.5937 151.839 74.8511 152.072 74.1456 151.856C73.6764 151.994 73.2356 151.822 72.8044 151.696C72.4751 151.599 72.165 151.8 71.8325 151.657C71.5298 151.5 71.1907 151.425 70.8495 151.44C70.2831 151.526 69.79 151.319 69.2742 151.21C68.0754 150.956 66.8807 150.681 65.6905 150.386C65.3008 150.289 64.8629 150.326 64.5291 150.03C64.236 149.769 63.7737 149.933 63.4858 149.625C63.3809 149.513 63.2468 149.73 63.0886 149.645C62.7798 149.48 62.3832 149.589 62.0948 149.292C61.8811 149.071 61.4779 149.22 61.2415 148.954L61.2103 148.915C61.0706 148.722 60.7024 149.177 60.5934 148.748C60.1532 148.714 59.7883 148.475 59.3964 148.311C59.0717 148.176 58.6884 148.252 58.3953 147.971C58.1457 147.731 57.6739 147.908 57.4576 147.548C56.9283 147.544 56.5382 147.15 56.0338 147.046C55.6511 146.946 55.2834 146.795 54.9409 146.598C54.3978 146.32 53.8464 146.058 53.2908 145.81C53.0916 145.718 52.8976 145.615 52.7096 145.501C52.6043 145.44 52.5788 145.304 52.4282 145.271C51.4756 145.061 50.6746 144.508 49.8609 144.025C49.3967 143.786 48.9529 143.511 48.5332 143.202L48.3941 143.097C48.2712 142.992 48.0162 142.941 47.9082 142.794C47.6071 142.387 47.1568 142.188 46.7484 141.944L46.6808 141.902C46.4507 141.768 46.2416 141.6 46.0599 141.405C46.0255 141.368 46.0117 141.288 45.9751 141.279C45.2972 141.112 44.8926 140.555 44.3744 140.165C43.9285 139.83 43.5388 139.422 43.0998 139.081L42.9325 138.956C41.9053 138.225 30.6641 125.912 29.3904 123.787L29.0259 123.179C28.6619 122.569 28.3021 121.956 27.9708 121.33L27.6887 120.797C27.407 120.263 27.1297 119.725 26.8846 119.178L26.5567 118.448C25.9024 116.986 25.2621 115.518 24.7164 114.009C24.2298 112.663 23.827 111.294 23.4203 109.925C23.1598 109.046 22.9397 108.163 22.7537 107.267C22.4566 105.835 22.1917 104.398 21.959 102.955C21.7419 101.596 21.8222 100.217 21.5323 98.8733C21.7222 98.0483 21.373 97.2108 21.5899 96.3868C21.429 95.9798 21.5705 95.5576 21.5856 95.1564C21.6011 94.7424 21.5078 94.3085 21.6739 93.8889C21.75 93.6982 21.5741 93.4691 21.6694 93.2364C21.774 93.0427 21.7861 92.8126 21.7023 92.6091C21.9847 92.4798 21.6481 92.2809 21.7654 92.0968C21.8918 91.8969 21.9477 91.661 21.9241 91.4261C21.8419 90.9004 22.1461 90.4149 22.0927 89.9399C22.037 89.4542 22.278 89.0424 22.2772 88.607L22.2741 88.5252C22.2325 87.9537 22.6429 87.5232 22.6566 86.9826C22.6579 86.9353 22.7703 86.8917 22.8318 86.8447C22.8121 86.723 22.677 86.7507 22.5811 86.656C22.7341 86.5237 22.868 86.3713 22.979 86.2026C23.0629 85.9713 23.1226 85.7321 23.1569 85.4886L22.7679 84.9889C22.9114 84.7032 22.8614 84.4433 23.0531 84.2192C23.1365 84.1211 23.09 83.8219 23.1003 83.6152C23.1138 83.3439 23.4642 83.1822 23.3797 82.9679C23.3145 82.7214 23.3356 82.46 23.4396 82.2271C23.9408 80.0274 24.4513 77.8299 24.9712 75.6343C25.0259 75.399 24.9783 75.1031 25.2693 74.9652C24.9514 74.6384 25.4506 74.5244 25.4583 74.2654C25.4989 74.0233 25.5926 73.7932 25.7328 73.5911C25.9314 73.2133 25.9496 72.744 26.0627 72.3182C26.0925 72.0171 26.2071 71.7305 26.3933 71.491C26.5869 71.2915 26.559 70.9437 26.7049 70.6634C26.9109 70.3248 27.0705 69.9604 27.1796 69.5796C27.2125 69.3063 27.322 69.0473 27.4957 68.8326C27.6499 68.6631 27.5233 68.3122 27.8231 68.1843C27.9071 67.6925 28.2022 67.2972 28.4207 66.8662L28.4607 66.785C28.9973 65.6758 29.6004 64.5997 30.2668 63.5621C30.8204 62.6891 31.3591 61.8068 31.9212 60.9392C32.104 60.659 32.2985 60.3801 32.4995 60.1142C33.1981 59.1362 33.9504 58.1976 34.7533 57.3023C35.4876 56.5277 36.1875 55.7183 36.9584 54.9735C37.3682 54.5773 37.7035 54.0909 38.1015 53.67C39.0393 52.6765 40.0021 51.71 41.0148 50.7928C41.8702 49.9517 42.8055 49.1949 43.8077 48.5332C44.0803 48.3681 44.3042 48.1264 44.5674 47.9437C44.8866 47.7686 45.1929 47.5713 45.4842 47.353C45.8229 47.0358 46.2386 46.8341 46.5807 46.5404C46.8463 46.3125 47.2712 46.4425 47.4614 46.0323C47.5999 45.734 48.1185 45.8434 48.293 45.4948C48.7718 45.4788 48.9953 45.0174 49.4301 44.8657L49.488 44.8479C49.9461 44.7234 50.3371 44.3554 50.7572 44.0945C51.1626 43.8088 51.5866 43.5502 52.0268 43.3209C52.853 42.9505 53.566 42.3862 54.3736 42.0036C55.1435 41.6394 55.8364 41.1062 56.6762 40.9033C56.8746 40.8554 56.8377 40.6812 56.9742 40.6069C57.1163 40.5291 57.2719 40.5807 57.4001 40.4911C57.9312 40.1461 61.4791 27.968 96.7249 27.968Z" fill="#898E8C"/>
<rect x="28.5039" y="56.9363" width="119.828" height="67.7305" rx="9" fill="white" stroke="#00160A" stroke-width="2"/>
<path d="M88.4178 89.2053L36.8327 124.266L140.003 124.266L88.4178 89.2053Z" fill="white" stroke="black" stroke-width="2"/>
<path d="M89.2099 107.05L36.0999 56.9363M89.2099 107.05L36.0999 56.9363M89.2099 107.05L89.9067 107.767L36.0999 56.9363M89.2099 107.05L140.79 56.9363L36.0999 56.9363" fill="white" stroke="black" stroke-width="2"/>
</svg>
