<svg width="15" height="22" viewBox="0 0 15 22" fill="none" xmlns="http://www.w3.org/2000/svg">
<path d="M4.46187 15.7866L4.34187 10.9566H5.27187C6.39187 10.9566 7.43187 10.8466 8.39187 10.6266C9.37187 10.4066 10.1619 9.97664 10.7619 9.33664C11.3619 8.69664 11.6619 7.73664 11.6619 6.45664C11.6619 5.21664 11.2719 4.23664 10.4919 3.51664C9.73187 2.79664 8.72187 2.43664 7.46187 2.43664C6.18187 2.43664 5.17187 2.78664 4.43187 3.48664C3.69187 4.18664 3.32187 5.12664 3.32187 6.30664H0.921875C0.921875 5.10664 1.19188 4.05664 1.73188 3.15664C2.29188 2.25664 3.06187 1.55664 4.04187 1.05664C5.02187 0.55664 6.16187 0.306641 7.46187 0.306641C8.76187 0.306641 9.91187 0.55664 10.9119 1.05664C11.9119 1.55664 12.6919 2.26664 13.2519 3.18664C13.8119 4.10664 14.0919 5.19664 14.0919 6.45664C14.0919 7.93664 13.7719 9.13664 13.1319 10.0566C12.5119 10.9766 11.6419 11.6466 10.5219 12.0666C9.42187 12.4866 8.16187 12.6966 6.74187 12.6966L6.65187 15.7866H4.46187ZM5.54187 21.8166C5.04187 21.8166 4.62187 21.6566 4.28187 21.3366C3.96187 20.9966 3.80187 20.5866 3.80187 20.1066C3.80187 19.6266 3.96187 19.2266 4.28187 18.9066C4.62187 18.5666 5.04187 18.3966 5.54187 18.3966C6.04187 18.3966 6.45187 18.5666 6.77187 18.9066C7.09188 19.2266 7.25187 19.6266 7.25187 20.1066C7.25187 20.5866 7.09188 20.9966 6.77187 21.3366C6.45187 21.6566 6.04187 21.8166 5.54187 21.8166Z" fill="white"/>
</svg>
