<svg width="154" height="149" viewBox="0 0 154 149" fill="none" xmlns="http://www.w3.org/2000/svg">
<path fill-rule="evenodd" clip-rule="evenodd" d="M87.2572 0C127.986 0 136.561 58.3977 136.727 58.8783C136.899 59.3734 137.061 59.8829 137.217 60.3775C137.534 61.382 137.943 62.3491 138.261 63.3469C138.455 63.9556 138.813 64.4598 139.052 65.0347C139.517 66.133 140.086 67.181 140.751 68.163C141.025 68.5518 141.241 68.9815 141.391 69.4374C141.496 69.7864 141.844 69.8796 141.995 70.1874C142.238 70.6859 142.562 71.1413 142.843 71.62C142.907 71.7882 143.053 71.9079 143.227 71.9329L143.172 72.408C143.274 72.5794 143.308 72.348 143.415 72.3886C143.548 72.5741 143.738 72.7387 143.757 73.0211C143.774 73.2864 144.074 73.3114 144.176 73.5428C144.401 74.0453 145.026 74.3015 145.016 74.9607C145.465 75.2525 145.686 75.7533 146.025 76.1463C146.2 76.3272 146.305 76.5654 146.326 76.8184L146.329 76.8768C146.326 77.1285 146.796 77.072 146.669 77.4152C147.388 77.9732 147.574 78.8847 147.954 79.6401C148.563 80.8518 149.264 82.0226 149.677 83.3497C149.884 84.0135 150.286 84.6414 150.509 85.3136C151.011 86.8245 151.613 88.3025 151.939 89.8761C152.074 90.526 152.348 91.1453 152.477 91.797L152.626 92.5502C152.847 93.6807 153.056 94.814 153.195 95.9597C153.267 96.218 153.267 96.492 153.195 96.7503C153.075 97.0445 153.394 97.2329 153.419 97.528C153.451 97.8779 153.316 98.2096 153.413 98.5811C153.467 98.7859 153.413 99.1146 153.475 99.3523C153.675 100.125 153.422 100.921 153.639 101.688C153.674 101.985 153.643 102.286 153.551 102.569C153.4 103.513 153.676 104.478 153.401 105.4C153.273 105.855 153.248 106.334 153.329 106.799L153.363 106.979C153.387 107.112 153.403 107.241 153.34 107.331C153.09 107.685 153.154 108.102 153.104 108.49L153.095 108.554C153.023 108.988 153.097 109.442 152.971 109.884C152.798 110.317 152.701 110.778 152.684 111.246C152.748 112.039 152.49 112.751 152.332 113.487C152.253 113.855 152.318 114.292 151.927 114.566C151.728 114.705 152.197 114.975 151.912 115.179L151.879 115.2C151.67 115.322 151.679 115.519 151.738 115.755C151.792 115.971 151.428 116.12 151.532 116.34C151.636 116.561 151.683 116.882 151.562 116.923C151.257 117.026 151.567 117.369 151.311 117.433C151.286 117.448 151.269 117.473 151.264 117.502C151.177 118.331 150.662 119.01 150.534 119.838C150.438 120.333 150.251 120.804 149.985 121.227C149.765 121.635 149.578 122.062 149.426 122.502C149.14 123.242 148.651 123.861 148.375 124.597C148.3 124.797 147.801 124.73 148.055 125.139C147.763 125.246 147.852 125.558 147.735 125.753C147.606 125.9 147.455 126.026 147.289 126.126C147.182 126.564 146.976 126.971 146.688 127.311C146.185 128.073 145.636 128.8 145.043 129.49L144.554 130.056C143.901 130.812 143.226 131.551 142.365 132.072C142.143 132.205 142.244 132.459 142.062 132.597C141.006 133.403 140.033 134.318 138.832 134.93C138.329 135.186 137.898 135.641 137.384 135.907C136.41 136.413 135.505 137.043 134.463 137.437L134.278 137.504C133.614 137.732 132.961 138.078 132.287 138.33C130.904 138.892 129.459 139.28 127.986 139.486L127.077 139.59C126.269 139.683 125.459 139.768 124.643 139.791C124.257 139.802 123.886 139.675 123.532 139.721C123.188 139.766 122.838 139.737 122.505 139.635C122.242 139.559 122.02 139.793 121.736 139.668C121.519 139.527 121.25 139.506 121.015 139.609L120.969 139.631C120.835 139.711 120.57 139.562 120.366 139.515C120.067 139.472 119.774 139.397 119.491 139.291C119.271 139.186 118.991 139.523 118.838 139.164C118.56 139.387 99.691 134.748 82.3579 144.169C80.9463 145.136 79.2945 145.561 77.7863 146.313C77.0851 146.663 76.2969 146.823 75.5423 147.062L75.3811 147.114C74.0487 147.56 72.6824 147.864 71.318 148.182C70.0646 148.462 68.7944 148.658 67.516 148.766C66.5968 148.852 65.6735 148.892 64.7567 148.996C64.3848 149.037 64.0204 148.766 63.6566 148.999C62.839 148.769 61.9809 149.048 61.1656 148.788C60.6235 148.954 60.1141 148.748 59.6158 148.597C59.2353 148.48 58.8769 148.722 58.4927 148.55C58.1429 148.362 57.7511 148.271 57.3569 148.289C56.7023 148.393 56.1325 148.145 55.5365 148.013C54.1511 147.708 52.7707 147.378 51.3953 147.023C50.945 146.907 50.439 146.952 50.0532 146.596C49.7146 146.283 49.1803 146.479 48.8477 146.109C48.7264 145.975 48.5715 146.236 48.3887 146.134C48.0319 145.936 47.5736 146.066 47.2403 145.709C46.9934 145.445 46.5274 145.624 46.2542 145.304L46.2182 145.257C46.0568 145.025 45.6313 145.572 45.5054 145.056C44.9967 145.015 44.5751 144.728 44.1221 144.532C43.747 144.37 43.304 144.461 42.9654 144.123C42.6769 143.835 42.1317 144.047 41.8818 143.615C41.2702 143.61 40.8193 143.136 40.2365 143.012C39.7942 142.892 39.3694 142.711 38.9736 142.474C38.346 142.14 37.7088 141.826 37.0668 141.527C36.8366 141.417 36.6124 141.293 36.3953 141.156C36.2735 141.083 36.244 140.92 36.0701 140.88C34.9693 140.628 34.0436 139.964 33.1034 139.383C32.567 139.097 32.0541 138.766 31.5691 138.395L31.4084 138.27C31.2665 138.144 30.9717 138.081 30.847 137.906C30.499 137.417 29.9787 137.178 29.5067 136.884L29.4286 136.835C29.1627 136.673 28.9211 136.472 28.7111 136.238C28.6714 136.193 28.6554 136.096 28.6131 136.086C27.8298 135.885 27.3623 135.216 26.7634 134.748C26.2482 134.346 25.7978 133.856 25.2905 133.446L25.0973 133.296C23.9103 132.418 10.9205 117.63 9.44863 115.078L9.02741 114.347C8.6068 113.616 8.19101 112.879 7.80821 112.127L7.4822 111.487C7.1567 110.846 6.83632 110.2 6.55307 109.543L6.17413 108.666C5.41805 106.911 4.67821 105.147 4.04763 103.335C3.48534 101.718 3.01983 100.075 2.54987 98.4302C2.24886 97.3742 1.99451 96.3134 1.77962 95.2375C1.43633 93.5182 1.13019 91.7917 0.861251 90.0585C0.610409 88.4265 0.703183 86.7704 0.368209 85.1569C0.587669 84.1661 0.184171 83.1603 0.434711 82.1707C0.248862 81.6819 0.412296 81.1748 0.429763 80.6929C0.447672 80.1957 0.339847 79.6747 0.531805 79.1707C0.619747 78.9417 0.416454 78.6665 0.526602 78.387C0.647505 78.1544 0.661465 77.878 0.564649 77.6336C0.891029 77.4784 0.502003 77.2395 0.63754 77.0184C0.783669 76.7783 0.84822 76.495 0.820996 76.2128C0.725946 75.5815 1.07751 74.9985 1.01579 74.428C0.951423 73.8447 1.22988 73.3501 1.22902 72.8272L1.22542 72.7289C1.17736 72.0425 1.65161 71.5256 1.66743 70.8762C1.66892 70.8195 1.79874 70.7671 1.86989 70.7106C1.84708 70.5645 1.69094 70.5977 1.58019 70.484C1.757 70.3252 1.9117 70.142 2.0399 69.9394C2.13692 69.6616 2.20584 69.3744 2.24551 69.082L1.79595 68.4819C1.96185 68.1387 1.90401 67.8265 2.12552 67.5574C2.22191 67.4396 2.16816 67.0803 2.18006 66.8321C2.19576 66.5062 2.6006 66.312 2.50293 66.0546C2.4276 65.7585 2.45201 65.4447 2.57215 65.165C3.15134 62.5231 3.74132 59.8839 4.34207 57.247C4.40525 56.9644 4.35027 56.609 4.68645 56.4434C4.3191 56.0509 4.89597 55.914 4.90494 55.603C4.95176 55.3122 5.06005 55.0358 5.2221 54.7931C5.45154 54.3394 5.47263 53.7758 5.60332 53.2644C5.63774 52.9027 5.77014 52.5586 5.98533 52.2709C6.20911 52.0313 6.17687 51.6136 6.34537 51.2769C6.58341 50.8703 6.76789 50.4327 6.89395 49.9753C6.93192 49.6471 7.0585 49.3361 7.25921 49.0782C7.43746 48.8747 7.29108 48.4531 7.63751 48.2996C7.73467 47.7089 8.07564 47.2342 8.32808 46.7166L8.37428 46.619C8.99436 45.2869 9.6913 43.9944 10.4613 42.7484C11.1011 41.6998 11.7236 40.6403 12.3731 39.5982C12.5844 39.2618 12.8091 38.9268 13.0414 38.6074C13.8486 37.4329 14.718 36.3056 15.6457 35.2304C16.4942 34.3001 17.303 33.328 18.1939 32.4335C18.6675 31.9576 19.0549 31.3734 19.5148 30.868C20.5984 29.6748 21.7111 28.5141 22.8813 27.4124C23.8697 26.4023 24.9505 25.4934 26.1086 24.6987C26.4236 24.5004 26.6824 24.2101 26.9864 23.9907C27.3553 23.7804 27.7093 23.5435 28.0459 23.2813C28.4373 22.9004 28.9176 22.6581 29.313 22.3053C29.6198 22.0316 30.1109 22.1878 30.3306 21.6951C30.4906 21.3368 31.0899 21.4683 31.2915 21.0496C31.8448 21.0304 32.1031 20.4762 32.6056 20.2941L32.6725 20.2727C33.2018 20.1232 33.6536 19.6812 34.1391 19.3678C34.6076 19.0247 35.0975 18.7142 35.6062 18.4388C36.5609 17.9939 37.3848 17.3162 38.3181 16.8567C39.2077 16.4193 40.0084 15.7789 40.9789 15.5352C41.2081 15.4777 41.1654 15.2684 41.3231 15.1793C41.4874 15.0858 41.6671 15.1478 41.8153 15.0401C42.429 14.6258 46.5288 0 87.2572 0Z" fill="#898E8C"/>
<path d="M41.4387 50.6902L41.424 50.7043L41.4097 50.7189C41.3617 50.7678 41.2039 50.8717 40.8645 50.8717H24.4208C20.2799 50.8717 16.9009 52.0404 14.5701 54.5167C12.2513 56.9802 11.1543 60.543 11.1543 64.9529V86.7483C11.1543 91.1854 12.2503 94.7504 14.5715 97.2081C16.9043 99.678 20.2845 100.83 24.4208 100.83H40.8645C41.2039 100.83 41.3617 100.933 41.4097 100.982L41.4218 100.995L41.4342 101.007L65.9775 124.67C68.7066 127.387 71.246 128.718 74.3842 128.718C78.8841 128.718 82.1312 125.39 82.1312 120.906V31.0293C82.1312 26.618 78.9536 22.8657 74.2692 22.8657C71.04 22.8657 68.9433 24.4211 65.9884 27.2551C65.988 27.2555 65.9875 27.2559 65.9871 27.2563L41.4387 50.6902ZM120.906 42.8156L120.906 42.8159C127.012 51.6065 130.572 63.4793 130.572 75.7334C130.572 87.9751 126.903 99.741 120.896 108.666L120.894 108.668C119.002 111.492 119.203 115.069 122.029 117.014C124.759 118.894 128.165 118.162 130.083 115.417C137.609 104.869 141.984 90.4312 141.984 75.7334C141.984 61.0455 137.672 46.4858 130.08 36.0455C128.161 33.3036 124.758 32.5736 122.029 34.4526C119.221 36.3859 118.925 39.9614 120.906 42.8156ZM100.734 101.707L100.741 101.712C103.236 103.484 106.708 102.88 108.634 100.072C113.242 93.8996 115.938 84.9031 115.938 75.7334C115.938 66.5592 113.24 57.6237 108.636 51.3973C106.731 48.6175 103.261 47.9002 100.735 49.7587C99.2897 50.7705 98.4165 52.2169 98.2122 53.8162C98.009 55.4073 98.4783 57.0542 99.5327 58.4803C102.688 62.9199 104.527 69.1542 104.527 75.7334C104.527 82.3031 102.635 88.4923 99.5186 93.0065C98.5117 94.4444 98.0382 96.066 98.2331 97.6453C98.43 99.2408 99.2954 100.67 100.734 101.707Z" fill="white" stroke="black" stroke-width="2.5"/>
</svg>
