<svg width="251" height="251" viewBox="0 0 251 251" fill="none" xmlns="http://www.w3.org/2000/svg">
<path d="M251 0H0V251H251V0Z"/>
<path fill-rule="evenodd" clip-rule="evenodd" d="M137.601 21.7533C196.282 21.7533 208.636 103.076 208.876 103.746C209.124 104.435 209.357 105.145 209.582 105.833C210.04 107.232 210.629 108.579 211.086 109.968C211.367 110.816 211.881 111.518 212.226 112.319C212.895 113.848 213.715 115.308 214.674 116.675C215.069 117.217 215.381 117.815 215.596 118.45C215.747 118.936 216.249 119.066 216.466 119.494C216.816 120.188 217.283 120.823 217.688 121.489C217.78 121.724 217.991 121.89 218.241 121.925L218.162 122.587C218.309 122.825 218.358 122.503 218.512 122.56C218.703 122.818 218.977 123.047 219.005 123.44C219.03 123.81 219.462 123.845 219.609 124.167C219.933 124.867 220.833 125.224 220.82 126.142C221.466 126.548 221.785 127.245 222.273 127.792C222.524 128.044 222.677 128.376 222.706 128.729L222.71 128.81C222.706 129.16 223.383 129.082 223.201 129.559C224.236 130.337 224.505 131.606 225.052 132.658C225.929 134.345 226.939 135.976 227.535 137.824C227.833 138.748 228.411 139.623 228.732 140.559C229.456 142.663 230.324 144.721 230.794 146.912C230.987 147.817 231.383 148.68 231.569 149.587L231.783 150.636C232.101 152.21 232.403 153.789 232.604 155.384C232.706 155.744 232.706 156.125 232.603 156.485C232.43 156.895 232.889 157.157 232.926 157.568C232.972 158.055 232.777 158.517 232.917 159.035C232.995 159.32 232.917 159.778 233.006 160.109C233.295 161.184 232.929 162.294 233.243 163.362C233.293 163.775 233.249 164.193 233.116 164.588C232.899 165.903 233.296 167.246 232.9 168.53C232.715 169.164 232.679 169.831 232.796 170.479L232.845 170.729C232.88 170.914 232.903 171.094 232.812 171.219C232.451 171.712 232.544 172.294 232.472 172.833L232.459 172.923C232.355 173.527 232.462 174.16 232.28 174.775C232.031 175.378 231.891 176.02 231.867 176.671C231.959 177.775 231.587 178.767 231.359 179.792C231.245 180.304 231.339 180.913 230.776 181.294C230.489 181.488 231.165 181.864 230.755 182.148L230.707 182.178C230.406 182.348 230.419 182.622 230.504 182.951C230.581 183.251 230.057 183.459 230.207 183.766C230.357 184.073 230.425 184.52 230.249 184.577C229.811 184.721 230.257 185.197 229.889 185.288C229.853 185.308 229.827 185.343 229.821 185.384C229.696 186.537 228.953 187.484 228.769 188.637C228.63 189.325 228.362 189.982 227.979 190.571C227.661 191.139 227.392 191.733 227.173 192.346C226.761 193.377 226.055 194.238 225.659 195.264C225.55 195.542 224.831 195.449 225.197 196.019C224.777 196.167 224.905 196.602 224.736 196.873C224.55 197.078 224.334 197.254 224.094 197.393C223.939 198.003 223.642 198.569 223.227 199.044C222.503 200.104 221.711 201.117 220.858 202.077L220.154 202.866C219.212 203.918 218.24 204.947 216.999 205.672C216.68 205.859 216.825 206.212 216.563 206.404C215.041 207.527 213.64 208.801 211.909 209.653C211.184 210.009 210.563 210.643 209.822 211.014C208.419 211.718 207.116 212.595 205.615 213.144L205.348 213.237C204.391 213.555 203.45 214.037 202.48 214.387C200.486 215.171 198.405 215.711 196.282 215.998L194.972 216.143C193.808 216.272 192.642 216.39 191.466 216.423C190.909 216.438 190.376 216.261 189.866 216.325C189.37 216.387 188.866 216.347 188.386 216.206C188.007 216.1 187.687 216.426 187.278 216.251C186.965 216.054 186.577 216.025 186.239 216.168L186.172 216.199C185.979 216.311 185.598 216.104 185.303 216.037C184.873 215.977 184.45 215.873 184.042 215.726C183.726 215.58 183.322 216.049 183.102 215.55C182.702 215.86 155.516 209.4 130.543 222.519C128.509 223.866 126.129 224.458 123.956 225.504C122.946 225.992 121.81 226.215 120.723 226.548L120.491 226.621C118.571 227.241 116.602 227.664 114.637 228.107C112.831 228.498 111.001 228.77 109.159 228.921C107.834 229.04 106.504 229.096 105.183 229.24C104.647 229.299 104.122 228.921 103.598 229.245C102.42 228.925 101.184 229.314 100.009 228.952C99.2281 229.183 98.4942 228.896 97.7764 228.685C97.2282 228.522 96.7118 228.859 96.1582 228.62C95.6542 228.357 95.0897 228.232 94.5217 228.257C93.5786 228.401 92.7577 228.055 91.8989 227.872C89.903 227.447 87.9141 226.988 85.9325 226.494C85.2836 226.332 84.5547 226.394 83.9988 225.898C83.5109 225.463 82.7411 225.736 82.2619 225.221C82.0872 225.034 81.864 225.397 81.6006 225.255C81.0865 224.979 80.4262 225.161 79.946 224.664C79.5902 224.295 78.9189 224.545 78.5253 224.099L78.4734 224.035C78.2409 223.712 77.6277 224.473 77.4464 223.754C76.7134 223.698 76.106 223.298 75.4534 223.024C74.9129 222.798 74.2747 222.926 73.7868 222.455C73.3711 222.054 72.5857 222.349 72.2256 221.748C71.3444 221.74 70.6948 221.081 69.8551 220.908C69.2179 220.74 68.6058 220.489 68.0355 220.159C67.1313 219.694 66.2133 219.256 65.2883 218.841C64.9566 218.686 64.6336 218.514 64.3207 218.324C64.1454 218.221 64.1029 217.994 63.8522 217.939C62.2662 217.588 60.9326 216.663 59.5778 215.855C58.8051 215.455 58.0661 214.995 57.3674 214.478L57.1358 214.304C56.9313 214.128 56.5066 214.042 56.3269 213.797C55.8256 213.116 55.0759 212.783 54.3959 212.374L54.2834 212.305C53.9002 212.08 53.5522 211.8 53.2496 211.474C53.1924 211.412 53.1693 211.277 53.1084 211.262C51.9799 210.984 51.3062 210.052 50.4434 209.4C49.7012 208.84 49.0522 208.157 48.3213 207.587L48.0429 207.378C46.3327 206.155 27.6174 185.561 25.4967 182.007L24.8898 180.99C24.2838 179.971 23.6847 178.945 23.1332 177.898L22.6635 177.007C22.1945 176.114 21.7329 175.215 21.3248 174.3L20.7789 173.078C19.6895 170.634 18.6236 168.178 17.7151 165.654C16.9049 163.403 16.2342 161.115 15.5571 158.824C15.1234 157.354 14.757 155.877 14.4474 154.378C13.9528 151.984 13.5117 149.58 13.1242 147.166C12.7628 144.894 12.8965 142.587 12.4138 140.34C12.73 138.961 12.1487 137.56 12.5096 136.182C12.2419 135.501 12.4774 134.795 12.5025 134.124C12.5283 133.432 12.373 132.706 12.6495 132.004C12.7762 131.685 12.4833 131.302 12.642 130.913C12.8162 130.589 12.8363 130.204 12.6969 129.864C13.1671 129.648 12.6066 129.315 12.8019 129.007C13.0124 128.673 13.1054 128.278 13.0662 127.885C12.9293 127.006 13.4358 126.194 13.3468 125.4C13.2541 124.587 13.6553 123.899 13.6541 123.17L13.6489 123.033C13.5796 122.078 14.2629 121.358 14.2857 120.454C14.2879 120.375 14.4749 120.302 14.5774 120.223C14.5446 120.019 14.3196 120.066 14.16 119.907C14.4148 119.686 14.6377 119.431 14.8224 119.149C14.9622 118.762 15.0614 118.362 15.1186 117.955L14.4709 117.119C14.7099 116.641 14.6266 116.207 14.9457 115.832C15.0846 115.668 15.0072 115.167 15.0243 114.822C15.0469 114.368 15.6302 114.098 15.4895 113.739C15.381 113.327 15.4161 112.89 15.5892 112.5C16.4237 108.821 17.2737 105.146 18.1393 101.474C18.2303 101.08 18.1511 100.585 18.6355 100.355C18.1062 99.8083 18.9373 99.6175 18.9502 99.1845C19.0177 98.7795 19.1737 98.3947 19.4072 98.0566C19.7378 97.4248 19.7682 96.64 19.9564 95.9278C20.006 95.4242 20.1968 94.9449 20.5068 94.5443C20.8293 94.2107 20.7828 93.629 21.0256 93.1601C21.3685 92.5939 21.6343 91.9845 21.816 91.3476C21.8707 90.8904 22.053 90.4574 22.3422 90.0983C22.599 89.8148 22.3881 89.2278 22.8873 89.014C23.0272 88.1913 23.5185 87.5304 23.8822 86.8095L23.9488 86.6736C24.8422 84.8186 25.8463 83.0187 26.9558 81.2835C27.8775 79.8233 28.7743 78.3478 29.7101 76.8967C30.0146 76.4282 30.3383 75.9616 30.6731 75.5168C31.836 73.8813 33.0887 72.3114 34.4253 70.8141C35.6478 69.5186 36.8131 68.1649 38.0966 66.9193C38.779 66.2566 39.3372 65.4431 39.9998 64.7393C41.5611 63.0776 43.1641 61.4612 44.8502 59.9271C46.2742 58.5205 47.8314 57.2548 49.5 56.148C49.9538 55.8719 50.3266 55.4676 50.7647 55.1621C51.2962 54.8693 51.8062 54.5393 52.2911 54.1742C52.8551 53.6437 53.5471 53.3064 54.1167 52.8151C54.5588 52.4339 55.2663 52.6514 55.5829 51.9654C55.8135 51.4664 56.6769 51.6494 56.9674 51.0664C57.7646 51.0397 58.1368 50.2679 58.8606 50.0143L58.957 49.9845C59.7197 49.7763 60.3707 49.1609 61.0701 48.7244C61.7451 48.2465 62.451 47.8142 63.1839 47.4306C64.5593 46.8112 65.7464 45.8674 67.0911 45.2275C68.3729 44.6184 69.5265 43.7265 70.9247 43.3872C71.255 43.3072 71.1934 43.0157 71.4207 42.8915C71.6573 42.7614 71.9163 42.8477 72.1298 42.6978C73.014 42.1208 78.9209 21.7533 137.601 21.7533Z" fill="#898E8C"/>
<path fill-rule="evenodd" clip-rule="evenodd" d="M71.4094 65.4103C69.4465 66.5177 66.5724 65.105 66.2501 62.8745C67.5021 62.8076 68.8401 62.7098 69.8301 61.9404C70.8197 61.1707 71.1661 59.4666 70.1741 58.6999C62.0973 57.7079 54.24 54.964 47.302 50.7114C52.0395 49.284 56.1158 46.273 60.5658 44.1094C65.0156 41.9458 70.3977 40.6663 74.8357 42.8541C79.1934 45.0023 84.21 42.262 88.7575 40.5516C96.6646 37.5774 105.732 37.8267 113.464 41.2309C119.105 43.7148 128.664 39.6834 134.758 38.7587C144.712 37.2484 154.429 44.2249 164.424 43.0167C163.352 43.7259 162.28 44.4347 161.207 45.1439C162.264 45.0475 163.325 45.0083 164.385 45.0271C156.09 48.9965 147.795 52.9657 139.5 56.9352C141.602 57.7852 143.703 58.6353 145.804 59.4853C145.31 61.069 143.54 62.1386 141.908 61.8387C143.221 62.8835 144.534 63.9284 145.847 64.9732C144.445 65.9685 142.672 66.426 140.963 66.2322C142.783 67.4065 144.284 69.0682 145.268 70.9965C149.602 69.5528 154.348 69.3751 158.777 70.4905C154.776 71.0153 150.774 71.54 146.772 72.0644C147.377 73.7097 147.981 75.3552 148.585 77.0004C153.813 75.804 159.368 76.0761 164.454 77.7772C159.411 77.9057 154.368 78.0339 149.325 78.1624C149.207 84.8531 145.876 91.6762 140.027 94.9279C134.178 98.1791 122.491 101.07 118.62 91.6033C115.656 93.5484 115.866 98.224 117.979 101.07C120.092 103.917 123.449 105.492 126.485 107.322C136.571 113.4 144.178 123.466 147.272 134.827C150.366 146.189 148.913 158.722 143.303 169.074C150.867 170.25 157.896 174.555 162.382 180.759C172.041 176.265 177.39 166.01 184.789 158.345C193.205 149.625 204.824 144.068 216.894 142.987C224.035 142.347 232.18 143.724 236.345 149.56C241.76 157.145 236.768 168.939 228.125 172.427C221.274 175.191 213.547 173.8 206.177 174.322C191.359 175.373 178.349 184.111 166.129 192.56C165.631 195.296 166.631 198.258 168.686 200.131C173.057 195.613 178.571 192.209 184.568 190.326C186.785 189.63 190.108 189.812 190.354 192.122C190.448 192.997 189.987 193.826 189.522 194.573C185.523 200.983 179.885 206.361 173.293 210.052C169.814 212.001 165.926 213.511 161.944 213.288C157.963 213.065 153.908 210.767 152.556 207.015C151.929 205.277 151.861 203.264 150.674 201.848C148.666 199.452 144.809 200.169 141.995 201.53C139.18 202.892 136.18 204.742 133.16 203.935C125.61 201.915 117.752 201.05 109.944 201.376C99.9993 201.793 89.8666 204.108 80.2318 201.61C77.0134 200.776 73.4117 199.46 70.5603 201.171C64.9413 204.542 68.7314 215.332 62.9667 218.448C60.9246 219.551 58.4223 219.144 56.1696 218.585C46.2146 216.114 36.8771 211.194 29.2108 204.38C28.4719 203.723 27.7107 202.985 27.5036 202.019C26.8824 199.119 31.1619 197.913 34.078 198.45C39.0314 199.362 43.7689 201.426 47.809 204.434C49.225 205.489 51.3799 204.259 51.9796 202.598C52.5797 200.938 52.167 199.109 51.9328 197.359C50.4539 186.306 57.3882 174.685 67.8184 170.738C61.5036 161.522 59.1023 149.715 61.3161 138.766C63.53 127.816 70.3294 117.869 79.7282 111.831C83.4828 109.419 87.7966 107.446 90.1895 103.679C92.5824 99.9121 91.5322 93.5922 87.1548 92.7237C83.0303 97.1905 76.3219 99.0801 70.4726 97.4218C64.623 95.7639 59.9039 90.6354 58.7365 84.669C54.8541 85.9799 50.9719 87.2911 47.0895 88.6023C50.5355 85.9467 54.6161 84.1208 58.8928 83.321C59.3031 81.5425 59.7134 79.7645 60.1241 77.986C52.7159 77.5081 45.2033 78.7273 38.3269 81.5235C42.5584 78.3381 47.9425 76.7197 53.2289 77.0433C58.606 77.3726 64.0721 74.7418 67.1688 70.3335C65.2314 69.6525 63.4901 68.4229 62.2 66.8246C64.1762 65.752 66.5694 65.4742 68.7384 66.0652L71.4094 65.4103ZM109.413 182.044C109.06 182.387 108.681 182.795 108.706 183.286C108.73 183.778 109.468 184.145 109.722 183.723C111.111 181.423 113.525 179.77 116.171 179.307C118.817 178.844 121.649 179.579 123.736 181.27C124.464 181.86 125.114 182.566 125.946 182.997C126.246 183.152 126.758 183.157 126.771 182.819C126.775 182.709 126.711 182.608 126.649 182.516C125.15 180.308 122.91 178.612 120.377 177.77C118.156 177.033 115.583 176.986 113.598 178.223C112.877 178.673 112.261 179.27 111.653 179.863C110.906 180.59 110.159 181.317 109.413 182.044ZM98.6452 178.025C95.7704 177.645 92.6754 178.609 90.7611 180.787C90.4238 181.171 90.1169 181.603 90.0008 182.101C89.885 182.599 89.9941 183.175 90.3796 183.51C91.8605 181.21 94.492 179.693 97.2245 179.563C99.9574 179.435 102.72 180.697 104.411 182.848C104.675 183.184 104.928 183.552 105.303 183.758C105.678 183.963 106.224 183.937 106.453 183.575C106.726 183.143 106.396 182.59 106.059 182.206C104.149 180.024 101.52 178.405 98.6452 178.025ZM118.922 175.082C118.878 175.568 119.52 175.87 119.982 175.711C120.443 175.552 120.749 175.127 121.058 174.749C123.628 171.606 128.521 170.659 132.078 172.616C132.545 172.222 132.571 171.467 132.259 170.942C131.947 170.417 131.377 170.095 130.795 169.909C129.535 169.506 128.167 169.644 126.871 169.906C123.802 170.527 120.703 171.981 119.09 174.664C119.012 174.794 118.936 174.931 118.922 175.082ZM106.86 185.279C105.599 185.367 104.364 185.7 103.184 186.152C101.552 186.776 99.9457 187.686 98.9906 189.149C100.391 189.545 101.734 188.501 103.013 187.807C105.883 186.249 109.606 186.41 112.331 188.21C113.186 188.774 114.285 189.504 115.118 188.908C113.168 186.463 109.979 185.062 106.86 185.279ZM112.04 184.49C112.997 183.992 113.761 183.182 114.71 182.669C116.017 181.963 117.645 181.881 119.015 182.454C119.76 182.764 120.419 183.251 121.152 183.587C121.885 183.922 122.759 184.097 123.49 183.755C123.571 183.717 123.655 183.667 123.689 183.584C123.745 183.45 123.646 183.305 123.55 183.196C121.915 181.329 119.353 180.318 116.884 180.564C114.415 180.811 112.103 182.309 110.869 184.461C111.127 184.801 111.663 184.687 112.04 184.49ZM92.8846 184.579C93.397 184.288 93.7979 183.838 94.2664 183.48C95.2035 182.764 96.424 182.435 97.595 182.571C98.9002 182.722 100.077 183.413 101.156 184.162C101.472 184.381 101.794 184.612 102.168 184.699C102.543 184.786 102.989 184.691 103.2 184.371C103.41 184.054 103.326 183.611 103.101 183.304C102.877 182.997 102.541 182.796 102.213 182.603C100.879 181.821 99.4692 181.039 97.9247 180.959C95.994 180.859 94.1998 181.866 92.5302 182.84C91.8528 183.235 91.0754 183.833 91.2186 184.604C91.6821 184.969 92.3722 184.871 92.8846 184.579ZM101.579 177.096C101.928 177.547 102.61 177.063 102.995 176.643C104.18 175.348 105.888 174.546 107.642 174.462C109.395 174.378 111.172 175.012 112.476 176.188C112.805 176.484 113.152 176.835 113.595 176.847C114.037 176.859 114.436 176.241 114.085 175.971C112.205 174.527 110.019 173.347 107.653 173.191C105.288 173.035 102.739 174.096 101.644 176.198C101.497 176.48 101.385 176.845 101.579 177.096ZM122.491 176.701C122.803 176.569 123.032 176.3 123.271 176.06C125.091 174.229 128.174 173.82 130.408 175.112C130.967 175.436 131.808 175.792 132.132 175.234C132.403 174.769 131.92 174.227 131.46 173.948C128.455 172.126 124.171 172.82 121.895 175.498C121.663 175.771 121.44 176.145 121.6 176.466C121.75 176.769 122.179 176.833 122.491 176.701ZM124.152 176.873C124.023 176.981 123.894 177.102 123.84 177.261C123.688 177.706 124.229 178.122 124.698 178.085C125.167 178.048 125.565 177.746 125.99 177.546C127.027 177.057 128.273 177.174 129.325 177.628C129.742 177.808 130.145 178.04 130.593 178.108C131.042 178.175 131.565 178.026 131.77 177.621C129.986 175.411 126.332 175.052 124.152 176.873ZM95.9538 176.024C96.2202 176.149 96.5833 176.125 96.7543 175.886C96.9873 175.561 96.7379 175.119 96.4906 174.804C95.6536 173.74 94.7534 172.692 93.6028 171.979C92.4522 171.265 91.0031 170.921 89.722 171.359C89.5915 171.832 90.1805 172.154 90.644 172.315C92.4288 172.937 94.0489 174.026 95.2989 175.444C95.4933 175.665 95.6878 175.899 95.9538 176.024ZM111.726 177.212C109.62 175.869 106.745 175.845 104.617 177.154C104.247 177.381 103.867 177.701 103.838 178.134C103.809 178.567 104.398 178.969 104.69 178.648C105.865 177.352 108.013 177.083 109.472 178.049C110.188 178.524 111.217 178.459 111.868 177.898C112.175 177.866 111.987 177.378 111.726 177.212ZM127.048 184.48C124.055 184.278 121.27 186.039 119.098 188.108C119.256 188.473 119.796 188.376 120.161 188.218C122.635 187.148 125.109 186.077 127.583 185.006C127.769 184.76 127.356 184.501 127.048 184.48ZM98.5646 185.813C98.9327 186.022 99.2931 186.306 99.7161 186.306C100.139 186.306 100.559 185.797 100.29 185.47C99.4454 184.439 98.1171 183.823 96.7848 183.844C95.4521 183.864 94.1436 184.52 93.3304 185.576C93.4308 185.96 93.9003 186.137 94.2925 186.079C94.6848 186.022 95.0305 185.801 95.3946 185.643C96.4009 185.207 97.6104 185.272 98.5646 185.813ZM113.405 185.532C113.372 185.827 113.706 186.052 114.002 186.036C114.298 186.02 114.558 185.846 114.818 185.704C115.908 185.103 117.25 184.98 118.432 185.372C119.189 185.623 120.133 186.034 120.679 185.453C120.727 185.121 120.394 184.871 120.098 184.713C119.037 184.149 117.869 183.723 116.667 183.734C115.466 183.745 114.226 184.249 113.539 185.236C113.477 185.326 113.418 185.423 113.405 185.532ZM111.171 172.601C112.409 173.044 113.561 173.722 114.548 174.59C114.955 174.947 115.344 175.344 115.838 175.567C116.332 175.79 116.973 175.795 117.359 175.416C116.504 174.76 115.802 173.907 115.323 172.941C115.065 172.422 114.377 172.326 113.797 172.298C112.95 172.257 112.103 172.215 111.255 172.174C111.166 172.294 111.134 172.455 111.171 172.601ZM100.121 175.576C100.558 175.167 100.881 174.652 101.285 174.211C101.912 173.526 102.738 173.025 103.634 172.786C104.021 172.683 104.53 172.485 104.471 172.089C103.375 171.899 102.124 171.745 101.26 172.445C100.049 173.426 99.0893 174.714 98.4956 176.155C99.0799 176.284 99.6833 175.984 100.121 175.576ZM90.3769 175.08C91.1624 175.592 91.9482 176.103 92.7337 176.615C93.0663 176.832 93.4907 177.054 93.8357 176.857C94.156 176.675 94.2049 176.206 94.0379 175.878C93.8712 175.549 93.5529 175.33 93.2474 175.124C92.6078 174.693 91.9683 174.263 91.3287 173.832C90.7929 173.471 89.9205 173.184 89.6293 173.76C89.378 174.257 89.9104 174.776 90.3769 175.08ZM106.917 181.233C107.218 181.531 107.639 181.854 108.021 181.67C108.195 181.587 108.307 181.416 108.41 181.253C108.751 180.714 109.091 180.176 109.432 179.638C108.54 178.646 106.79 178.62 105.869 179.584C105.798 179.658 105.729 179.743 105.716 179.844C105.696 180.005 105.821 180.145 105.936 180.259C106.263 180.584 106.59 180.908 106.917 181.233ZM93.1704 188.929C93.8093 189.154 94.5633 189.22 95.1265 188.845C94.2785 187.869 93.2842 187.02 92.1875 186.336C91.8762 186.142 91.5255 185.955 91.1624 186.006C90.7993 186.058 90.478 186.471 90.6537 186.793C91.1935 187.78 92.1082 188.557 93.1704 188.929ZM128.221 181.088C128.523 180.723 128.824 180.359 129.126 179.994C129.23 179.868 129.34 179.726 129.334 179.563C129.325 179.356 129.136 179.208 128.956 179.106C128.328 178.753 127.588 178.606 126.873 178.692C126.6 178.725 126.315 178.799 126.123 178.996C125.931 179.193 125.875 179.543 126.068 179.739C126.507 180.183 126.945 180.627 127.383 181.071C127.527 181.216 127.708 181.374 127.907 181.33C128.039 181.302 128.135 181.192 128.221 181.088ZM96.7169 173.207C96.9876 173.498 97.328 173.797 97.7245 173.764C98.5746 173.694 98.849 172.226 99.6984 172.306C99.9263 171.931 99.3042 171.63 98.8644 171.623C97.7266 171.605 96.5887 171.587 95.4511 171.569C95.8223 172.152 96.2467 172.7 96.7169 173.207ZM103.744 189.199C106.111 189.188 108.477 189.178 110.844 189.168C110.637 188.7 110.082 188.51 109.58 188.406C107.938 188.066 106.216 188.118 104.597 188.557C104.234 188.655 103.821 188.831 103.744 189.199ZM118.358 186.708C117.575 186.744 116.792 186.779 116.008 186.814C115.756 186.826 115.431 186.899 115.4 187.15C115.386 187.262 115.442 187.37 115.497 187.469C115.704 187.845 115.924 188.236 116.282 188.473C116.64 188.71 117.179 188.733 117.458 188.407C117.671 188.156 117.688 187.766 117.943 187.557C118.107 187.423 118.334 187.396 118.516 187.286C118.697 187.176 118.813 186.892 118.645 186.762C118.566 186.702 118.457 186.704 118.358 186.708ZM98.081 188.018C98.2901 187.692 98.0923 187.23 97.7664 187.02C97.4404 186.81 97.0328 186.784 96.6456 186.765C96.2179 186.744 95.6546 186.823 95.5777 187.244C95.5412 187.445 95.6436 187.642 95.7423 187.82C96.0325 188.344 96.4595 188.945 97.0555 188.886C97.5177 188.84 97.8303 188.409 98.081 188.018ZM129.016 183.322C129.367 183.351 129.682 183.113 129.929 182.861C130.681 182.092 131.159 181.06 131.26 179.989C131.011 179.83 130.707 180.077 130.516 180.303C129.876 181.06 129.236 181.817 128.595 182.574C128.368 182.843 128.664 183.293 129.016 183.322ZM89.8428 177.958C90.1999 178.405 90.8886 178.545 91.392 178.273C91.6497 178.133 91.8669 177.857 91.8157 177.568C91.7701 177.312 91.5366 177.138 91.321 176.991C91.0095 176.779 90.6982 176.566 90.3866 176.354C90.2916 176.289 90.1825 176.221 90.0697 176.245C89.9917 176.26 89.9295 176.317 89.8773 176.377C89.5011 176.808 89.4857 177.511 89.8428 177.958ZM117.499 173.241C117.873 173.555 118.427 173.23 118.798 172.913C119.201 172.569 119.603 172.225 120.006 171.881C119.778 171.663 119.414 171.712 119.105 171.776C118.209 171.961 117.312 172.147 116.416 172.332C116.777 172.635 117.138 172.938 117.499 173.241ZM131.578 168.843C131.804 169.124 132.279 169.063 132.538 168.812C132.797 168.561 132.892 168.19 132.967 167.837C132.984 167.753 133.001 167.661 132.966 167.582C132.875 167.381 132.577 167.441 132.377 167.534C131.84 167.785 131.207 168.381 131.578 168.843Z" fill="white"/>
<path fill-rule="evenodd" clip-rule="evenodd" d="M61.3161 138.766C63.5299 127.816 71.0994 118.65 80.4982 112.612C75.7463 119.126 61.1632 129.809 65.8505 141.71C73.3427 160.734 102.489 163.726 101.475 163.933C84.2364 167.448 59.6679 146.918 61.3161 138.766Z" fill="#E7EAEE"/>
<path fill-rule="evenodd" clip-rule="evenodd" d="M116.458 43.7456C115.259 43.8912 114.202 44.8517 113.943 46.0317C123.651 40.8119 135.377 39.4702 146.013 42.3614C146.022 47.7255 142.259 52.8847 137.149 54.5149L126.07 58.0493C128.993 58.3736 131.996 57.9449 134.711 56.816C135.676 58.3361 137.265 59.4465 139.024 59.829L135.619 60.576C136.121 62.1058 137.146 63.4588 138.483 64.3557C137.348 63.9672 136.086 63.9632 134.949 64.3447L135.711 67.1137C130.69 66.4169 125.324 67.1007 121.094 69.8958C116.865 72.6909 114.025 77.8291 114.787 82.841C115.679 77.3917 119.413 72.4891 124.43 70.1816C129.446 67.8737 135.598 68.2285 140.317 71.0969L137.116 73.4674C138.345 73.9563 139.802 73.8315 140.93 73.1404C143.393 74.2304 142.711 78.7374 140.035 79.0496L143.575 79.2959C144.188 85.3139 140.471 91.5203 134.875 93.8191C129.279 96.1179 122.272 94.3178 118.478 89.6063C113.767 92.0116 114.098 99.3016 117.454 103.389C119.798 106.242 123.025 108.095 126.258 109.951C127.655 110.754 129.055 111.558 130.384 112.443C137.443 117.146 142.706 124.479 144.901 132.673C141.068 135.239 137.657 138.438 134.85 142.098C139.004 141.905 143.072 140.21 146.135 137.398L146.789 143.725C143.426 144.761 140.404 146.874 138.278 149.679C141.276 149.984 144.366 149.284 146.939 147.717C146.018 154.997 144.354 162.183 141.984 169.128L134.254 169.065C136.088 163.997 137.945 158.544 136.594 153.327C135.243 148.109 129.184 143.803 124.414 146.312C129.899 141.891 134.053 135.838 136.206 129.13L122.392 146.96L111.792 147.05C111.459 142.056 111.138 136.937 112.558 132.137C113.978 127.337 117.523 122.843 122.408 121.749C122.937 121.63 123.502 121.534 124.073 121.436C126.46 121.027 128.978 120.595 129.679 118.438C121.761 117.977 113.824 123.046 110.911 130.424C108.836 135.68 109.202 141.54 109.599 147.178C102.279 146.122 94.7842 146.291 87.5195 147.677C86.2585 143.379 84.9506 138.983 82.3051 135.368C79.6599 131.752 75.3651 129.01 70.9074 129.456C78.0863 130.523 81.6425 138.501 84.3496 145.235C87.0567 151.969 91.9709 159.661 99.1984 158.995C101.257 158.805 101.912 162.186 100.334 163.521C98.7567 164.857 96.413 164.603 94.3936 164.161C83.9922 161.885 74.2811 156.544 66.7883 148.979C65.3295 147.506 63.9189 145.894 63.2445 143.933C62.4129 141.514 62.8004 138.843 63.5156 136.387C67.1691 123.841 78.4129 115.244 89.0985 107.723C94.8474 103.676 94.6413 93.6474 88.731 89.8406C84.3559 93.8161 78.5224 96.5962 72.6463 95.9476C66.7705 95.299 61.2094 90.4878 61.02 84.5793C62.8653 84.4167 64.6742 83.8501 66.2826 82.9311C64.704 82.3698 62.9246 82.3939 61.3613 82.9973C60.9363 81.405 61.2465 79.6316 62.1873 78.2785L65.5376 77.9204C64.8639 77.1591 63.9245 76.6373 62.9222 76.4683C65.3402 72.4396 70.9515 71.3369 75.4488 72.6983C79.9457 74.0597 83.5879 77.303 87.0721 80.4552C83.439 72.4891 73.587 69.9216 64.9851 68.2891L68.7384 66.0652C66.5694 65.4742 64.1762 65.752 62.2 66.8246C63.4901 68.4229 65.2314 69.6525 67.1688 70.3335C64.0721 74.7418 58.606 77.3726 53.2289 77.0433C47.9425 76.7197 42.5584 78.3381 38.3269 81.5235C45.2033 78.7273 52.7159 77.5081 60.1241 77.986L58.8928 83.321C54.6161 84.1208 50.5355 85.9467 47.0895 88.6023L58.7365 84.669C59.9039 90.6354 64.623 95.7639 70.4726 97.4218C76.3219 99.0801 83.0303 97.1905 87.1548 92.7237C91.5322 93.5922 92.5824 99.9121 90.1895 103.679C88.295 106.662 85.196 108.519 82.1237 110.361C81.3158 110.846 80.51 111.329 79.7282 111.831C70.3294 117.869 63.53 127.816 61.3161 138.766C59.1023 149.715 61.5036 161.522 67.8184 170.738C57.3882 174.685 50.4539 186.306 51.9328 197.359C51.9666 197.612 52.004 197.867 52.0419 198.123C52.2651 199.635 52.493 201.178 51.9796 202.598C51.3799 204.259 49.225 205.489 47.809 204.434C43.7689 201.426 39.0314 199.362 34.078 198.45C31.1619 197.913 26.8824 199.119 27.5036 202.019C27.7107 202.985 28.4719 203.723 29.2108 204.38C36.8771 211.194 46.2146 216.114 56.1696 218.585C58.4223 219.144 60.9246 219.551 62.9667 218.448C65.8736 216.876 66.3509 213.354 66.8305 209.815C67.3017 206.336 67.7749 202.842 70.5603 201.171C73.0757 199.662 76.175 200.508 79.0799 201.301L79.0816 201.301C79.4691 201.407 79.8533 201.512 80.2318 201.61C87.14 203.401 94.3036 202.718 101.47 202.034C104.3 201.764 107.129 201.494 109.944 201.376C117.752 201.05 125.61 201.915 133.16 203.935C135.79 204.638 138.404 203.326 140.894 202.076C141.264 201.891 141.631 201.707 141.995 201.53C144.809 200.169 148.666 199.452 150.674 201.848C151.468 202.796 151.762 204.01 152.056 205.23V205.231H152.056V205.231V205.231V205.232V205.232H152.057V205.232V205.233V205.233V205.233H152.057V205.234V205.234V205.234V205.235C152.203 205.837 152.349 206.441 152.556 207.015C153.908 210.767 157.963 213.065 161.944 213.288C165.926 213.511 169.814 212.001 173.293 210.052C179.885 206.361 185.523 200.983 189.522 194.573C189.987 193.826 190.448 192.997 190.354 192.122C190.108 189.812 186.785 189.63 184.568 190.326C178.571 192.209 173.057 195.613 168.686 200.131C166.631 198.258 165.631 195.296 166.129 192.56C178.349 184.111 191.359 175.373 206.177 174.322C208.501 174.158 210.86 174.184 213.216 174.209C218.332 174.264 223.434 174.319 228.125 172.427C236.768 168.939 241.76 157.145 236.345 149.56C232.18 143.724 224.035 142.347 216.894 142.987C204.824 144.068 193.205 149.625 184.789 158.345C182.45 160.768 180.317 163.449 178.187 166.125C173.578 171.917 168.988 177.685 162.382 180.759C157.896 174.555 150.867 170.25 143.303 169.074C148.913 158.722 150.366 146.189 147.272 134.827C144.178 123.466 136.571 113.4 126.485 107.322C125.936 106.991 125.376 106.668 124.815 106.344L124.814 106.344C122.275 104.88 119.71 103.401 117.979 101.07C115.866 98.224 115.656 93.5484 118.62 91.6033C122.561 97.0112 130.832 98.1791 136.681 94.9279C142.529 91.6762 145.86 84.8531 145.978 78.1624L161.107 77.7772C156.022 76.0761 150.466 75.804 145.239 77.0004L143.426 72.0644L155.43 70.4905C151.001 69.3751 146.255 69.5528 141.922 70.9965C140.937 69.0682 139.436 67.4065 137.617 66.2322C139.325 66.426 141.099 65.9685 142.5 64.9732L138.561 61.8387C140.193 62.1386 141.964 61.069 142.458 59.4853L136.154 56.9352L161.039 45.0271C159.979 45.0083 158.917 45.0475 157.861 45.1439L161.078 43.0167C156.166 43.6104 151.322 42.2279 146.484 40.8471C141.476 39.418 136.474 37.9907 131.411 38.7587C129.422 39.0606 127.42 39.6931 125.43 40.3226C121.323 41.6208 117.264 42.9043 113.464 41.2309C105.732 37.8267 96.6646 37.5774 88.7575 40.5516C88.0584 40.8146 87.3479 41.1021 86.6307 41.3922C82.6829 42.9893 78.5234 44.672 74.8357 42.8541C70.3977 40.6663 65.0156 41.9458 60.5658 44.1094C59.0036 44.8688 57.4876 45.7329 55.9729 46.596C53.1724 48.1917 50.3766 49.785 47.302 50.7114C54.24 54.964 62.0973 57.7079 70.1741 58.6999C71.1661 59.4666 70.8197 61.1707 69.8301 61.9404C68.8401 62.7098 67.5021 62.8076 66.2501 62.8745C66.5724 65.105 69.4465 66.5177 71.4094 65.4103C70.5844 65.5635 70.5228 64.2235 70.8655 63.4578L73.0041 58.6788C74.665 59.2885 76.7319 58.31 77.3129 56.639C73.2002 57.134 68.9328 57.6155 64.9928 56.3361C61.0531 55.0567 57.5327 51.4871 57.7175 47.3486C66.4914 42.2654 78.2697 42.9538 86.3917 49.0243C85.7646 47.1944 84.2231 45.7031 82.373 45.1372C84.5092 43.0341 87.3448 41.6539 90.3177 41.2704C88.5517 42.6677 87.7421 45.1659 88.3532 47.3336L96.2831 40.0402C94.9823 42.3721 94.2537 45.0207 94.1787 47.69C97.1195 45.768 99.4625 42.9448 100.809 39.6998L104.337 40.1951C102.177 42.0197 100.974 44.9193 101.207 47.7368C103.895 46.0659 105.979 43.4447 107.002 40.4495C110.314 40.9846 113.531 42.1061 116.458 43.7456ZM213.9 172.857C212.126 172.799 210.352 172.74 208.587 172.79C195.455 173.163 183.246 179.559 172.41 186.989L172.298 187.066L172.176 187.15L171.962 187.297L171.954 187.302C169.898 188.717 167.821 190.145 165.474 190.979L162.717 182.942C162.569 182.511 162.478 181.918 162.878 181.701C167.095 179.421 170.945 176.465 174.237 172.981C176.431 170.66 178.376 168.109 180.32 165.561C183.072 161.952 185.819 158.35 189.259 155.414C194.753 150.725 201.669 148.041 208.609 146.04C213.745 144.559 219.127 143.397 224.409 144.211C229.692 145.024 234.893 148.177 236.83 153.159C238.369 157.115 237.616 161.783 235.246 165.304C232.875 168.826 229.026 171.223 224.902 172.229C221.315 173.103 217.611 172.98 213.9 172.857ZM62.7967 189.882C63.0745 190.543 63.2495 191.424 62.6953 191.878C61.9811 192.463 60.9684 191.709 60.3684 191.008L55.2547 185.033C54.0305 188.215 53.4689 191.651 53.6158 195.057C53.6453 195.74 53.7008 196.433 53.7567 197.128V197.128V197.129V197.129H53.757V197.129V197.13V197.13V197.13V197.131V197.131C53.9709 199.792 54.1874 202.488 52.9548 204.796C52.4144 205.808 51.4947 206.737 50.3495 206.811C49.7005 206.853 49.0687 206.616 48.4696 206.363C46.8278 205.668 45.21 204.815 43.5929 203.962C39.4296 201.766 35.27 199.572 30.7115 200.096C30.0889 200.167 29.3137 200.474 29.338 201.1C29.3489 201.381 29.5318 201.622 29.7097 201.839C36.2821 209.865 46.5597 213.758 56.509 216.697C58.1361 217.177 59.851 217.645 61.5079 217.28C63.1648 216.915 64.703 215.421 64.5028 213.737C63.9734 209.279 65.37 204.625 68.2668 201.196C69.4231 199.827 70.8853 198.609 72.6396 198.244C74.7949 197.796 76.9012 198.684 78.9758 199.559H78.9762C79.509 199.784 80.0397 200.007 80.5685 200.207C84.6237 201.74 89.1815 201.907 93.3381 200.676C91.7129 200.655 90.9325 198.706 90.5958 197.116C88.4138 186.816 87.2535 176.3 87.138 165.772C87.1256 164.627 86.3224 163.615 85.3539 163.005C84.534 162.488 83.5989 162.201 82.6692 161.915C82.5009 161.863 82.3325 161.812 82.1649 161.758C78.7797 160.686 75.59 159 72.7969 156.807C72.4448 156.531 72.0984 156.246 71.7514 155.961C70.6825 155.083 69.6125 154.203 68.3853 153.574C66.7602 152.74 64.7488 152.399 63.12 153.226C62.7566 154.092 63.4135 155.098 64.2542 155.516C64.8911 155.833 65.6046 155.919 66.3161 156.005C66.5443 156.032 66.7722 156.059 66.9971 156.094C68.0677 156.261 69.1099 156.609 70.065 157.121C71.068 157.658 72.0185 159.077 71.1242 159.781C70.7574 160.07 70.2437 160.049 69.7782 160.015L64.5273 159.629C65.8074 163.112 67.4392 166.465 69.3903 169.621C69.5653 169.904 69.7993 170.219 70.1323 170.222C75.2764 170.269 81.021 170.989 84.281 174.968C84.8988 175.723 85.4058 176.813 84.876 177.631C81.8878 174.023 77.2135 171.874 72.5292 171.955C67.8448 172.036 63.2475 174.345 60.3858 178.054C62.9118 179.745 64.9198 182.199 66.0775 185.009C66.4268 185.858 66.3626 187.246 65.4449 187.227L59.933 180.478C59.6867 180.177 59.3905 179.85 59.0013 179.837C58.6894 179.828 58.4143 180.028 58.1666 180.218C57.6305 180.63 57.0739 181.067 56.7941 181.682C56.5144 182.298 56.6184 183.145 57.2014 183.487C59.6863 184.947 61.6803 187.226 62.7967 189.882ZM125.637 200.444C129.177 197.491 130.331 192.629 131.282 188.118L134.765 171.591C134.802 171.414 134.845 171.227 134.972 171.099C135.14 170.929 135.403 170.911 135.641 170.904C141.99 170.712 148.749 171.317 153.863 175.085C151.777 176.119 149.953 177.679 148.606 179.579C148.228 180.112 147.913 180.914 148.399 181.35C148.581 181.514 148.836 181.572 149.08 181.589C150.299 181.676 151.412 180.915 152.303 180.078C152.495 179.898 152.684 179.711 152.873 179.525C153.56 178.845 154.25 178.162 155.122 177.763C156.233 177.255 157.776 177.397 158.39 178.454C156.408 179.464 154.774 181.143 153.821 183.153C153.573 183.676 153.368 184.281 153.569 184.823C153.77 185.367 154.561 185.685 154.95 185.256L158.779 181.029C158.964 180.824 159.221 180.6 159.48 180.695C159.62 180.746 159.712 180.878 159.791 181.003C161.821 184.187 162.627 187.895 163.437 191.618C163.912 193.799 164.387 195.984 165.11 198.074C165.689 199.748 166.807 201.629 168.579 201.63C169.558 201.631 170.424 201.028 171.199 200.43C172.027 199.791 172.851 199.12 173.679 198.446C177.573 195.277 181.556 192.036 186.46 191.648C187.233 191.587 188.224 191.758 188.406 192.512C188.511 192.949 188.276 193.39 188.041 193.774C184.396 199.741 178.928 204.445 172.888 207.967C169.795 209.77 166.405 211.318 162.825 211.346C159.245 211.373 155.455 209.543 154.102 206.229C153.826 205.553 153.657 204.839 153.489 204.126L153.489 204.126C153.294 203.301 153.099 202.477 152.739 201.714C151.811 199.745 149.753 198.359 147.581 198.239C145.511 198.124 143.608 199.046 141.709 199.966C141.042 200.289 140.376 200.612 139.703 200.889C135.234 202.732 129.98 202.566 125.637 200.444ZM102.009 164.862C100.676 165.999 98.8842 166.452 97.1372 166.581C93.99 166.812 90.7785 166.075 88.0466 164.495L89.1738 168.762C89.2223 168.946 89.2802 169.144 89.4328 169.257C89.5654 169.356 89.7411 169.368 89.9061 169.376L106.103 170.228C108.464 170.352 110.828 170.476 113.192 170.408C119.821 170.216 126.401 168.485 132.267 165.39C132.606 165.212 132.951 165.022 133.194 164.727C133.485 164.375 133.599 163.915 133.697 163.469C134.518 159.701 134.66 155.785 134.114 151.967C133.98 151.029 133.793 150.068 133.266 149.28C132.738 148.493 131.79 147.918 130.86 148.095C121.329 149.91 111.599 149.35 101.87 148.789H101.87H101.87H101.869H101.869H101.869H101.868H101.868C98.2011 148.578 94.5342 148.366 90.8783 148.282C90.2253 148.267 89.5389 148.264 88.9653 148.577C88.392 148.889 87.9975 149.63 88.292 150.213C89.9589 153.511 93.4037 155.616 96.9752 156.565C97.2319 156.634 97.4943 156.701 97.76 156.768C100.071 157.356 102.615 158.003 103.454 160.153C104.09 161.785 103.341 163.725 102.009 164.862ZM127.995 192.817C127.342 195.411 125.968 198.102 123.476 199.075C122.605 199.415 121.661 199.517 120.729 199.604C112.089 200.408 103.356 200.214 94.7604 199.028C94.2487 198.957 93.7092 198.871 93.3103 198.542C92.8243 198.143 92.6597 197.481 92.5322 196.865C92.142 194.976 91.8398 193.069 91.6262 191.152C91.5888 190.812 91.6828 190.328 92.0235 190.354C97.5237 190.782 103.04 191.007 108.557 191.028C112.363 191.042 116.198 190.957 119.916 190.139C123.632 189.322 127.257 187.724 129.974 185.06C129.201 186.682 128.869 188.454 128.536 190.229V190.229H128.535V190.23V190.23V190.23H128.535V190.231V190.231V190.231H128.535V190.232C128.372 191.098 128.21 191.966 127.995 192.817ZM109.413 182.044C109.06 182.387 108.681 182.795 108.706 183.286C108.73 183.778 109.468 184.145 109.722 183.723C111.111 181.423 113.525 179.77 116.171 179.307C118.817 178.844 121.649 179.579 123.736 181.27C123.953 181.446 124.163 181.632 124.373 181.818C124.867 182.256 125.362 182.694 125.946 182.997C126.246 183.152 126.758 183.157 126.771 182.819C126.775 182.709 126.711 182.608 126.649 182.516C125.15 180.308 122.91 178.612 120.377 177.77C118.156 177.033 115.583 176.986 113.598 178.223C112.877 178.673 112.261 179.27 111.653 179.863L109.413 182.044ZM90.7611 180.787C92.6754 178.609 95.7704 177.645 98.6452 178.025C101.52 178.405 104.149 180.024 106.059 182.206C106.396 182.59 106.726 183.143 106.453 183.575C106.224 183.937 105.678 183.963 105.303 183.758C104.975 183.578 104.742 183.276 104.512 182.978L104.511 182.976C104.491 182.95 104.47 182.924 104.45 182.898C104.437 182.882 104.424 182.865 104.411 182.848C102.72 180.697 99.9574 179.435 97.2245 179.563C94.492 179.693 91.8605 181.21 90.3796 183.51C89.9941 183.175 89.885 182.599 90.0008 182.101C90.1169 181.603 90.4238 181.171 90.7611 180.787ZM118.922 175.082C118.878 175.568 119.52 175.87 119.982 175.711C120.397 175.568 120.686 175.209 120.965 174.863C120.996 174.825 121.027 174.787 121.058 174.749C123.628 171.606 128.521 170.659 132.078 172.616C132.545 172.222 132.571 171.467 132.259 170.942C131.947 170.417 131.377 170.095 130.795 169.909C129.535 169.506 128.167 169.644 126.871 169.906C123.802 170.527 120.703 171.981 119.09 174.664C119.012 174.794 118.936 174.931 118.922 175.082ZM103.184 186.152C104.364 185.7 105.599 185.367 106.86 185.279C109.979 185.062 113.168 186.463 115.118 188.908C114.288 189.502 113.194 188.779 112.339 188.216L112.331 188.21C109.606 186.41 105.883 186.249 103.013 187.807C102.789 187.928 102.563 188.061 102.336 188.194C101.262 188.823 100.146 189.476 98.9906 189.149C99.9457 187.686 101.552 186.776 103.184 186.152ZM112.04 184.49C112.53 184.235 112.969 183.899 113.408 183.563C113.827 183.241 114.247 182.92 114.71 182.669C116.017 181.963 117.645 181.881 119.015 182.454C119.415 182.621 119.79 182.838 120.166 183.056L120.166 183.056C120.49 183.244 120.813 183.431 121.152 183.587C121.885 183.922 122.759 184.097 123.49 183.755C123.571 183.717 123.655 183.667 123.689 183.584C123.745 183.45 123.646 183.305 123.55 183.196C121.915 181.329 119.353 180.318 116.884 180.564C114.415 180.811 112.103 182.309 110.869 184.461C111.127 184.801 111.663 184.687 112.04 184.49ZM93.7631 183.904C93.4846 184.15 93.2065 184.396 92.8846 184.579C92.3722 184.871 91.6821 184.969 91.2186 184.604C91.0754 183.833 91.8528 183.235 92.5302 182.84C94.1998 181.866 95.994 180.859 97.9247 180.959C99.4692 181.039 100.879 181.821 102.213 182.603C102.541 182.796 102.877 182.997 103.101 183.304C103.326 183.611 103.41 184.054 103.2 184.371C102.989 184.691 102.543 184.786 102.168 184.699C101.808 184.615 101.496 184.398 101.192 184.187L101.156 184.162C100.077 183.413 98.9002 182.722 97.595 182.571C96.424 182.435 95.2035 182.764 94.2664 183.48C94.0934 183.612 93.9298 183.757 93.7661 183.902L93.7658 183.902L93.7654 183.902H93.7651V183.903H93.7648V183.903H93.7644L93.7641 183.903L93.7638 183.904H93.7634V183.904H93.7631ZM101.579 177.096C101.928 177.547 102.61 177.063 102.995 176.643C104.18 175.348 105.888 174.546 107.642 174.462C109.395 174.378 111.172 175.012 112.476 176.188C112.503 176.212 112.53 176.236 112.556 176.261C112.862 176.539 113.188 176.836 113.595 176.847C114.037 176.859 114.436 176.241 114.085 175.971C112.205 174.527 110.019 173.347 107.653 173.191C105.288 173.035 102.739 174.096 101.644 176.198C101.497 176.48 101.385 176.845 101.579 177.096ZM123.165 176.168C122.962 176.377 122.757 176.588 122.491 176.701C122.179 176.833 121.75 176.769 121.6 176.466C121.44 176.145 121.663 175.771 121.895 175.498C124.171 172.82 128.455 172.126 131.46 173.948C131.92 174.227 132.403 174.769 132.132 175.234C131.808 175.792 130.967 175.436 130.408 175.112C128.174 173.82 125.091 174.229 123.271 176.06C123.236 176.095 123.2 176.131 123.165 176.168ZM124.152 176.873C124.023 176.981 123.894 177.102 123.84 177.261C123.688 177.706 124.229 178.122 124.698 178.085C125.037 178.058 125.34 177.893 125.642 177.728C125.757 177.665 125.873 177.602 125.99 177.546C127.027 177.057 128.273 177.174 129.325 177.628C129.357 177.641 129.388 177.655 129.419 177.67C129.487 177.7 129.555 177.732 129.623 177.763C129.938 177.91 130.252 178.056 130.593 178.108C131.042 178.175 131.565 178.026 131.77 177.621C129.986 175.411 126.332 175.052 124.152 176.873ZM96.7543 175.886C96.5833 176.125 96.2202 176.149 95.9538 176.024C95.7065 175.908 95.5211 175.697 95.3404 175.491L95.2989 175.444C94.0489 174.026 92.4288 172.937 90.644 172.315C90.1805 172.154 89.5915 171.832 89.722 171.359C91.0031 170.921 92.4522 171.265 93.6028 171.979C94.7534 172.692 95.6536 173.74 96.4906 174.804C96.7379 175.119 96.9873 175.561 96.7543 175.886ZM111.726 177.212C109.62 175.869 106.745 175.845 104.617 177.154C104.247 177.381 103.867 177.701 103.838 178.134C103.809 178.567 104.398 178.969 104.69 178.648C105.865 177.352 108.013 177.083 109.472 178.049C110.188 178.524 111.217 178.459 111.868 177.898C112.175 177.866 111.987 177.378 111.726 177.212ZM119.098 188.108C121.27 186.039 124.055 184.278 127.048 184.48C127.356 184.501 127.769 184.76 127.583 185.006L120.161 188.218C119.796 188.376 119.256 188.473 119.098 188.108ZM98.5646 185.813C98.6375 185.854 98.7105 185.899 98.7834 185.943C99.0783 186.123 99.3771 186.306 99.7161 186.306C100.139 186.306 100.559 185.797 100.29 185.47C99.4454 184.439 98.1171 183.823 96.7848 183.844C95.4521 183.864 94.1436 184.52 93.3304 185.576C93.4308 185.96 93.9003 186.137 94.2925 186.079C94.5753 186.038 94.834 185.912 95.0924 185.785C95.1928 185.736 95.2929 185.687 95.3946 185.643C96.4009 185.207 97.6104 185.272 98.5646 185.813ZM114.002 186.036C113.706 186.052 113.372 185.827 113.405 185.532C113.418 185.423 113.477 185.326 113.539 185.236C114.226 184.249 115.466 183.745 116.667 183.734C117.869 183.723 119.037 184.149 120.098 184.713C120.394 184.871 120.727 185.121 120.679 185.453C120.188 185.976 119.373 185.695 118.664 185.451C118.585 185.424 118.507 185.397 118.432 185.372C117.25 184.98 115.908 185.103 114.818 185.704C114.78 185.724 114.743 185.745 114.705 185.767C114.482 185.893 114.255 186.022 114.002 186.036ZM111.171 172.601C112.409 173.044 113.561 173.722 114.548 174.59C114.617 174.65 114.685 174.712 114.753 174.773L114.753 174.773H114.753V174.774C115.09 175.077 115.428 175.381 115.838 175.567C116.332 175.79 116.973 175.795 117.359 175.416C116.504 174.76 115.802 173.907 115.323 172.941C115.065 172.422 114.377 172.326 113.797 172.298L111.255 172.174C111.166 172.294 111.134 172.455 111.171 172.601ZM100.813 174.782C100.595 175.059 100.378 175.336 100.121 175.576C99.6833 175.984 99.0799 176.284 98.4956 176.155C99.0893 174.714 100.049 173.426 101.26 172.445C102.124 171.745 103.375 171.899 104.471 172.089C104.53 172.485 104.021 172.683 103.634 172.786C102.738 173.025 101.912 173.526 101.285 174.211C101.119 174.393 100.966 174.587 100.813 174.782ZM90.3769 175.08L92.7337 176.615C93.0663 176.832 93.4907 177.054 93.8357 176.857C94.156 176.675 94.2049 176.206 94.0379 175.878C93.8712 175.549 93.5529 175.33 93.2474 175.124L91.3287 173.832C90.7929 173.471 89.9205 173.184 89.6293 173.76C89.378 174.257 89.9104 174.776 90.3769 175.08ZM108.021 181.67C107.639 181.854 107.218 181.531 106.917 181.233L105.936 180.259C105.821 180.145 105.696 180.005 105.716 179.844C105.729 179.743 105.798 179.658 105.869 179.584C106.79 178.62 108.54 178.646 109.432 179.638L108.41 181.253C108.307 181.416 108.195 181.587 108.021 181.67ZM93.1704 188.929C93.8093 189.154 94.5633 189.22 95.1265 188.845C94.2785 187.869 93.2842 187.02 92.1875 186.336C91.8762 186.142 91.5255 185.955 91.1624 186.006C90.7993 186.058 90.478 186.471 90.6537 186.793C91.1935 187.78 92.1082 188.557 93.1704 188.929ZM129.126 179.994L128.221 181.088C128.135 181.192 128.039 181.302 127.907 181.33C127.708 181.374 127.527 181.216 127.383 181.071L126.068 179.739C125.875 179.543 125.931 179.193 126.123 178.996C126.315 178.799 126.6 178.725 126.873 178.692C127.588 178.606 128.328 178.753 128.956 179.106C129.136 179.208 129.325 179.356 129.334 179.563C129.34 179.726 129.23 179.868 129.126 179.994ZM96.7169 173.207C96.9876 173.498 97.328 173.797 97.7245 173.764C98.1352 173.73 98.4116 173.37 98.6834 173.016C98.9738 172.637 99.2593 172.265 99.6984 172.306C99.9263 171.931 99.3042 171.63 98.8644 171.623L95.4511 171.569C95.8223 172.152 96.2467 172.7 96.7169 173.207ZM110.844 189.168L103.744 189.199C103.821 188.831 104.234 188.655 104.597 188.557C106.216 188.118 107.938 188.066 109.58 188.406C110.082 188.51 110.637 188.7 110.844 189.168ZM118.358 186.708L116.008 186.814C115.756 186.826 115.431 186.899 115.4 187.15C115.386 187.262 115.442 187.37 115.497 187.469C115.704 187.845 115.924 188.236 116.282 188.473C116.64 188.71 117.179 188.733 117.458 188.407C117.554 188.294 117.61 188.154 117.666 188.014C117.734 187.842 117.803 187.672 117.943 187.557C118.036 187.481 118.149 187.439 118.263 187.398C118.35 187.366 118.437 187.334 118.516 187.286C118.697 187.176 118.813 186.892 118.645 186.762C118.566 186.702 118.457 186.704 118.358 186.708ZM97.7664 187.02C98.0923 187.23 98.2901 187.692 98.081 188.018C97.8303 188.409 97.5177 188.84 97.0555 188.886C96.4595 188.945 96.0325 188.344 95.7423 187.82C95.6436 187.642 95.5412 187.445 95.5777 187.244C95.6546 186.823 96.2179 186.744 96.6456 186.765C97.0328 186.784 97.4404 186.81 97.7664 187.02ZM129.016 183.322C129.367 183.351 129.682 183.113 129.929 182.861C130.681 182.092 131.159 181.06 131.26 179.989C131.011 179.83 130.707 180.077 130.516 180.303L128.595 182.574C128.368 182.843 128.664 183.293 129.016 183.322ZM91.392 178.273C90.8886 178.545 90.1999 178.405 89.8428 177.958C89.4857 177.511 89.5011 176.808 89.8773 176.377C89.9295 176.317 89.9917 176.26 90.0697 176.245C90.1825 176.221 90.2916 176.289 90.3866 176.354L91.321 176.991C91.5366 177.138 91.7701 177.312 91.8157 177.568C91.8669 177.857 91.6497 178.133 91.392 178.273ZM117.499 173.241C117.873 173.555 118.427 173.23 118.798 172.913L120.006 171.881C119.778 171.663 119.414 171.712 119.105 171.776L116.416 172.332L117.499 173.241ZM63.122 149.584C62.8472 149.339 62.777 148.94 62.7689 148.573C62.7596 148.158 62.8081 147.742 62.9128 147.341L64.6956 149.662C64.8017 149.8 64.889 150.038 64.7321 150.114C64.5092 149.965 64.2351 149.923 63.9627 149.88C63.6548 149.833 63.3489 149.785 63.122 149.584ZM131.578 168.843C131.804 169.124 132.279 169.063 132.538 168.812C132.797 168.561 132.892 168.19 132.967 167.837C132.984 167.753 133.001 167.661 132.966 167.582C132.875 167.381 132.577 167.441 132.377 167.534C131.84 167.785 131.207 168.381 131.578 168.843ZM111.404 66.2285C111.622 65.6833 112.13 65.3156 112.63 65.0083C114.139 64.081 115.816 63.4264 117.554 63.085C117.97 63.0033 118.465 62.9635 118.754 63.2738C119.079 63.6228 118.916 64.2269 118.556 64.5388C118.235 64.8169 117.812 64.931 117.399 65.0425C117.348 65.0562 117.297 65.0699 117.247 65.0836C115.857 65.4685 114.549 66.1482 113.435 67.0649C113.007 67.4173 112.499 67.8322 111.965 67.6837C111.4 67.5264 111.186 66.7734 111.404 66.2285ZM80.1365 66.3557C79.7332 66.1372 79.4604 65.592 79.7118 65.2078C79.8577 64.9846 80.1301 64.8828 80.3888 64.8169C82.4845 64.2851 84.6541 65.2242 86.55 66.2643C86.9767 66.4983 87.4158 66.7533 87.6849 67.1589C87.9539 67.5648 87.9931 68.1659 87.642 68.5029C87.0547 69.0675 86.1233 68.4869 85.46 68.0136C84.2987 67.1853 82.9032 66.6887 81.4795 66.5973C81.4162 66.5933 81.3523 66.59 81.2881 66.5866V66.5863C80.8895 66.5652 80.4842 66.5438 80.1365 66.3557ZM102.106 96.4027L100.728 92.4711C99.501 93.3566 98.5836 94.6628 98.1673 96.1176C97.7908 95.8114 97.7767 95.2933 97.763 94.7846C97.759 94.6327 97.755 94.4814 97.7413 94.3372C97.66 93.4801 97.1215 92.6796 96.3584 92.2813C95.5951 91.8827 94.6309 91.8981 93.8809 92.3211C94.08 92.7565 94.5486 92.8948 95.0308 93.037C95.3514 93.1314 95.6777 93.2278 95.9351 93.4138C96.4792 93.8071 96.6349 94.5484 96.6432 95.2197C96.6456 95.3877 96.6412 95.557 96.6369 95.7267V95.727C96.6238 96.2341 96.6111 96.7421 96.7694 97.2193C96.8206 97.3736 96.8929 97.5272 97.0177 97.631C97.3715 97.9251 97.9069 97.6808 98.265 97.392C99.0739 96.7397 99.7101 95.875 100.092 94.9088C100.429 95.2451 100.553 95.7177 100.677 96.1865C100.713 96.3241 100.749 96.4616 100.79 96.5948C100.973 97.1828 101.41 97.8117 102.025 97.7829C102.435 97.7642 102.765 97.4556 103.055 97.1654L104.723 95.4995C104.924 95.2987 105.142 95.0433 105.077 94.7666C105.015 94.5012 104.7 94.3589 104.43 94.3971C104.16 94.4352 103.929 94.6052 103.718 94.7776C103.126 95.2609 102.585 95.8067 102.106 96.4027ZM98.2968 80.6319C98.3855 79.9114 98.4347 79.072 97.9053 78.575C96.9173 77.6477 96.0522 76.5901 95.3394 75.4379C95.0285 74.9355 94.7363 74.3485 94.8846 73.7766C95.1085 72.9128 96.1586 72.6002 97.0445 72.4925C98.4618 72.3198 99.8965 72.2907 101.32 72.4051C101.931 72.4543 102.58 72.5464 103.047 72.9429C103.515 73.3395 103.684 74.1441 103.232 74.559C101.018 76.5945 99.7218 79.5928 99.7553 82.6004C100.576 83.1332 101.411 83.6727 102.346 83.9608C103.282 84.2493 104.348 84.2587 105.192 83.7624C105.547 83.5535 105.845 83.2677 106.143 82.9813C106.35 82.7835 106.556 82.5854 106.782 82.412C107.335 81.988 108.127 81.7253 108.719 82.0921L106.465 84.1673C105.566 84.9946 104.451 85.8842 103.262 85.6057C102.868 85.5134 102.523 85.3005 102.176 85.0867C101.969 84.9595 101.762 84.832 101.544 84.7296C100.38 84.1817 99.014 84.3865 97.756 84.6566C97.6804 84.6727 97.6047 84.6891 97.5284 84.7058L97.5257 84.7061C96.3384 84.9635 95.1098 85.2299 93.9445 84.91C92.7035 84.5696 91.6152 83.2798 92.0034 82.0532C92.7845 83.1965 94.145 83.921 95.5295 83.9317C96.0612 83.9357 96.6094 83.834 97.0499 83.5361C97.9514 82.9267 98.1633 81.7122 98.2968 80.6319Z" fill="#00160A"/>
</svg>
