<svg width="250" height="250" viewBox="0 0 250 250" fill="none" xmlns="http://www.w3.org/2000/svg">
<path fill-rule="evenodd" clip-rule="evenodd" d="M194.994 129.615C195.431 183.423 171.894 222.731 126.896 224.962C94.099 226.589 113.718 175.131 72.614 140.965C46.3033 119.096 28.9375 62.274 93.7833 47.582C158.629 32.8902 194.557 75.8067 194.994 129.615Z" fill="#9E3C0E"/>
<path d="M62.207 207.748C58.125 200.222 58.7917 191.116 59.6343 182.597C61.573 163 64.5573 141.898 78.284 127.778C81.9143 124.043 86.3457 120.877 91.4313 119.752C95.372 118.881 99.1687 117.361 102.622 115.271C103.454 110.397 98.8677 106.559 95.6637 102.793C92.0757 98.5757 89.837 93.227 89.3517 87.7113C89.0647 84.446 88.379 79.9973 85.1043 79.8583C82.4123 79.7437 80.386 76.4957 81.4663 74.0277C82.547 71.5597 86.3083 70.8457 88.2183 72.746C85.4937 62.532 91.2493 50.7473 100.98 46.6163C99.393 44.3473 102.856 41.628 105.605 41.953C108.355 42.278 111.016 43.939 113.716 43.3253C112.791 41.696 114.273 39.5317 116.1 39.1143C117.926 38.697 119.801 39.49 121.439 40.399C131.955 46.2333 138.905 57.9997 138.938 70.0263C139.21 67.831 142.505 67.0793 144.116 68.595C145.727 70.1103 145.65 72.823 144.506 74.7163C143.362 76.6093 141.412 77.8523 139.482 78.9327C139.531 86.908 136.498 94.8633 131.152 100.782C127.262 105.089 121.75 109.657 123.027 115.318C125.096 114.86 127.189 117.248 126.465 119.24C135.338 118.5 143.618 123.856 149.904 130.161C159.119 139.404 165.742 151.205 168.832 163.885C169.372 166.1 172.523 166.704 174.473 165.522C176.423 164.341 177.425 162.106 178.313 160.006L195.864 118.53C194.733 112.942 195.648 107.167 196.565 101.54L199.608 82.8657C199.884 81.1707 201.07 78.934 202.635 79.6407C203.176 79.8847 203.478 80.4127 203.668 80.9943C203.757 81.264 203.821 81.545 203.875 81.815C204.824 86.6033 205.127 91.5193 204.774 96.388L210.85 85.9947C211.833 84.313 213.87 82.4523 215.391 83.1483C215.963 83.2603 216.35 83.8307 216.432 84.4123C216.649 85.203 216.465 86.154 216.218 86.9743C215.109 90.648 213.303 94.11 210.923 97.1203C214.131 98.2147 217.848 99.8763 218.41 103.22C218.076 109.281 213.609 116.24 210.315 119.852C211.071 119.396 211.565 120.753 211.415 121.623C207.802 142.526 198.998 162.511 186.013 179.286C182.182 184.236 177.732 188.067 170.751 188.758C161.238 189.699 155 175.667 149.834 176.042C149.834 176.042 145 201 141.5 204.333C138 207.667 115 214.667 108.069 212.333C101.138 210 94.2057 216.24 85.1043 215.614C75.6717 214.966 62.207 207.748 62.207 207.748Z" fill="white"/>
<path d="M206.755 124.37C206.673 124.26 206.616 124.13 206.592 123.994C206.502 123.483 206.96 122.948 207.479 122.958C207.998 122.969 208.434 123.522 208.323 124.029C208.212 124.537 207.584 124.857 207.108 124.649C206.969 124.588 206.846 124.491 206.755 124.37Z" fill="#00160A"/>
<path d="M121.975 70.9993C121.622 70.9197 121.45 70.477 121.548 70.1283C121.645 69.78 121.932 69.5187 122.228 69.3103C124.243 67.89 127.308 68.2577 128.93 70.114C129.059 70.2617 129.186 70.4353 129.18 70.6317C129.173 70.828 128.959 71.018 128.785 70.9273C127.871 70.451 126.941 69.9687 125.927 69.7847C124.914 69.601 123.787 69.7583 123.015 70.4407C122.708 70.713 122.376 71.0897 121.975 70.9993Z" fill="#00160A"/>
<path d="M104.678 70.9307C104.568 71.271 104.124 71.3953 103.78 71.2993C103.435 71.203 103.158 70.9543 102.866 70.7477C101.905 70.068 100.687 69.8083 99.513 69.8847C98.339 69.9607 97.2033 70.354 96.1517 70.8813C95.9107 71.0023 95.6237 70.7217 95.6387 70.4527C95.6533 70.1833 95.8557 69.9647 96.06 69.7887C97.154 68.8467 98.641 68.4163 100.083 68.4907C101.525 68.565 102.919 69.1187 104.106 69.9397C104.444 70.173 104.805 70.5403 104.678 70.9307Z" fill="black"/>
<path d="M207.251 128.17C207.128 128.334 206.953 128.449 206.776 128.549C206.591 128.654 206.388 128.749 206.177 128.733C205.897 128.711 205.662 128.49 205.547 128.234C205.262 127.602 205.746 126.738 206.438 126.713C207.131 126.689 207.666 127.615 207.251 128.17Z" fill="#00160A"/>
<path d="M145.593 154.525C145.93 154.679 145.69 155.223 145.347 155.362C145.004 155.501 144.571 155.505 144.348 155.8C144.188 156.01 144.195 156.298 144.211 156.561C144.243 157.098 144.277 157.669 144.021 158.142C143.765 158.616 143.097 158.908 142.67 158.58C142.278 158.279 142.313 157.695 142.3 157.201C142.286 156.706 142.038 156.088 141.544 156.11C139.127 156.221 136.709 156.331 134.292 156.442C133.985 156.456 133.637 156.454 133.428 156.229C133.142 155.921 133.336 155.378 133.697 155.163C134.058 154.948 134.507 154.966 134.926 154.99C136.702 155.093 138.479 155.196 140.255 155.298C140.531 155.314 140.82 155.328 141.07 155.209C141.319 155.091 141.507 154.793 141.406 154.536C141.135 153.847 141.495 152.974 142.174 152.678C142.409 152.575 142.516 152.303 142.575 152.053C142.633 151.802 142.675 151.53 142.853 151.344C143.032 151.159 143.406 151.147 143.5 151.387C143.716 151.939 144.245 152.296 144.616 152.759C144.988 153.221 145.16 153.99 144.69 154.351C144.716 154.69 145.284 154.383 145.593 154.525Z" fill="#00160A"/>
<path d="M98.317 92.1317C97.9797 92.111 97.8397 91.5703 98.1243 91.3887C98.4827 91.3633 98.6403 91.9767 98.314 92.1273L98.317 92.1317Z" fill="#FFB61D"/>
<path d="M125.281 83.6693C125.184 83.4947 125.285 83.243 125.476 83.184C125.667 83.125 125.893 83.2757 125.911 83.4743C125.858 83.733 125.481 83.8503 125.291 83.6673L125.281 83.6693Z" fill="#FFB61D"/>
<path d="M124.15 80.3383C124.007 80.6203 123.492 80.5417 123.44 80.23C123.544 80.088 123.694 79.98 123.861 79.9257C124.003 80.03 124.113 80.1783 124.17 80.3447L124.15 80.3383Z" fill="#FFB61D"/>
<path d="M117.25 92.9033C117.461 92.8893 117.674 93.016 117.763 93.2083C117.692 93.4257 117.422 93.5763 117.22 93.4697C117.017 93.363 117.037 92.9893 117.261 92.946L117.25 92.9033Z" fill="#FFB61D"/>
<path d="M123.581 93.2183C123.685 92.9583 124.169 93.0577 124.163 93.3373C124.017 93.4823 123.827 93.5827 123.625 93.6223C123.463 93.5667 123.422 93.3103 123.56 93.2073L123.581 93.2183Z" fill="#FFB61D"/>
<path d="M112.682 81.4873C112.469 81.4883 112.312 81.7627 112.42 81.947C112.527 82.1313 112.843 82.13 112.949 81.9447C113.055 81.7593 112.896 81.4863 112.682 81.4873Z" fill="#FFB61D"/>
<path d="M99.8143 84.7393C99.6423 84.6103 99.35 84.7357 99.3243 84.949C99.2987 85.1623 99.5537 85.353 99.751 85.2683C99.9487 85.184 99.9863 84.868 99.8143 84.7393Z" fill="#FFB61D"/>
<path d="M128.572 85.2517C128.367 85.319 128.134 85.089 128.195 84.8817C128.257 84.6743 128.573 84.607 128.717 84.7687C128.86 84.9307 128.76 85.233 128.549 85.2803L128.572 85.2517Z" fill="#FFB61D"/>
<path d="M111.457 91.5983C111.377 91.3987 111.062 91.3527 110.929 91.5213C110.795 91.69 110.913 91.986 111.126 92.017C111.339 92.048 111.536 91.7983 111.457 91.5983Z" fill="#FFB61D"/>
<path d="M111.12 96.8773C110.971 96.921 110.855 96.739 110.83 96.5853C110.977 96.306 111.488 96.384 111.545 96.6947C111.455 96.8307 111.281 96.906 111.12 96.8783L111.12 96.8773Z" fill="#FFB61D"/>
<path d="M113.161 96.6273C112.929 96.6843 112.603 96.571 112.626 96.3337C112.764 96.191 112.98 96.0883 113.16 96.1723C113.34 96.2563 113.35 96.5873 113.154 96.62L113.161 96.6273Z" fill="#FFB61D"/>
<path d="M123.625 96.5183C123.529 96.448 123.463 96.3377 123.447 96.22C123.547 96.0763 123.696 95.9673 123.864 95.9163C123.963 96.016 124.062 96.1157 124.16 96.2157C124.051 96.4033 123.841 96.5277 123.624 96.5327L123.625 96.5183Z" fill="#FFB61D"/>
<path d="M114.483 82.0863C114.314 82.3163 113.873 82.2043 113.834 81.9213C113.978 81.6153 114.551 81.7517 114.542 82.09L114.483 82.0863Z" fill="#FFB61D"/>
<path d="M119.177 93.388C118.986 93.5723 118.598 93.3797 118.629 93.1157C118.661 92.8517 119.083 92.755 119.226 92.9793C119.12 93.0567 119.078 93.209 119.127 93.3303L119.177 93.388Z" fill="#FFB61D"/>
<path d="M107.493 81.5743C107.699 81.507 107.932 81.737 107.87 81.9443C107.809 82.1517 107.493 82.2193 107.349 82.0573C107.205 81.8953 107.306 81.593 107.517 81.5457L107.493 81.5743Z" fill="#FFB61D"/>
<path d="M112.51 88.2903C112.712 88.122 113.079 88.2687 113.109 88.5293C112.971 88.655 112.782 88.7583 112.604 88.7043C112.425 88.6507 112.34 88.3673 112.503 88.2757L112.51 88.2903Z" fill="#FFB61D"/>
<path d="M117.087 89.9753C117.225 89.6943 117.738 89.7683 117.791 90.077C117.637 90.358 117.125 90.2827 117.059 89.9693L117.087 89.9753Z" fill="#FFB61D"/>
<path d="M117.37 91.5883C117.511 91.3797 117.915 91.515 117.902 91.7667C117.81 91.9123 117.662 92.0217 117.496 92.067C117.33 91.978 117.263 91.744 117.356 91.5807L117.37 91.5883Z" fill="#FFB61D"/>
<path d="M124.045 81.7893C123.914 81.6173 123.595 81.659 123.512 81.8593C123.429 82.0593 123.624 82.3143 123.839 82.286C124.054 82.2577 124.177 81.9613 124.045 81.7893Z" fill="#FFB61D"/>
<path d="M120.624 97.7303C120.665 97.543 120.995 97.6337 121.015 97.8247C121.036 98.0153 120.881 98.175 120.739 98.3043C120.632 98.2353 120.518 98.1583 120.472 98.039C120.427 97.9197 120.495 97.7517 120.622 97.7483L120.624 97.7303Z" fill="#FFB61D"/>
<path d="M104.723 80.176C104.644 79.9763 104.329 79.9303 104.195 80.099C104.062 80.2677 104.18 80.5637 104.393 80.5947C104.605 80.6257 104.803 80.3757 104.723 80.176Z" fill="#FFB61D"/>
<path d="M112.907 97.731C112.799 97.558 112.496 97.5693 112.401 97.75C112.305 97.931 112.467 98.187 112.671 98.1793C112.875 98.1717 113.016 97.9037 112.907 97.731Z" fill="#FFB61D"/>
<path d="M99.5107 91.2933C99.6257 91.1637 99.8607 91.3213 99.8554 91.495C99.8504 91.6683 99.7107 91.8037 99.581 91.919C99.3017 91.8743 99.2544 91.396 99.5194 91.2977L99.5107 91.2933Z" fill="#FFB61D"/>
<path d="M114.488 94.9583C114.37 95.0317 114.252 95.1047 114.134 95.178C113.917 95.0987 113.892 94.7393 114.095 94.6303C114.298 94.5213 114.583 94.7403 114.53 94.9647L114.488 94.9583Z" fill="#FFB61D"/>
<path d="M128.275 91.4633C128.209 91.2587 128.608 91.1927 128.687 91.3927C128.766 91.5927 128.607 91.809 128.429 91.9303C128.254 91.8527 128.141 91.655 128.162 91.4647L128.275 91.4633Z" fill="#FFB61D"/>
<path d="M123.445 91.65C123.575 91.463 123.859 91.4053 124.051 91.5267C124.102 91.807 123.747 92.0643 123.496 91.9297C123.471 91.8377 123.447 91.7457 123.422 91.6537L123.445 91.65Z" fill="#FFB61D"/>
<path d="M104.367 89.7507C104.573 89.683 104.806 89.913 104.744 90.1203C104.682 90.3277 104.366 90.3953 104.223 90.2333C104.079 90.0717 104.18 89.769 104.391 89.7217L104.367 89.7507Z" fill="#FFB61D"/>
<path d="M126.68 78.7843C126.682 78.604 126.87 78.45 127.047 78.4833C127.225 78.5167 127.344 78.7283 127.281 78.897C127.094 79.0383 126.795 78.9947 126.657 78.806L126.68 78.7843Z" fill="#FFB61D"/>
<path d="M122.12 88.2817C122.293 88.1427 122.603 88.3003 122.592 88.522C122.44 88.759 122.034 88.759 121.881 88.5223C121.961 88.4427 122.041 88.3627 122.121 88.2827L122.12 88.2817Z" fill="#FFB61D"/>
<path d="M102.456 93.0277C102.631 92.8427 102.978 92.8743 103.117 93.0877C103.011 93.233 102.873 93.382 102.694 93.3903C102.515 93.399 102.345 93.166 102.469 93.0363L102.456 93.0277Z" fill="#FFB61D"/>
<path d="M128.613 94.8947C128.542 94.99 128.433 95.0557 128.315 95.0737C128.101 94.9517 128.102 94.5707 128.331 94.4823C128.561 94.3937 128.81 94.7507 128.625 94.914L128.613 94.8947Z" fill="#FFB61D"/>
<path d="M99.722 94.992C99.89 94.875 99.8647 94.573 99.6793 94.486C99.4943 94.399 99.2453 94.572 99.2627 94.776C99.2797 94.9797 99.554 95.1087 99.722 94.992Z" fill="#FFB61D"/>
<path d="M128.519 88.7813C128.351 88.9527 128.068 88.5963 128.231 88.4197C128.393 88.243 128.708 88.3333 128.853 88.5247C128.753 88.6243 128.653 88.724 128.553 88.8237L128.519 88.7813Z" fill="#FFB61D"/>
<path d="M97.8543 80.584C97.8083 80.2927 98.2803 80.102 98.4493 80.344C98.3087 80.5287 98.1683 80.7133 98.0277 80.898C97.9253 80.8267 97.8543 80.712 97.8357 80.5887L97.8543 80.584Z" fill="#FFB61D"/>
<path d="M99.6627 88.7813C99.4947 88.9527 99.2113 88.5963 99.374 88.4197C99.5363 88.243 99.8513 88.3333 99.9963 88.5247C99.8967 88.6243 99.7967 88.724 99.6967 88.8237L99.6627 88.7813Z" fill="#FFB61D"/>
<path d="M125.273 80.4477C125.129 80.311 125.157 80.0393 125.326 79.9347C125.494 79.8297 125.75 79.9247 125.809 80.114C125.726 80.305 125.513 80.431 125.306 80.4133L125.273 80.4477Z" fill="#FFB61D"/>
<path d="M104.094 81.9177C104.227 81.6807 104.624 81.667 104.773 81.8943C104.726 82.2267 104.131 82.2447 104.064 81.9157L104.094 81.9177Z" fill="#FFB61D"/>
<path d="M116.203 83.2907C116.207 83.4603 116.148 83.6303 116.041 83.7613C115.854 83.8663 115.604 83.6313 115.669 83.4273C115.733 83.223 116.022 83.15 116.2 83.2697L116.203 83.2907Z" fill="#FFB61D"/>
<path d="M111.3 94.734C111.239 94.5413 110.948 94.4757 110.811 94.6243C110.674 94.7727 110.763 95.0583 110.96 95.1023C111.157 95.1467 111.36 94.9267 111.3 94.734Z" fill="#FFB61D"/>
<path d="M117.585 96.323C117.672 96.551 117.5 96.838 117.258 96.8687C117.098 96.801 117.023 96.5837 117.108 96.4317C117.192 96.28 117.416 96.2287 117.558 96.3287L117.585 96.323Z" fill="#FFB61D"/>
<path d="M107.319 98.021C107.319 97.802 107.448 97.5883 107.642 97.4863C107.782 97.6267 107.883 97.843 107.797 98.022C107.711 98.201 107.38 98.2063 107.351 98.01L107.319 98.021Z" fill="#FFB61D"/>
<path d="M125.341 96.2007C125.509 96.029 125.793 96.3853 125.63 96.5623C125.467 96.739 125.153 96.6483 125.008 96.4573C125.107 96.3577 125.207 96.258 125.307 96.158L125.341 96.2007Z" fill="#FFB61D"/>
<path d="M111.033 81.772C111.201 81.6007 111.485 81.957 111.322 82.1337C111.159 82.3103 110.845 82.22 110.699 82.029C110.799 81.929 110.899 81.8293 110.999 81.7297L111.033 81.772Z" fill="#FFB61D"/>
<path d="M101.144 91.8297C101.021 91.6967 101.189 91.4627 101.369 91.4687C101.55 91.4743 101.692 91.6237 101.792 91.774C101.649 91.9823 101.31 92.014 101.131 91.8353L101.144 91.8297Z" fill="#FFB61D"/>
<path d="M104.623 86.2867C104.794 86.273 104.863 86.5413 104.745 86.6667C104.628 86.7917 104.433 86.7977 104.262 86.7777C104.107 86.566 104.378 86.2167 104.622 86.3143L104.623 86.2867Z" fill="#FFB61D"/>
<path d="M113.042 101.327C112.864 101.554 112.423 101.437 112.381 101.151C112.533 100.881 113.044 101.017 113.041 101.328L113.042 101.327Z" fill="#FFB61D"/>
<path d="M104.187 91.921C104.092 91.7347 104.217 91.4687 104.424 91.4377C104.631 91.4067 104.832 91.644 104.754 91.8387C104.677 92.033 104.35 92.0557 104.257 91.8683L104.187 91.921Z" fill="#FFB61D"/>
<path d="M111 98.1997C110.85 98.248 110.742 98.0563 110.702 97.9037C110.856 97.6673 111.261 97.6647 111.417 97.8997C111.315 98.042 111.167 98.1513 111.001 98.2073L111 98.1997Z" fill="#FFB61D"/>
<path d="M112.358 85.155C112.416 84.8457 112.917 84.7573 113.077 85.0287C113.002 85.318 112.548 85.406 112.37 85.1653L112.358 85.155Z" fill="#FFB61D"/>
<path d="M128.614 90.0447C128.553 89.852 128.262 89.7863 128.125 89.935C127.988 90.0833 128.077 90.369 128.274 90.4133C128.471 90.4573 128.674 90.2377 128.614 90.0447Z" fill="#FFB61D"/>
<path d="M114.667 91.8907C114.494 92.0297 114.184 91.872 114.195 91.6503C114.347 91.4133 114.753 91.4133 114.906 91.65C114.826 91.7297 114.746 91.8097 114.666 91.8897L114.667 91.8907Z" fill="#FFB61D"/>
<path d="M111.238 100.85C111.389 100.802 111.497 100.993 111.537 101.146C111.383 101.382 110.978 101.385 110.821 101.15C110.924 101.007 111.071 100.898 111.238 100.842L111.238 100.85Z" fill="#FFB61D"/>
<path d="M130.417 78.5433C130.496 78.6223 130.575 78.701 130.653 78.7797C130.514 78.9933 130.153 79.0677 130.012 78.855C129.871 78.642 130.267 78.34 130.383 78.5673L130.417 78.5433Z" fill="#FFB61D"/>
<path d="M123.633 83.7633C123.788 83.8993 124.077 83.8013 124.117 83.5993C124.158 83.397 123.928 83.1957 123.733 83.2617C123.538 83.328 123.478 83.6273 123.633 83.7633Z" fill="#FFB61D"/>
<path d="M114.013 96.5257C114.075 96.3813 114.302 96.3487 114.403 96.469C114.516 96.651 114.413 96.9443 114.2 96.9687C113.988 96.993 113.842 96.6483 114.029 96.5433L114.013 96.5257Z" fill="#FFB61D"/>
<path d="M104.385 93.0343C104.535 92.9863 104.643 93.178 104.683 93.3307C104.583 93.474 104.434 93.5827 104.267 93.6357C104.172 93.5617 104.106 93.4513 104.086 93.3327C104.186 93.2323 104.286 93.132 104.386 93.032L104.385 93.0343Z" fill="#FFB61D"/>
<path d="M125.831 88.575C125.873 88.8553 125.463 89.0707 125.256 88.877C125.168 88.5963 125.631 88.3363 125.788 88.5853L125.831 88.575Z" fill="#FFB61D"/>
<path d="M109.553 88.3477C109.691 88.4317 109.767 88.6053 109.735 88.7633C109.564 88.8297 109.376 88.851 109.195 88.824C109.139 88.736 109.117 88.6263 109.136 88.5233C109.276 88.463 109.416 88.403 109.556 88.3427L109.553 88.3477Z" fill="#FFB61D"/>
<path d="M117.5 94.7107C117.562 94.839 117.577 94.99 117.541 95.128C117.378 95.27 117.071 95.1383 117.062 94.922C117.052 94.706 117.346 94.548 117.521 94.675L117.5 94.7107Z" fill="#FFB61D"/>
<path d="M127.402 91.8777C127.212 92.051 126.846 91.913 126.817 91.6573C126.88 91.5097 127.069 91.4303 127.219 91.4887C127.369 91.547 127.454 91.7337 127.401 91.8853L127.402 91.8777Z" fill="#FFB61D"/>
<path d="M111.298 80.345C111.408 80.4187 111.457 80.5717 111.41 80.6957C111.245 80.8523 110.913 80.7997 110.856 80.579C110.799 80.3587 111.165 80.1713 111.276 80.3703L111.298 80.345Z" fill="#FFB61D"/>
<path d="M99.7717 90.144C99.7823 89.9417 99.5307 89.7787 99.3503 89.8707C99.17 89.9627 99.1547 90.2623 99.3243 90.3723C99.4943 90.4827 99.7613 90.346 99.7717 90.144Z" fill="#FFB61D"/>
<path d="M115.803 88.9847C115.604 88.9213 115.589 88.5917 115.773 88.4927C115.957 88.394 116.213 88.5537 116.227 88.762C116.141 88.8983 115.967 88.9727 115.809 88.9417L115.803 88.9847Z" fill="#FFB61D"/>
<path d="M99.447 81.7677C99.3137 81.5883 99.729 81.435 99.823 81.6374C99.9173 81.84 99.75 82.0687 99.5683 82.1983C99.4363 82.1137 99.366 81.9427 99.4 81.7897L99.447 81.7677Z" fill="#FFB61D"/>
<path d="M112.862 94.895C112.79 94.9907 112.68 95.0563 112.562 95.0743C112.467 95.0047 112.402 94.895 112.386 94.7777C112.482 94.634 112.63 94.5267 112.797 94.4813C112.961 94.5373 113.005 94.7933 112.869 94.9007L112.862 94.895Z" fill="#FFB61D"/>
<path d="M127.051 95.016C126.91 95.076 126.77 95.136 126.63 95.1963C126.534 95.1203 126.467 95.009 126.445 94.8893C126.569 94.787 126.713 94.6827 126.873 94.6953C127.033 94.7083 127.171 94.913 127.065 95.034L127.051 95.016Z" fill="#FFB61D"/>
<path d="M115.836 96.1067C115.972 96.1777 116.109 96.2487 116.246 96.32C116.097 96.4777 115.9 96.5887 115.688 96.6347C115.592 96.565 115.526 96.4557 115.51 96.3383C115.581 96.2427 115.691 96.177 115.809 96.1607L115.836 96.1067Z" fill="#FFB61D"/>
<path d="M99.755 96.216C99.865 96.29 99.914 96.4427 99.8677 96.567C99.702 96.7233 99.37 96.6707 99.313 96.45C99.256 96.2297 99.6223 96.0427 99.7337 96.2413L99.755 96.216Z" fill="#FFB61D"/>
<path d="M110.958 90.3237C111.006 90.6107 111.554 90.5187 111.506 90.2317C111.458 89.9447 110.91 90.0367 110.958 90.3237Z" fill="#FFB61D"/>
<path d="M117.186 83.0657C117.445 83.038 117.662 83.3677 117.535 83.5943C117.409 83.691 117.205 83.6597 117.114 83.5297C117.023 83.3997 117.064 83.197 117.197 83.112L117.186 83.0657Z" fill="#FFB61D"/>
<path d="M98.049 90.0667C98.19 89.926 98.4593 90.139 98.3967 90.3283C98.3337 90.5173 98.0723 90.5777 97.8943 90.488C97.7747 90.351 97.847 90.099 98.021 90.046L98.049 90.0667Z" fill="#FFB61D"/>
<path d="M110.997 86.657C111.142 86.4497 111.545 86.5887 111.532 86.8417C111.415 87.002 111.19 87.0733 111.002 87.01C110.914 86.914 110.911 86.752 110.994 86.6523L110.997 86.657Z" fill="#FFB61D"/>
<path d="M125.425 81.611C125.523 81.6753 125.588 81.788 125.594 81.905C125.491 82.163 125.012 82.0697 125.013 81.792C125.095 81.654 125.27 81.5783 125.427 81.6133L125.425 81.611Z" fill="#FFB61D"/>
<path d="M103.022 97.9907C103.117 98.177 102.992 98.4427 102.785 98.4737C102.578 98.5047 102.377 98.2673 102.455 98.073C102.532 97.8783 102.859 97.8557 102.952 98.043L103.022 97.9907Z" fill="#FFB61D"/>
<path d="M107.392 94.7213C107.592 94.6997 107.848 94.709 107.924 94.895C107.834 95.0383 107.686 95.1447 107.521 95.1843C107.427 95.1323 107.325 95.0737 107.282 94.9747C107.238 94.8757 107.292 94.73 107.4 94.7267L107.392 94.7213Z" fill="#FFB61D"/>
<path d="M128.554 82.0907C128.745 82.024 128.802 81.7283 128.648 81.5953C128.495 81.4623 128.21 81.5613 128.172 81.7607C128.134 81.9603 128.362 82.1573 128.554 82.0907Z" fill="#FFB61D"/>
<path d="M120.795 83.354C121.009 83.4843 120.874 83.8947 120.624 83.872C120.482 83.8237 120.396 83.6507 120.444 83.508C120.491 83.3653 120.664 83.2787 120.807 83.3257L120.795 83.354Z" fill="#FFB61D"/>
<path d="M114.511 97.7883C114.456 97.51 113.924 97.6157 113.98 97.894C114.035 98.172 114.566 98.0663 114.511 97.7883Z" fill="#FFB61D"/>
<path d="M100.874 82.0233C100.929 82.3017 101.461 82.196 101.405 81.9177C101.35 81.6393 100.819 81.745 100.874 82.0233Z" fill="#FFB61D"/>
<path d="M127.23 96.6357C127.1 96.8497 126.689 96.7147 126.712 96.465C126.76 96.3227 126.933 96.237 127.076 96.2843C127.218 96.332 127.305 96.5047 127.258 96.6477L127.23 96.6357Z" fill="#FFB61D"/>
<path d="M99.6283 79.9647C99.836 79.886 100.078 80.1407 99.9887 80.3437C99.8053 80.442 99.5733 80.4423 99.3897 80.345C99.4137 80.198 99.51 80.0647 99.642 79.9957L99.6283 79.9647Z" fill="#FFB61D"/>
<path d="M111.121 83.772C111.023 83.7077 110.959 83.5953 110.953 83.4783C111.055 83.2203 111.535 83.3137 111.533 83.5913C111.451 83.7293 111.276 83.8047 111.12 83.77L111.121 83.772Z" fill="#FFB61D"/>
<path d="M120.443 93.5723C120.351 93.4047 120.508 93.163 120.699 93.1773C120.891 93.192 121.011 93.4503 120.901 93.6073C120.791 93.7643 120.51 93.742 120.424 93.5707L120.443 93.5723Z" fill="#FFB61D"/>
<path d="M115.51 85.1587C115.574 85.0607 115.686 84.996 115.803 84.99C116.061 85.0923 115.968 85.5723 115.69 85.5703C115.552 85.4883 115.477 85.3137 115.512 85.157L115.51 85.1587Z" fill="#FFB61D"/>
<path d="M128.819 80.0427C128.833 80.1437 128.847 80.2447 128.86 80.3457C128.674 80.4403 128.443 80.441 128.257 80.3477C128.25 80.0827 128.585 79.8783 128.817 80.005L128.819 80.0427Z" fill="#FFB61D"/>
<path d="M109.735 99.4657C109.608 99.2127 109.125 99.4533 109.251 99.7067C109.377 99.9597 109.861 99.7187 109.735 99.4657Z" fill="#FFB61D"/>
<path d="M120.925 86.5923C120.725 86.3933 120.346 86.7757 120.546 86.9743C120.746 87.1733 121.126 86.791 120.925 86.5923Z" fill="#FFB61D"/>
<path d="M115.987 80.1073C115.861 79.8543 115.377 80.0953 115.504 80.3483C115.63 80.6013 116.113 80.3607 115.987 80.1073Z" fill="#FFB61D"/>
<path d="M127.065 93.446C126.943 93.183 126.44 93.4163 126.562 93.6797C126.684 93.943 127.187 93.7094 127.065 93.446Z" fill="#FFB61D"/>
<path d="M99.2223 93.3893C99.346 93.6407 99.8257 93.404 99.7017 93.153C99.578 92.902 99.0983 93.1383 99.2223 93.3893Z" fill="#FFB61D"/>
<path d="M119.113 98.14C119.049 98.238 118.937 98.3023 118.82 98.3087C118.561 98.206 118.655 97.7263 118.933 97.728C119.07 97.81 119.146 97.985 119.111 98.1417L119.113 98.14Z" fill="#FFB61D"/>
<path d="M109.79 90.0294C109.666 89.778 109.187 90.0147 109.311 90.2657C109.434 90.5167 109.914 90.2804 109.79 90.0294Z" fill="#FFB61D"/>
<path d="M125.421 84.978C125.574 85.1367 125.412 85.457 125.194 85.429C125.036 85.3833 124.948 85.1767 125.026 85.031C125.103 84.8853 125.323 84.8423 125.45 84.9477L125.421 84.978Z" fill="#FFB61D"/>
<path d="M114.065 101.388C113.985 101.309 113.906 101.229 113.826 101.149C113.974 100.911 114.379 100.907 114.533 101.141C114.456 101.32 114.256 101.439 114.062 101.421L114.065 101.388Z" fill="#FFB61D"/>
<path d="M128.914 83.6537C128.834 83.7333 128.755 83.813 128.675 83.8927C128.437 83.7443 128.432 83.3397 128.667 83.1857C128.846 83.2623 128.965 83.462 128.946 83.6563L128.914 83.6537Z" fill="#FFB61D"/>
<path d="M105.891 83.355C105.955 83.257 106.067 83.1927 106.184 83.1863C106.443 83.289 106.349 83.7687 106.071 83.767C105.933 83.685 105.858 83.51 105.893 83.3533L105.891 83.355Z" fill="#FFB61D"/>
<path d="M100.04 83.7763C99.8907 83.8567 99.6797 83.7797 99.6173 83.6223C99.555 83.4647 99.6567 83.264 99.8203 83.221C100.039 83.257 100.159 83.56 100.024 83.736L100.04 83.7763Z" fill="#FFB61D"/>
<path d="M119.132 85.2767C119.13 84.9967 118.596 84.999 118.597 85.279C118.598 85.559 119.133 85.5567 119.132 85.2767Z" fill="#FFB61D"/>
<path d="M116.107 94.8967C115.981 94.6437 115.498 94.8847 115.624 95.1377C115.75 95.3907 116.233 95.1497 116.107 94.8967Z" fill="#FFB61D"/>
<path d="M129.731 82.0233C129.786 82.3017 130.317 82.196 130.262 81.9177C130.207 81.6393 129.675 81.745 129.731 82.0233Z" fill="#FFB61D"/>
<path d="M113.878 90.021C114.055 89.836 114.404 89.8697 114.542 90.0847C114.443 90.2277 114.295 90.3357 114.128 90.3863C114.003 90.304 113.908 90.176 113.865 90.032L113.878 90.021Z" fill="#FFB61D"/>
<path d="M125.043 89.9887C125.239 89.8717 125.533 89.9957 125.585 90.2177C125.472 90.3733 125.251 90.4407 125.07 90.3757C124.982 90.2803 124.978 90.119 125.061 90.02L125.043 89.9887Z" fill="#FFB61D"/>
<path d="M114.088 88.3953C114.018 88.2663 114.178 88.107 114.323 88.127C114.469 88.1473 114.575 88.2753 114.646 88.404C114.536 88.6307 114.153 88.6387 114.034 88.4174L114.088 88.3953Z" fill="#FFB61D"/>
<path d="M129.997 91.5923C130.128 91.3783 130.538 91.5137 130.515 91.763C130.467 91.9053 130.294 91.9913 130.151 91.9437C130.009 91.896 129.922 91.7233 129.969 91.5807L129.997 91.5923Z" fill="#FFB61D"/>
<path d="M112.563 89.9117C112.731 89.819 112.972 89.9763 112.958 90.1677C112.943 90.359 112.685 90.479 112.528 90.369C112.371 90.2587 112.393 89.978 112.564 89.8917L112.563 89.9117Z" fill="#FFB61D"/>
<path d="M113.948 93.214C114.049 93.1277 114.212 93.1254 114.315 93.209C114.324 93.4247 114.196 93.6403 114.003 93.7357C113.81 93.6457 113.774 93.337 113.942 93.2057L113.948 93.214Z" fill="#FFB61D"/>
<path d="M128.126 93.4597C128.326 93.6587 128.705 93.2763 128.505 93.0777C128.305 92.879 127.926 93.261 128.126 93.4597Z" fill="#FFB61D"/>
<path d="M109.608 83.8417C109.379 83.6513 109.646 83.1957 109.924 83.3023C110.049 83.5163 109.863 83.8353 109.615 83.8317L109.608 83.8417Z" fill="#FFB61D"/>
<path d="M109.67 81.853C109.546 81.602 109.067 81.8387 109.19 82.0897C109.314 82.3407 109.794 82.1043 109.67 81.853Z" fill="#FFB61D"/>
<path d="M97.774 82.21C97.6783 82.1397 97.6127 82.0297 97.5963 81.9123C97.6947 81.77 97.8413 81.6623 98.0063 81.611C98.1733 81.8123 98.034 82.1767 97.775 82.215L97.774 82.21Z" fill="#FFB61D"/>
<path d="M125.194 95.2283C125.005 95.228 124.861 94.9907 124.95 94.824C125.04 94.6573 125.321 94.6493 125.418 94.8117C125.515 94.9743 125.369 95.2193 125.18 95.2093L125.194 95.2283Z" fill="#FFB61D"/>
<path d="M128.439 78.585C128.608 78.6403 128.757 78.756 128.852 78.906C128.717 79.1027 128.412 79.1547 128.22 79.0137C128.275 78.871 128.33 78.728 128.385 78.5853L128.439 78.585Z" fill="#FFB61D"/>
<path d="M112.562 93.213C112.565 93.047 112.743 92.9077 112.905 92.9443C113.067 92.981 113.167 93.183 113.098 93.3343C112.911 93.4617 112.622 93.4003 112.503 93.2073L112.562 93.213Z" fill="#FFB61D"/>
<path d="M115.478 86.8553C115.39 86.6873 115.529 86.4493 115.718 86.4437C115.908 86.438 116.061 86.6673 115.983 86.8403C115.843 86.934 115.646 86.9347 115.505 86.8417L115.478 86.8553Z" fill="#FFB61D"/>
<path d="M102.974 80.293C102.916 80.5187 102.589 80.618 102.415 80.463C102.349 80.324 102.42 80.1337 102.565 80.081C102.71 80.0283 102.892 80.139 102.903 80.2923L102.974 80.293Z" fill="#FFB61D"/>
<path d="M100.757 90.278C100.703 90.139 100.782 89.963 100.922 89.911C101.061 89.859 101.236 89.9407 101.286 90.0813C101.241 90.3017 100.944 90.424 100.757 90.3V90.278Z" fill="#FFB61D"/>
<path d="M105.949 93.5123C105.854 93.44 105.788 93.3303 105.769 93.2123C105.868 93.1143 105.967 93.0163 106.067 92.9187C106.323 93.0283 106.229 93.5047 105.95 93.5087L105.949 93.5123Z" fill="#FFB61D"/>
<path d="M101.137 95.1787C100.947 95.2483 100.785 94.9383 100.925 94.7923C101.066 94.646 101.339 94.72 101.437 94.8977C101.338 94.997 101.239 95.0967 101.14 95.1963L101.137 95.1787Z" fill="#FFB61D"/>
<path d="M100.899 80.648C100.759 80.476 100.917 80.1657 101.138 80.1777C101.277 80.26 101.353 80.4347 101.32 80.5917C101.191 80.6547 101.04 80.673 100.9 80.643L100.899 80.648Z" fill="#FFB61D"/>
<path d="M123.979 88.4637C124.149 88.5097 124.079 88.8037 123.907 88.8417C123.735 88.8797 123.571 88.7627 123.436 88.6497C123.556 88.4857 123.786 88.412 123.979 88.4757V88.4637Z" fill="#FFB61D"/>
<path d="M126.845 88.62C126.751 88.5513 126.658 88.4827 126.564 88.4143C126.712 88.1673 127.13 88.1597 127.286 88.401C127.202 88.5383 127.028 88.6133 126.871 88.58L126.845 88.62Z" fill="#FFB61D"/>
<path d="M129.726 80.5697C129.62 80.4223 129.76 80.1817 129.941 80.188C130.122 80.1947 130.247 80.4257 130.164 80.587C130.027 80.682 129.832 80.683 129.694 80.589L129.726 80.5697Z" fill="#FFB61D"/>
<path d="M119.116 90.3273C118.943 90.4667 118.633 90.3093 118.644 90.0873C118.702 89.9877 118.814 89.922 118.93 89.9213C119.091 89.979 119.193 90.1693 119.15 90.3357L119.116 90.3273Z" fill="#FFB61D"/>
<path d="M104.535 96.001C104.629 96.0727 104.723 96.144 104.817 96.2157C104.664 96.362 104.471 96.4667 104.265 96.5153C104.124 96.3453 104.286 96.0347 104.506 96.0537L104.535 96.001Z" fill="#FFB61D"/>
<path d="M103.001 83.354C102.875 83.101 102.392 83.342 102.518 83.595C102.644 83.848 103.128 83.607 103.001 83.354Z" fill="#FFB61D"/>
<path d="M100.84 96.339C100.911 96.2437 101.021 96.1777 101.14 96.1593C101.235 96.2313 101.301 96.341 101.32 96.4587C101.22 96.5583 101.12 96.658 101.02 96.758C100.885 96.6707 100.811 96.4973 100.841 96.339H100.84Z" fill="#FFB61D"/>
<path d="M112.391 80.4597C112.559 80.6653 112.952 80.345 112.784 80.1393C112.616 79.9333 112.223 80.254 112.391 80.4597Z" fill="#FFB61D"/>
<path d="M126.687 86.8433C126.672 86.5673 127.149 86.457 127.257 86.7113C127.222 86.965 126.823 87.0607 126.676 86.8507L126.687 86.8433Z" fill="#FFB61D"/>
<path d="M129.998 90.2673C129.9 90.454 129.542 90.2873 129.622 90.092C129.642 89.9407 129.832 89.8403 129.968 89.9093C130.105 89.9787 130.136 90.1917 130.025 90.297L129.998 90.2673Z" fill="#FFB61D"/>
<path d="M114.363 85.199C114.173 85.2687 114.011 84.9587 114.151 84.8127C114.292 84.6667 114.565 84.7407 114.663 84.918C114.564 85.0177 114.465 85.117 114.366 85.2167L114.363 85.199Z" fill="#FFB61D"/>
<path d="M102.828 96.182C102.956 96.1083 103.119 96.2697 103.099 96.4167C103.078 96.5637 102.948 96.6697 102.819 96.7423C102.602 96.6367 102.611 96.261 102.833 96.166L102.828 96.182Z" fill="#FFB61D"/>
<path d="M107.457 80.7103C107.396 80.4567 107.723 80.164 107.912 80.344C107.901 80.487 107.883 80.6427 107.783 80.745C107.682 80.8477 107.469 80.8403 107.429 80.7027L107.457 80.7103Z" fill="#FFB61D"/>
<path d="M119.358 99.341C119.373 99.617 118.897 99.7273 118.788 99.4727C118.823 99.2193 119.223 99.1237 119.369 99.3337L119.358 99.341Z" fill="#FFB61D"/>
<path d="M106.129 96.2137C105.854 96.251 105.926 96.775 106.2 96.7377C106.475 96.7003 106.403 96.176 106.129 96.2137Z" fill="#FFB61D"/>
<path d="M118.811 96.162C119.048 96.314 119.052 96.7203 118.816 96.8763C118.579 96.7213 118.578 96.3147 118.815 96.1587L118.811 96.162Z" fill="#FFB61D"/>
<path d="M107.81 85.155C107.62 85.2837 107.329 85.223 107.206 85.029C107.331 84.928 107.475 84.8233 107.635 84.836C107.796 84.849 107.934 85.0547 107.827 85.175L107.81 85.155Z" fill="#FFB61D"/>
<path d="M112.804 99.766C112.706 99.9527 112.348 99.786 112.428 99.5907C112.448 99.4393 112.638 99.339 112.775 99.408C112.911 99.4773 112.942 99.6903 112.832 99.7957L112.804 99.766Z" fill="#FFB61D"/>
<path d="M98.131 87.0027C97.9407 87.0723 97.779 86.7623 97.9193 86.616C98.0597 86.47 98.3333 86.544 98.4313 86.7213C98.332 86.821 98.233 86.9207 98.1337 87.02L98.131 87.0027Z" fill="#FFB61D"/>
<path d="M124.106 78.9653C124.008 79.152 123.65 78.985 123.73 78.7897C123.75 78.6383 123.941 78.538 124.077 78.6073C124.213 78.6767 124.244 78.8893 124.134 78.995L124.106 78.9653Z" fill="#FFB61D"/>
<path d="M117.295 81.7967C117.368 81.9863 117.294 82.222 117.125 82.3357C117.015 82.1993 116.897 82.0363 116.935 81.865C116.972 81.6937 117.268 81.6253 117.309 81.7957L117.295 81.7967Z" fill="#FFB61D"/>
<path d="M112.803 91.5883C112.943 91.761 112.785 92.071 112.563 92.0597C112.464 92.0023 112.398 91.8897 112.397 91.7743C112.455 91.6127 112.645 91.5117 112.812 91.554L112.803 91.5883Z" fill="#FFB61D"/>
<path d="M114.027 80.5287C114.011 80.7907 114.511 80.822 114.528 80.5603C114.544 80.2983 114.044 80.267 114.027 80.5287Z" fill="#FFB61D"/>
<path d="M122.3 84.8563C122.396 84.9267 122.462 85.037 122.478 85.155C122.392 85.2913 122.219 85.3663 122.061 85.3353C121.919 85.1653 122.08 84.853 122.301 84.8713L122.3 84.8563Z" fill="#FFB61D"/>
<path d="M115.868 101.147C115.796 101.243 115.686 101.309 115.568 101.327C115.473 101.255 115.407 101.146 115.389 101.028C115.48 100.919 115.611 100.821 115.751 100.842C115.891 100.864 115.983 101.07 115.869 101.154L115.868 101.147Z" fill="#FFB61D"/>
<path d="M127.169 85.0327C127.047 85.221 126.764 85.2807 126.577 85.1577C126.491 85.0293 126.626 84.845 126.78 84.8333C126.934 84.8217 127.072 84.924 127.177 85.037L127.169 85.0327Z" fill="#FFB61D"/>
<path d="M104.238 83.6897C104.121 83.5487 104.256 83.2953 104.439 83.303C104.622 83.3107 104.74 83.5557 104.641 83.7097C104.542 83.8637 104.284 83.8677 104.171 83.7243L104.238 83.6897Z" fill="#FFB61D"/>
<path d="M109.609 98.0223C109.644 98.118 109.624 98.2317 109.557 98.309C109.373 98.395 109.112 98.2206 109.158 98.0223C109.204 97.824 109.57 97.8303 109.581 98.0337L109.609 98.0223Z" fill="#FFB61D"/>
<path d="M125.311 93.375C125.177 93.3633 125.167 93.1433 125.278 93.0667C125.389 92.9903 125.538 93.0157 125.67 93.044C125.733 93.1277 125.755 93.24 125.729 93.3413C125.599 93.4023 125.448 93.4193 125.308 93.3887L125.311 93.375Z" fill="#FFB61D"/>
<path d="M112.562 83.2927C112.683 83.2927 112.803 83.2927 112.923 83.2923C112.98 83.3813 113.001 83.492 112.982 83.5957C112.846 83.6497 112.69 83.703 112.56 83.6367C112.43 83.5703 112.422 83.326 112.567 83.3097L112.562 83.2927Z" fill="#FFB61D"/>
<path d="M119.377 83.4277C119.284 83.1823 118.816 83.3613 118.909 83.6067C119.003 83.8517 119.471 83.6727 119.377 83.4277Z" fill="#FFB61D"/>
<path d="M126.697 83.836C126.666 83.7003 126.695 83.5383 126.81 83.46C126.925 83.3817 127.123 83.4523 127.124 83.5917C127.102 83.7127 127.074 83.8453 126.976 83.9193C126.877 83.993 126.693 83.9417 126.698 83.819L126.697 83.836Z" fill="#FFB61D"/>
<path d="M98.158 83.9507C97.9687 84.0147 97.7553 83.7893 97.8293 83.604C97.9037 83.4187 98.2133 83.4023 98.3063 83.579C98.2483 83.6837 98.1903 83.788 98.132 83.8927L98.158 83.9507Z" fill="#FFB61D"/>
<path d="M105.649 99.7073C105.629 99.486 105.942 99.3233 106.112 99.467C106.185 99.5887 106.135 99.7673 106.009 99.8333C105.883 99.899 105.707 99.8383 105.649 99.7087L105.649 99.7073Z" fill="#FFB61D"/>
<path d="M120.824 91.9173C121.016 91.7413 120.679 91.3743 120.487 91.5507C120.295 91.7267 120.632 92.0937 120.824 91.9173Z" fill="#FFB61D"/>
<path d="M111.239 93.74C111.073 93.7927 110.905 93.5793 110.976 93.4207C111.046 93.2617 111.282 93.223 111.418 93.3313C111.459 93.4887 111.379 93.669 111.236 93.7457L111.239 93.74Z" fill="#FFB61D"/>
<path d="M121.981 79.285C121.801 79.1083 122.07 78.7427 122.292 78.863C122.466 79.034 122.208 79.3863 121.992 79.2727L121.981 79.285Z" fill="#FFB61D"/>
<path d="M111.359 85.0907C111.158 85.1133 110.9 85.0997 110.823 84.9113C110.944 84.7543 111.168 84.6847 111.357 84.7453C111.445 84.8417 111.448 85.0033 111.365 85.1033L111.359 85.0907Z" fill="#FFB61D"/>
<path d="M120.429 81.7707C120.633 81.6863 120.879 81.943 120.785 82.143C120.689 82.2447 120.507 82.2457 120.409 82.1453C120.312 82.0453 120.318 81.8633 120.423 81.7703L120.429 81.7707Z" fill="#FFB61D"/>
<path d="M118.755 80.2273C118.827 80.132 118.937 80.066 119.055 80.048C119.15 80.1193 119.216 80.2293 119.234 80.347C119.162 80.4423 119.052 80.508 118.935 80.526C118.839 80.4547 118.773 80.3443 118.757 80.2263L118.755 80.2273Z" fill="#FFB61D"/>
<path d="M111.341 88.5447C111.212 88.7647 110.83 88.7527 110.715 88.525C110.825 88.297 111.209 88.2863 111.331 88.5077L111.341 88.5447Z" fill="#FFB61D"/>
<path d="M102.819 94.7063C102.949 94.6893 103.046 94.853 103.004 94.976C102.962 95.0993 102.831 95.1717 102.702 95.1947C102.607 95.123 102.542 95.0133 102.524 94.8957C102.595 94.8 102.705 94.7343 102.823 94.7177L102.819 94.7063Z" fill="#FFB61D"/>
<path d="M116.08 98.0753C116.085 98.1693 116.091 98.263 116.096 98.357C115.98 98.5233 115.661 98.4337 115.648 98.2313C115.636 98.0287 115.941 97.9003 116.077 98.0507L116.08 98.0753Z" fill="#FFB61D"/>
<path d="M122.301 93.0327C122.396 93.1043 122.462 93.2143 122.48 93.3323C122.409 93.4277 122.299 93.4937 122.181 93.5113C122.086 93.44 122.02 93.33 122.002 93.2123C122.073 93.1167 122.184 93.051 122.302 93.0343L122.301 93.0327Z" fill="#FFB61D"/>
<path d="M107.464 99.825C107.42 99.692 107.457 99.5257 107.576 99.4513C107.695 99.3773 107.886 99.443 107.906 99.582C107.855 99.6857 107.804 99.7893 107.753 99.8933C107.652 99.8817 107.55 99.87 107.448 99.8583L107.464 99.825Z" fill="#FFB61D"/>
<path d="M116.12 82.031C116.134 82.192 115.962 82.3397 115.804 82.302C115.647 82.264 115.562 82.054 115.648 81.917C115.78 81.7903 116.039 81.862 116.087 82.0387L116.12 82.031Z" fill="#FFB61D"/>
<path d="M102.572 91.7023C102.692 91.528 103.032 91.679 102.984 91.8847C102.933 91.9887 102.821 92.059 102.705 92.059C102.573 92.008 102.507 91.83 102.575 91.7053L102.572 91.7023Z" fill="#FFB61D"/>
<path d="M126.881 81.607C127.028 81.8357 126.739 82.1827 126.487 82.079C126.452 81.8533 126.643 81.619 126.871 81.6067L126.881 81.607Z" fill="#FFB61D"/>
<path d="M100.834 86.721C100.827 86.496 101.137 86.3373 101.315 86.4747C101.408 86.7237 100.981 86.946 100.83 86.7273L100.834 86.721Z" fill="#FFB61D"/>
<path d="M129.754 86.5377C129.836 86.4303 129.988 86.3827 130.116 86.4243C130.175 86.5073 130.196 86.6163 130.173 86.7153C130.074 86.773 129.975 86.831 129.876 86.889C129.744 86.8357 129.681 86.6587 129.749 86.5343L129.754 86.5377Z" fill="#FFB61D"/>
<path d="M117.439 80.2163C117.613 80.3363 117.462 80.6767 117.256 80.628C117.152 80.5777 117.082 80.465 117.082 80.3497C117.133 80.217 117.311 80.1513 117.436 80.2197L117.439 80.2163Z" fill="#FFB61D"/>
<path d="M102.89 81.8997C103.064 82.0197 102.914 82.36 102.708 82.3113C102.604 82.261 102.533 82.1483 102.534 82.033C102.584 81.9003 102.762 81.8347 102.887 81.903L102.89 81.8997Z" fill="#FFB61D"/>
<path d="M117.67 86.4787C117.541 86.6653 117.257 86.723 117.065 86.6013C117.061 86.3177 117.552 86.221 117.656 86.485L117.67 86.4787Z" fill="#FFB61D"/>
<path d="M107.332 93.4533C107.404 93.358 107.514 93.292 107.632 93.274C107.728 93.3453 107.793 93.4553 107.811 93.573C107.74 93.6683 107.63 93.734 107.512 93.752C107.416 93.6807 107.351 93.5703 107.334 93.4523L107.332 93.4533Z" fill="#FFB61D"/>
<path d="M109.736 85.2763C109.664 85.3717 109.554 85.4373 109.436 85.4557C109.341 85.384 109.275 85.2743 109.257 85.1563C109.329 85.061 109.438 84.9953 109.556 84.9777C109.652 85.0487 109.717 85.1593 109.734 85.2773L109.736 85.2763Z" fill="#FFB61D"/>
<path d="M126.703 90.2143C126.798 89.9943 127.17 89.9857 127.275 90.201C127.168 90.4313 126.781 90.4447 126.659 90.2223L126.703 90.2143Z" fill="#FFB61D"/>
<path d="M117.427 101.141C117.328 101.202 117.228 101.263 117.128 101.323C117.034 101.254 116.969 101.145 116.955 101.029C117.041 100.893 117.214 100.818 117.372 100.848C117.43 100.935 117.45 101.046 117.428 101.147L117.427 101.141Z" fill="#FFB61D"/>
<path d="M117.191 97.9023C117.136 97.7683 117.354 97.7023 117.498 97.7233C117.56 97.8523 117.578 98.0023 117.548 98.1423C117.462 98.2 117.352 98.2213 117.25 98.2007C117.193 98.114 117.172 98.0037 117.195 97.9023H117.191Z" fill="#FFB61D"/>
<path d="M107.332 83.714C107.404 83.6187 107.514 83.553 107.632 83.5347C107.728 83.6063 107.793 83.716 107.811 83.834C107.74 83.9293 107.63 83.995 107.512 84.0127C107.416 83.9417 107.351 83.831 107.334 83.713L107.332 83.714Z" fill="#FFB61D"/>
<path d="M123.743 86.5397C123.875 86.481 123.943 86.7007 123.922 86.844C123.793 86.9067 123.643 86.9257 123.503 86.8977C123.446 86.8103 123.425 86.7007 123.445 86.5983C123.532 86.541 123.642 86.5207 123.743 86.5433L123.743 86.5397Z" fill="#FFB61D"/>
<path d="M102.997 85.158C103.027 85.258 103.008 85.3717 102.947 85.4567C102.843 85.4813 102.729 85.46 102.641 85.3993C102.642 85.2787 102.643 85.158 102.644 85.0373C102.745 84.907 103.001 84.9913 103.004 85.1567L102.997 85.158Z" fill="#FFB61D"/>
<path d="M107.883 90.394C107.763 90.568 107.423 90.4173 107.472 90.2113C107.522 90.1077 107.635 90.0373 107.75 90.0373C107.883 90.088 107.948 90.266 107.88 90.391L107.883 90.394Z" fill="#FFB61D"/>
<path d="M104.681 84.812C104.798 84.8377 104.841 85.0167 104.749 85.093C104.549 85.1133 104.294 85.1027 104.218 84.917C104.302 84.7513 104.537 84.685 104.695 84.7827L104.681 84.812Z" fill="#FFB61D"/>
<path d="M111.239 99.5253C111.334 99.597 111.4 99.707 111.418 99.8253C111.347 99.9207 111.237 99.9863 111.119 100.004C111.024 99.9327 110.958 99.823 110.94 99.705C111.012 99.6093 111.122 99.5437 111.24 99.527L111.239 99.5253Z" fill="#FFB61D"/>
<path d="M115.506 89.963C115.659 89.852 115.907 89.919 115.983 90.0917C115.861 90.2487 115.638 90.318 115.449 90.257C115.368 90.1757 115.406 90.0137 115.514 89.9757L115.506 89.963Z" fill="#FFB61D"/>
<path d="M106.2 88.8307C106.08 89.005 105.74 88.8543 105.788 88.6483C105.839 88.5447 105.951 88.474 106.067 88.4743C106.199 88.525 106.265 88.703 106.197 88.8277L106.2 88.8307Z" fill="#FFB61D"/>
<path d="M115.814 93.1483C115.684 92.9477 115.3 93.1973 115.431 93.398C115.562 93.5987 115.945 93.349 115.814 93.1483Z" fill="#FFB61D"/>
<path d="M102.966 90.1477C102.94 90.399 102.502 90.445 102.424 90.2043C102.511 90.0107 102.821 89.975 102.949 90.144L102.966 90.1477Z" fill="#FFB61D"/>
<path d="M114.133 99.867C113.873 99.7687 113.966 99.2853 114.244 99.2913C114.372 99.4767 114.314 99.764 114.123 99.8847L114.133 99.867Z" fill="#FFB61D"/>
<path d="M101.235 85.133C101.143 85.066 101.052 84.999 100.96 84.9317C101.055 84.7007 101.447 84.6923 101.553 84.9187C101.485 85.0143 101.375 85.0793 101.259 85.0933L101.235 85.133Z" fill="#FFB61D"/>
<path d="M118.873 94.6523C119.05 94.7727 119.016 95.092 118.818 95.1727C118.579 95.0933 118.622 94.6603 118.872 94.6297L118.873 94.6523Z" fill="#FFB61D"/>
<path d="M126.744 80.6517C126.875 80.8523 127.258 80.6027 127.127 80.402C126.997 80.201 126.613 80.4507 126.744 80.6517Z" fill="#FFB61D"/>
<path d="M115.521 99.352C115.617 99.1313 115.991 99.1247 116.095 99.3417C115.994 99.5617 115.616 99.5597 115.517 99.3383L115.521 99.352Z" fill="#FFB61D"/>
<path d="M109.339 80.322C109.406 80.2303 109.473 80.1387 109.54 80.047C109.771 80.1423 109.78 80.5347 109.553 80.64C109.458 80.572 109.393 80.4627 109.379 80.3463L109.339 80.322Z" fill="#FFB61D"/>
<path d="M123.751 85.081C123.598 85.0563 123.617 84.7913 123.764 84.739C123.91 84.6863 124.07 84.7887 124.16 84.9157C124.075 85.0517 123.901 85.126 123.744 85.0933L123.751 85.081Z" fill="#FFB61D"/>
<path d="M122.014 90.0927C122.09 89.9227 122.331 89.8533 122.486 89.957C122.532 90.0883 122.447 90.2507 122.313 90.2867C122.178 90.323 122.023 90.2253 121.998 90.088L122.014 90.0927Z" fill="#FFB61D"/>
<path d="M107.745 88.2377C107.899 88.2627 107.88 88.5273 107.733 88.58C107.587 88.6323 107.427 88.53 107.337 88.4033C107.421 88.267 107.595 88.1927 107.752 88.2253L107.745 88.2377Z" fill="#FFB61D"/>
<path d="M120.492 90.3907C120.622 90.5913 121.006 90.3417 120.875 90.141C120.744 89.9403 120.361 90.19 120.492 90.3907Z" fill="#FFB61D"/>
<path d="M109.861 96.585C110.061 96.454 109.812 96.0707 109.611 96.2017C109.41 96.3323 109.66 96.7157 109.861 96.585Z" fill="#FFB61D"/>
<path d="M125.282 86.9367C125.191 86.8697 125.099 86.8023 125.007 86.7353C125.102 86.5043 125.495 86.4957 125.6 86.7223C125.532 86.8177 125.423 86.8827 125.306 86.897L125.282 86.9367Z" fill="#FFB61D"/>
<path d="M124.032 90.0787C123.936 90.299 123.561 90.3057 123.457 90.089C123.558 89.869 123.936 89.871 124.035 90.0923L124.032 90.0787Z" fill="#FFB61D"/>
<path d="M128.721 86.712C128.625 86.9323 128.25 86.939 128.146 86.7223C128.248 86.5023 128.626 86.5043 128.724 86.7257L128.721 86.712Z" fill="#FFB61D"/>
<path d="M105.601 94.9933C105.666 94.8557 105.732 94.718 105.798 94.5807C105.929 94.6703 106.047 94.8203 106.01 94.9747C105.972 95.129 105.7 95.173 105.669 95.0173L105.601 94.9933Z" fill="#FFB61D"/>
<path d="M130.214 85.1443C130.077 85.0787 129.939 85.0127 129.802 84.947C129.891 84.816 130.041 84.6977 130.196 84.735C130.35 84.7723 130.394 85.0443 130.238 85.076L130.214 85.1443Z" fill="#FFB61D"/>
<path d="M122.063 96.1637C122.169 96.135 122.287 96.1557 122.376 96.2187C122.329 96.3893 122.214 96.54 122.061 96.6303C121.875 96.561 121.878 96.2373 122.066 96.1713L122.063 96.1637Z" fill="#FFB61D"/>
<path d="M97.8867 88.5447C97.8113 88.2713 98.338 88.1337 98.406 88.4087C98.33 88.5733 98.0937 88.6367 97.9453 88.5323L97.8867 88.5447Z" fill="#FFB61D"/>
<path d="M97.9007 85.2013C97.747 85.1763 97.7663 84.9117 97.9127 84.8593C98.059 84.8067 98.219 84.909 98.309 85.036C98.2243 85.172 98.0507 85.2463 97.8937 85.2137L97.9007 85.2013Z" fill="#FFB61D"/>
<path d="M120.808 94.6543C120.802 94.775 120.726 94.8897 120.618 94.944C120.397 94.8423 120.399 94.462 120.622 94.363C120.717 94.431 120.781 94.5403 120.795 94.6563L120.808 94.6543Z" fill="#FFB61D"/>
<path d="M101.142 93.7723C100.96 93.7747 100.933 93.5113 100.969 93.3333C101.061 93.2423 101.226 93.2413 101.318 93.3313C101.359 93.489 101.279 93.669 101.136 93.746L101.142 93.7723Z" fill="#FFB61D"/>
<path d="M122.466 94.8997C122.407 94.6647 121.958 94.777 122.016 95.012C122.075 95.247 122.524 95.1347 122.466 94.8997Z" fill="#FFB61D"/>
<path d="M122.233 82.256C122.103 82.329 121.962 82.1187 122.038 81.9907C122.115 81.863 122.288 81.8347 122.436 81.8477C122.497 82.0043 122.395 82.2027 122.233 82.2453L122.233 82.256Z" fill="#FFB61D"/>
<path d="M117.364 84.871C117.518 84.896 117.498 85.1607 117.352 85.2133C117.206 85.2657 117.046 85.1633 116.956 85.0367C117.04 84.9003 117.214 84.826 117.371 84.859L117.364 84.871Z" fill="#FFB61D"/>
<path d="M99.8237 86.5777C99.899 86.851 99.3723 86.9887 99.3043 86.7137C99.3803 86.5493 99.6167 86.4857 99.765 86.59L99.8237 86.5777Z" fill="#FFB61D"/>
<path d="M107.869 91.5897C107.99 91.7243 107.929 91.975 107.759 92.0387C107.491 91.9777 107.622 91.4633 107.887 91.538L107.869 91.5897Z" fill="#FFB61D"/>
<path d="M112.705 86.4157C112.722 86.518 112.738 86.62 112.755 86.7223C112.602 86.8363 112.351 86.7713 112.273 86.5977C112.354 86.461 112.528 86.387 112.682 86.4233L112.705 86.4157Z" fill="#FFB61D"/>
<path d="M104.33 98.2623C104.082 98.3213 104.047 97.8687 104.263 97.733C104.458 97.823 104.497 98.1327 104.331 98.2687L104.33 98.2623Z" fill="#FFB61D"/>
<path d="M109.789 101.103C109.943 101.128 109.924 101.393 109.777 101.445C109.631 101.498 109.471 101.395 109.381 101.269C109.466 101.132 109.639 101.058 109.796 101.091L109.789 101.103Z" fill="#FFB61D"/>
<path d="M122.235 86.4806C122.264 86.5806 122.246 86.6933 122.186 86.7787C122.028 86.815 121.846 86.7443 121.771 86.601C121.856 86.435 122.091 86.3683 122.25 86.4657L122.235 86.4806Z" fill="#FFB61D"/>
<path d="M121.761 80.3487C121.828 80.2513 121.94 80.1863 122.058 80.1763C122.242 80.252 122.243 80.5677 122.06 80.6447C121.96 80.5457 121.86 80.4463 121.76 80.347L121.761 80.3487Z" fill="#FFB61D"/>
<path d="M102.762 86.7153C102.628 86.837 102.377 86.7757 102.313 86.606C102.374 86.3377 102.888 86.4687 102.814 86.7333L102.762 86.7153Z" fill="#FFB61D"/>
<path d="M116.056 91.748C116.131 92.0213 115.604 92.159 115.536 91.884C115.612 91.7193 115.849 91.656 115.997 91.76L116.056 91.748Z" fill="#FFB61D"/>
<path d="M118.627 81.7767C118.758 81.7147 118.933 81.7797 118.991 81.9117C118.893 82.0097 118.794 82.1077 118.696 82.2057C118.534 82.145 118.493 81.8917 118.628 81.7837L118.627 81.7767Z" fill="#FFB61D"/>
<path d="M120.309 80.6013C120.19 80.518 120.188 80.3127 120.306 80.2273C120.424 80.142 120.618 80.208 120.66 80.3477C120.591 80.478 120.461 80.575 120.317 80.6047L120.309 80.6013Z" fill="#FFB61D"/>
<path d="M120.697 96.459C120.684 96.626 120.429 96.706 120.323 96.576C120.269 96.418 120.37 96.24 120.513 96.1527C120.574 96.2507 120.635 96.349 120.697 96.4473V96.459Z" fill="#FFB61D"/>
<path d="M131.678 83.6473C131.578 83.677 131.465 83.6583 131.38 83.5987C131.344 83.441 131.414 83.2587 131.558 83.184C131.724 83.2683 131.79 83.5033 131.693 83.6623L131.678 83.6473Z" fill="#FFB61D"/>
<path d="M114.003 83.655C113.891 83.506 113.956 83.2577 114.127 83.1833C114.263 83.2667 114.337 83.4393 114.304 83.5947C114.217 83.6517 114.107 83.672 114.005 83.6497L114.003 83.655Z" fill="#FFB61D"/>
<path d="M121.964 83.4483C122.032 83.3553 122.1 83.2627 122.167 83.17C122.315 83.2457 122.398 83.429 122.357 83.5897C122.259 83.723 122 83.6373 122.001 83.4723L121.964 83.4483Z" fill="#FFB61D"/>
<path d="M123.863 98.2037C123.75 98.0543 123.815 97.8063 123.987 97.732C124.122 97.815 124.196 97.9877 124.163 98.1433C124.076 98.2003 123.966 98.2207 123.865 98.1983L123.863 98.2037Z" fill="#FFB61D"/>
<path d="M105.828 86.7843C105.751 86.6787 105.794 86.5077 105.912 86.451C106.03 86.3947 106.191 86.4683 106.225 86.5947C106.176 86.7587 105.981 86.8627 105.818 86.811L105.828 86.7843Z" fill="#FFB61D"/>
<path d="M104.409 99.1163C104.545 99.1813 104.682 99.2467 104.819 99.312C104.742 99.4653 104.557 99.556 104.388 99.5227C104.303 99.4227 104.298 99.262 104.379 99.1573L104.409 99.1163Z" fill="#FFB61D"/>
<path d="M117.515 99.521C117.531 99.622 117.546 99.723 117.561 99.824C117.475 99.8847 117.361 99.9033 117.261 99.8733C117.085 99.7357 117.31 99.3913 117.506 99.4967L117.515 99.521Z" fill="#FFB61D"/>
<path d="M122.372 98.1417C122.364 98.2627 122.289 98.377 122.181 98.4327C122.039 98.3577 121.963 98.178 122.006 98.024C122.105 97.892 122.362 97.9787 122.361 98.143L122.372 98.1417Z" fill="#FFB61D"/>
<path d="M119.055 86.7793C118.976 86.854 118.897 86.9283 118.818 87.0027C118.653 86.9687 118.589 86.717 118.718 86.609C118.847 86.5007 119.084 86.6073 119.088 86.7757L119.055 86.7793Z" fill="#FFB61D"/>
<path d="M130.167 83.476C130.237 83.6593 130.075 83.8883 129.879 83.8837C129.711 83.7057 129.963 83.357 130.185 83.4603L130.167 83.476Z" fill="#FFB61D"/>
<path d="M130.118 88.7037C129.984 88.76 129.917 88.54 129.938 88.3957C130.09 88.2873 130.335 88.3557 130.408 88.5273C130.34 88.622 130.231 88.6867 130.116 88.7003L130.118 88.7037Z" fill="#FFB61D"/>
<path d="M101.317 83.5927C101.347 83.7713 101.116 83.9303 100.959 83.8387C100.954 83.708 100.955 83.5583 101.053 83.4717C101.151 83.3847 101.359 83.4717 101.311 83.5933L101.317 83.5927Z" fill="#FFB61D"/>
<path d="M120.379 99.7643C120.282 99.697 120.217 99.5853 120.207 99.4677C120.282 99.2837 120.598 99.2823 120.675 99.4657C120.576 99.5653 120.477 99.6653 120.377 99.7653L120.379 99.7643Z" fill="#FFB61D"/>
<path d="M109.436 95.0753C109.341 95.0037 109.275 94.8937 109.257 94.7753C109.329 94.68 109.439 94.6143 109.557 94.5957C109.673 94.7427 109.604 94.9947 109.429 95.062L109.436 95.0753Z" fill="#FFB61D"/>
<path d="M120.371 88.83C120.277 88.6777 120.43 88.4457 120.607 88.4717C120.784 88.609 120.562 88.9563 120.363 88.853L120.371 88.83Z" fill="#FFB61D"/>
<path d="M101.481 88.3767C101.595 88.5783 101.238 88.816 101.096 88.633C100.973 88.4633 101.301 88.2487 101.44 88.4057L101.481 88.3767Z" fill="#FFB61D"/>
<path d="M125.308 78.8517C125.404 78.8147 125.52 78.837 125.596 78.907C125.676 79.0563 125.509 79.2667 125.345 79.221C125.181 79.1757 125.146 78.9093 125.293 78.823L125.308 78.8517Z" fill="#FFB61D"/>
<path d="M123.991 94.5887C124.085 94.741 123.932 94.9733 123.755 94.947C123.578 94.81 123.8 94.4623 123.999 94.5657L123.991 94.5887Z" fill="#FFB61D"/>
<path d="M118.872 88.8763C118.715 88.9497 118.616 88.6953 118.636 88.5227C118.721 88.4217 118.903 88.4313 118.977 88.5407C119.051 88.65 118.992 88.8227 118.867 88.8637L118.872 88.8763Z" fill="#FFB61D"/>
<path d="M107.878 86.6553C107.952 86.765 107.902 86.936 107.782 86.9897C107.661 87.0437 107.501 86.9657 107.469 86.8377C107.546 86.6997 107.721 86.625 107.874 86.6653L107.878 86.6553Z" fill="#FFB61D"/>
<path d="M109.62 86.8627C109.519 86.879 109.418 86.895 109.317 86.911C109.216 86.762 109.375 86.5237 109.551 86.5593C109.669 86.5853 109.712 86.767 109.618 86.8437L109.62 86.8627Z" fill="#FFB61D"/>
<path d="M105.954 82.2143C105.738 82.2687 105.766 81.875 105.945 81.742C106.134 81.8053 106.133 82.1333 105.944 82.196L105.954 82.2143Z" fill="#FFB61D"/>
<path d="M104.393 94.7087C104.487 94.8613 104.334 95.0933 104.157 95.067C103.979 94.93 104.201 94.5827 104.4 94.686L104.393 94.7087Z" fill="#FFB61D"/>
<path d="M102.482 88.7383C102.547 88.6557 102.613 88.5727 102.678 88.49C102.829 88.496 102.931 88.6967 102.846 88.8217C102.762 88.9467 102.538 88.9277 102.476 88.7903L102.482 88.7383Z" fill="#FFB61D"/>
<path d="M120.486 84.9823C120.42 84.855 120.487 84.677 120.621 84.625C120.717 84.6893 120.781 84.799 120.79 84.9143C120.75 85.0293 120.578 85.0683 120.492 84.9823H120.486Z" fill="#FFB61D"/>
<path d="M104.134 88.7097C104.068 88.5823 104.135 88.404 104.269 88.3523C104.365 88.4163 104.429 88.5263 104.438 88.6417C104.398 88.7563 104.225 88.7957 104.14 88.7097H104.134Z" fill="#FFB61D"/>
<path d="M131.704 81.8477C131.72 81.9533 131.736 82.0587 131.751 82.164C131.647 82.1847 131.542 82.2053 131.437 82.226C131.338 82.0693 131.493 81.8273 131.677 81.852L131.704 81.8477Z" fill="#FFB61D"/>
<path d="M106.08 90.0203C106.167 90.1817 106.009 90.41 105.827 90.3867C105.772 90.298 105.751 90.188 105.77 90.0853C105.857 90.0277 105.967 90.0073 106.069 90.03L106.08 90.0203Z" fill="#FFB61D"/>
<path d="M105.836 85.32C105.647 85.2637 105.641 84.9367 105.828 84.874C106.016 84.936 106.011 85.2637 105.822 85.3207L105.836 85.32Z" fill="#FFB61D"/>
<path d="M106.134 98.1393C106.145 98.2557 106.065 98.374 105.953 98.4073C105.806 98.389 105.722 98.185 105.813 98.0683C105.905 97.952 106.123 97.9863 106.175 98.1253L106.134 98.1393Z" fill="#FFB61D"/>
<path d="M107.501 96.6453C107.434 96.518 107.501 96.3397 107.635 96.288C107.732 96.352 107.796 96.462 107.804 96.5773C107.764 96.692 107.592 96.7313 107.506 96.645L107.501 96.6453Z" fill="#FFB61D"/>
<path d="M105.881 80.2287C105.893 80.0483 106.106 79.8677 106.244 79.9843C106.263 80.102 106.264 80.239 106.177 80.3203C106.09 80.402 105.901 80.341 105.925 80.2243L105.881 80.2287Z" fill="#FFB61D"/>
<path d="M122.24 91.9983C122.125 92.055 121.986 91.9173 122.011 91.7923C122.036 91.6673 122.172 91.589 122.299 91.5877C122.404 91.709 122.375 91.921 122.241 92.0097L122.24 91.9983Z" fill="#FFB61D"/>
<path d="M109.334 93.186C109.4 93.105 109.467 93.024 109.533 92.943C109.675 92.937 109.785 93.1217 109.711 93.2437C109.637 93.3657 109.423 93.3543 109.362 93.2253L109.334 93.186Z" fill="#FFB61D"/>
<path d="M119.054 92.0647C118.951 92.0907 118.838 92.0737 118.748 92.0183C118.749 91.857 118.89 91.686 119.048 91.7197C119.206 91.7533 119.206 92.052 119.044 92.0433L119.054 92.0647Z" fill="#FFB61D"/>
<path d="M117.485 88.2413C117.621 88.2787 117.691 88.4633 117.614 88.5813C117.5 88.6087 117.374 88.582 117.281 88.5107C117.345 88.4103 117.408 88.3103 117.472 88.2103L117.485 88.2413Z" fill="#FFB61D"/>
<path d="M105.883 91.5073C106.079 91.5 105.983 91.8227 105.827 91.9427C105.725 91.8223 105.757 91.6137 105.89 91.5293L105.883 91.5073Z" fill="#FFB61D"/>
<path d="M125.244 91.5287C125.401 91.6043 125.36 91.89 125.188 91.9187C124.984 91.8787 125.045 91.4923 125.251 91.5167L125.244 91.5287Z" fill="#FFB61D"/>
<path d="M113.927 86.76C113.829 86.7063 113.89 86.5363 113.999 86.5103C114.108 86.4843 114.216 86.547 114.31 86.607C114.305 86.7717 114.044 86.848 113.951 86.712L113.927 86.76Z" fill="#FFB61D"/>
<path d="M109.677 91.9473C109.601 92.104 109.315 92.0627 109.287 91.891C109.327 91.687 109.713 91.7473 109.689 91.954L109.677 91.9473Z" fill="#FFB61D"/>
<path d="M101.091 97.7863C101.135 97.645 101.379 97.6413 101.428 97.781C101.38 97.9213 101.135 97.9177 101.091 97.7763L101.091 97.7863Z" fill="#FFB61D"/>
<path d="M107.583 101.033C107.628 100.891 107.872 100.888 107.92 101.027C107.872 101.168 107.628 101.164 107.584 101.023L107.583 101.033Z" fill="#FFB61D"/>
<path d="M131.6 80.3393C131.567 80.4737 131.385 80.5453 131.269 80.4697C131.212 80.3617 131.256 80.2047 131.371 80.161C131.485 80.1173 131.633 80.2287 131.605 80.348L131.6 80.3393Z" fill="#FFB61D"/>
<path d="M128.407 96.6807C128.326 96.6143 128.245 96.548 128.164 96.4817C128.158 96.3393 128.343 96.23 128.465 96.304C128.587 96.3777 128.575 96.592 128.446 96.6527L128.407 96.6807Z" fill="#FFB61D"/>
<path d="M125.248 98.2663C125.129 98.214 125.173 97.9947 125.302 97.992C125.474 97.9973 125.383 98.3543 125.252 98.243L125.248 98.2663Z" fill="#FFB61D"/>
<path d="M108.069 211.333C100.501 204.419 94.0947 196.237 89.199 187.23C87.134 183.431 85.2887 179.163 86.0617 174.909C87.5073 166.952 84.5193 158.956 82.1657 151.218C79.8117 143.48 78.1443 134.743 81.9303 127.596C75.9577 133.104 73.5623 141.449 72.282 149.472C69.3137 168.073 70.9843 187.395 77.1013 205.21C69.9187 192.062 69.6363 176.331 70.3177 161.365C70.8477 149.719 72.15 137.317 79.4653 128.24C68.203 137.425 64.7763 152.93 62.291 167.249C59.9577 180.694 57.8807 194.805 62.207 207.748C58.125 200.222 58.7917 191.116 59.6343 182.597C61.573 163 64.5573 141.898 78.284 127.778C81.9143 124.043 86.3457 120.877 91.4313 119.752C95.372 118.881 99.1687 117.361 102.622 115.271C103.454 110.397 98.8677 106.559 95.6637 102.793C92.0757 98.5757 89.837 93.227 89.3517 87.7113C89.0647 84.446 88.379 79.9973 85.1043 79.8583C82.4123 79.7437 80.386 76.4957 81.4663 74.0277C82.547 71.5597 86.3083 70.8457 88.2183 72.746C85.4937 62.532 91.2493 50.7473 100.98 46.6163C99.393 44.3473 102.856 41.628 105.605 41.953C108.355 42.278 111.016 43.939 113.716 43.3253C112.791 41.696 114.273 39.5317 116.1 39.1143C117.926 38.697 119.801 39.49 121.439 40.399C131.955 46.2333 138.905 57.9997 138.938 70.0263C139.21 67.831 142.505 67.0793 144.116 68.595C145.727 70.1103 145.65 72.823 144.506 74.7163C143.362 76.6093 141.412 77.8523 139.482 78.9327C139.531 86.908 136.498 94.8634 131.152 100.782C127.262 105.089 121.75 109.657 123.027 115.318C125.096 114.86 127.189 117.248 126.465 119.24C135.338 118.5 143.618 123.856 149.904 130.161C159.119 139.404 165.742 151.205 168.832 163.885C169.372 166.1 172.523 166.704 174.473 165.522C176.423 164.341 177.425 162.106 178.313 160.006C184.164 146.181 190.014 132.355 195.864 118.53C193.906 106.497 195.648 107.167 196.565 101.54C199.073 95 198.594 89.0907 199.608 82.8657C199.884 81.1707 201.07 78.934 202.635 79.6407C203.427 79.998 203.706 80.963 203.875 81.815C204.824 86.6034 205.127 91.5194 204.774 96.388C206.799 92.9237 208.824 89.4594 210.85 85.9947C211.958 84.0987 214.406 81.9757 215.944 83.544C216.788 84.4057 216.566 85.8194 216.218 86.9743C215.109 90.648 213.303 94.11 210.923 97.1203C214.131 98.2147 217.848 99.8764 218.41 103.22C218.643 104.607 218.25 106.018 217.784 107.345C216.166 111.958 213.609 116.24 210.315 119.852C211.071 119.396 211.565 120.753 211.415 121.623C207.802 142.526 198.998 162.511 186.013 179.286C182.182 184.236 176.984 189.342 170.751 188.758C166.85 188.392 163.553 185.832 160.501 183.375C157.214 180.73 153.927 178.084 150.641 175.439C158.291 177.148 162.552 186.692 170.335 187.634C176.662 188.4 181.974 183.101 185.798 178.001C198.277 161.363 206.8 141.778 210.471 121.306C205.48 122.143 200.286 121.735 195.488 120.127C190.728 134.887 184.733 149.248 177.586 163.011C176.35 165.39 174.153 168.155 171.616 167.29C170.48 166.903 169.713 165.861 169.073 164.846C162.678 154.703 161.192 141.177 151.864 133.642C155.623 156.956 149.696 180.665 142.987 203.307C148.123 185.664 151.252 167.436 152.294 149.09C152.533 144.878 152.652 140.573 151.46 136.526C150.268 132.479 147.547 128.671 143.597 127.189C141.024 143.922 125.955 156.369 122.142 172.863C119.058 186.201 114.32 199.155 108.069 211.333ZM123.559 165.528C129.292 154.629 136.808 144.652 141.475 133.256C142.536 130.664 143.411 127.585 141.968 125.185C141.448 124.319 140.671 123.641 139.908 122.978C138.701 121.93 137.378 120.831 135.785 120.701C133.671 120.529 131.838 122.11 130.478 123.738C127.18 127.684 125.05 132.454 123.025 137.182C118.181 148.49 113.677 159.999 110.845 171.971C108.013 183.943 106.884 196.439 108.831 208.586C111.298 197.446 119.591 188.007 120.727 176.655C120.915 174.785 120.902 172.887 121.309 171.052C121.741 169.105 122.63 167.293 123.559 165.528ZM134.908 62.6657C134.132 61.169 133.163 59.7373 131.839 58.694C128.888 56.3707 124.733 56.3643 121.042 57.055C118.682 57.4963 116.367 58.177 114.144 59.083C113.563 59.3193 112.947 59.5767 112.33 59.4647C111.714 59.3523 111.159 58.6877 111.412 58.114C111.46 58.0037 111.536 57.9013 111.549 57.7813C111.585 57.4457 111.158 57.2777 110.824 57.2297C105.743 56.497 100.333 57.3537 96.062 60.201C91.7907 63.0483 88.834 68.013 88.992 73.1437C89.0277 74.295 89.8933 75.237 90.7623 75.9933C92.0913 77.1497 93.5557 78.1503 95.1163 78.9683C95.8167 79.3353 96.7777 79.6263 97.313 79.0443C98.375 77.89 100.139 77.8003 101.708 77.834C107.158 77.9507 112.639 78.5793 118.042 77.8533C121.334 77.4107 124.54 76.4713 127.819 75.9427C128.824 75.7807 129.861 75.6587 130.851 75.8933C131.841 76.1277 132.786 76.7864 133.101 77.7537C134.378 76.311 135.526 74.7543 136.528 73.1087C136.828 72.6147 137.12 72.1013 137.231 71.534C137.33 71.0307 137.281 70.5107 137.214 70.002C136.879 67.4473 136.094 64.9527 134.908 62.6657ZM126.733 98.5057C128.657 97.662 129.738 95.6164 130.465 93.6457C132.2 88.9494 132.757 83.8233 132.073 78.864C132.004 78.3653 131.912 77.843 131.594 77.453C131.091 76.835 130.19 76.739 129.394 76.7717C127.52 76.848 125.698 77.364 123.874 77.7993C120.034 78.716 116.1 79.2857 112.153 79.299C108.251 79.312 104.357 78.783 100.458 78.9343C99.6823 78.9647 98.862 79.0373 98.232 79.4917C97.2337 80.212 97.058 81.6073 97.0183 82.838C96.8663 87.516 97.4183 92.2164 98.6503 96.732C98.7243 97.0034 98.8077 97.2863 99.005 97.4867C99.2177 97.7027 99.5263 97.7867 99.8173 97.8717C104.527 99.251 108.601 103.201 113.497 102.86C117.129 102.608 120.182 100.003 123.737 99.218C124.742 98.9963 125.791 98.9187 126.733 98.5057ZM86.47 175.785C86.1777 180.03 88.5793 183.938 90.889 187.511C93.2273 191.128 95.5653 194.746 97.9033 198.363C94.455 186.886 92.8283 174.942 91.722 163.01C90.5667 150.551 89.9933 137.77 93.4 125.73C93.9407 123.82 94.5883 121.918 95.6343 120.23C92.4983 120.149 89.162 120.389 86.6037 122.205C84.9407 123.385 83.7603 125.137 82.886 126.979C80.184 132.672 80.1773 139.317 81.3717 145.504C82.5663 151.692 84.8837 157.597 86.6993 163.631C87.227 165.385 87.717 167.185 87.653 169.015C87.5727 171.308 86.6273 173.496 86.47 175.785ZM101.702 99.718C100.086 99.0973 98.125 98.5907 97.4823 96.983C97.1803 96.228 97.254 95.3837 97.167 94.5754C97.08 93.767 96.741 92.8803 95.985 92.5817C94.163 91.8617 92.4153 90.954 90.7787 89.8777C91.5907 94.6527 93.753 99.1907 96.95 102.829C98.551 104.652 100.407 106.257 101.826 108.224C103.245 110.192 104.21 112.668 103.687 115.037C103.521 115.791 104.605 116.12 105.378 116.102C110.512 115.98 115.645 115.837 120.777 115.672C121.647 115.643 122.16 114.628 122.139 113.758C122.119 112.888 121.769 112.047 121.78 111.177C121.797 109.898 122.581 108.769 123.379 107.77C125.742 104.81 128.503 102.19 130.96 99.3064C133.417 96.423 135.606 93.1927 136.54 89.5217C134.914 92.264 131.484 93.678 130.212 96.6017C129.49 98.261 127.744 99.2373 126.015 99.771C124.286 100.304 122.453 100.521 120.803 101.263C119.956 101.644 119.176 102.155 118.347 102.573C115.436 104.039 111.928 104.271 108.849 103.202C106.342 102.332 104.179 100.669 101.702 99.718ZM204.501 106.971C206.285 106.865 208.439 107.559 209.621 106.218C209.891 105.912 210.07 105.489 209.972 105.092C209.838 104.551 209.269 104.254 208.751 104.05C205.443 102.743 201.741 102.456 198.271 103.236C197.063 103.508 196.357 104.623 196.092 105.833C195.827 107.043 195.892 108.353 196.092 109.575C196.601 112.68 197.111 115.784 197.62 118.889C197.643 119.029 197.668 119.173 197.746 119.291C197.864 119.468 198.079 119.55 198.28 119.619C200.787 120.473 203.454 120.854 206.099 120.736C207.151 120.689 208.289 120.522 209.027 119.771C212.641 116.097 215.283 111.475 216.615 106.497C215.89 107.145 214.958 107.651 213.988 107.576C213.018 107.501 212.075 106.675 212.138 105.704C210.278 107.137 208.087 108.654 205.787 108.178C204.028 107.814 202.087 108.593 201.068 110.072C200.447 109.909 200.686 108.948 201.138 108.491C202.024 107.598 203.246 107.045 204.501 106.971ZM97.6903 134.604C96.4723 134.794 95.2603 135.021 94.058 135.292C93.2127 135.483 92.2063 135.871 92.0967 136.731C91.8787 138.445 91.7603 140.172 91.7423 141.9C100.937 139.731 110.699 140.023 119.747 142.736C120.709 140.484 121.67 138.231 122.632 135.979C114.536 133.786 105.978 133.315 97.6903 134.604ZM131.658 121.093C130.204 120.323 128.509 120.013 126.876 120.22C126.554 120.26 126.192 120.35 126.037 120.635C125.417 121.774 124.061 122.267 122.807 122.599C116.498 124.27 109.836 124.232 103.369 123.351C102.167 123.187 100.948 122.988 99.856 122.46C98.7637 121.932 97.798 121.023 97.474 119.854C96.613 119.841 96.096 120.781 95.79 121.586C94.865 124.02 94.0653 126.501 93.3957 129.017C103.881 126.642 114.961 126.949 125.299 129.902C126.285 128.697 127.017 127.285 127.434 125.785C127.628 125.085 128.165 124.541 128.683 124.03C129.675 123.051 130.667 122.072 131.658 121.093ZM114.533 156.569C115.547 154.328 116.407 152.019 117.107 149.661C109.035 148.324 100.768 148.167 92.6503 149.198C92.306 149.241 91.924 149.308 91.716 149.586C91.533 149.83 91.5423 150.164 91.56 150.468C91.6463 151.98 91.733 153.492 91.8193 155.004C91.8427 155.41 92.0363 155.959 92.435 155.877C99.7197 154.375 107.357 154.614 114.533 156.569ZM215.227 87.188C215.458 86.6143 215.68 86.011 215.63 85.3947C215.579 84.7783 215.178 84.1467 214.57 84.0323C214.191 83.961 213.8 84.0984 213.472 84.301C212.668 84.7973 212.164 85.649 211.691 86.4677C209.552 90.1744 207.413 93.8807 205.273 97.587C204.996 98.0673 204.194 97.9187 203.89 97.4547C203.586 96.9907 203.627 96.3903 203.67 95.8373C204.029 91.2013 203.759 86.5173 202.87 81.9537C202.815 81.6703 202.753 81.3773 202.582 81.1443C202.088 80.469 200.935 80.7037 200.438 81.3763C199.941 82.0493 199.912 82.948 199.905 83.785C199.856 90.1593 199.916 96.76 197.341 102.591C199.956 101.576 202.901 101.43 205.604 102.18C205.99 102.287 206.391 102.414 206.785 102.339C207.179 102.265 207.553 101.906 207.484 101.511C207.226 100.03 208.289 98.6847 209.223 97.5077C211.706 94.38 213.735 90.8923 215.227 87.188ZM125.538 117.709C125.36 116.978 124.705 116.307 123.956 116.374C116.313 117.059 108.627 117.253 100.96 116.957C100.506 116.939 100.028 116.925 99.625 117.135C99.341 117.283 99.1187 117.535 98.968 117.818C98.356 118.966 98.9773 120.464 100.02 121.242C101.063 122.02 102.407 122.248 103.698 122.411C109.335 123.122 115.079 123.047 120.674 122.064C121.883 121.852 123.122 121.581 124.122 120.871C125.122 120.161 125.828 118.901 125.538 117.709ZM111.913 164.508C111.957 164.355 112 164.182 111.919 164.044C111.833 163.898 111.645 163.855 111.478 163.826C105.403 162.796 99.1843 163.302 93.043 163.811C92.8693 163.825 92.6717 163.853 92.574 163.997C92.498 164.11 92.509 164.258 92.5227 164.393C92.7007 166.136 92.8787 167.88 93.0567 169.624C93.0907 169.958 93.2323 170.392 93.5687 170.375C98.9087 170.103 104.275 170.339 109.57 171.081C109.906 171.128 110.109 170.727 110.204 170.4C110.773 168.436 111.343 166.472 111.913 164.508ZM108.431 180.195C108.457 179.944 108.472 179.658 108.298 179.476C108.166 179.336 107.96 179.3 107.768 179.273C103.611 178.694 99.3873 179.105 95.2103 179.517C95.0017 179.537 94.76 179.578 94.6593 179.762C94.5903 179.889 94.612 180.043 94.636 180.185C94.916 181.856 95.1963 183.526 95.4767 185.197C95.517 185.437 95.644 185.745 95.885 185.71C99.8693 185.116 104.109 184.941 107.753 186.658C107.979 184.504 108.205 182.349 108.431 180.195ZM91.7187 89.2313C93.2237 90.265 94.876 91.0843 96.61 91.656C95.855 88.174 95.7073 84.5613 96.175 81.0293C96.2343 80.5827 95.7313 80.2943 95.316 80.1194C92.8883 79.096 90.6847 77.5437 88.9033 75.6023C89.0873 79.2873 89.4857 82.9613 90.0957 86.6C90.187 87.1457 90.2893 87.7064 90.5847 88.1744C90.8627 88.6144 91.2897 88.9367 91.7187 89.2313ZM131.839 92.9727C133.456 91.6587 134.872 90.1093 136.125 88.445C136.802 87.5473 137.439 86.6013 137.813 85.5417C138.19 84.476 138.288 83.334 138.332 82.2047C138.45 79.2493 138.224 76.2803 137.662 73.3763C136.363 75.14 135.065 76.9037 133.767 78.6673C133.568 78.938 133.364 79.2187 133.287 79.546C133.226 79.808 133.251 80.082 133.273 80.3503C133.619 84.5977 133.129 88.9114 131.839 92.9727ZM106.759 200.83C107.043 200.887 107.173 200.49 107.18 200.2C107.222 198.467 107.263 196.734 107.304 195.001C107.308 194.845 107.31 194.682 107.243 194.541C107.118 194.281 106.805 194.182 106.526 194.109C104.948 193.699 103.348 193.286 101.718 193.306C100.364 193.322 99.0233 193.638 97.67 193.604C97.5163 193.601 97.3163 193.626 97.2843 193.776C97.273 193.828 97.2877 193.882 97.3023 193.933C97.8997 196.006 98.686 198.025 99.6483 199.956C99.7747 200.209 99.9253 200.481 100.189 200.584C100.375 200.656 100.582 200.629 100.78 200.604C102.768 200.356 104.796 200.432 106.759 200.83ZM139.232 70.6903C138.922 71.169 138.648 71.692 138.598 72.2597C138.566 72.608 138.621 72.9577 138.675 73.303C138.884 74.634 139.093 75.9654 139.301 77.2964C139.314 77.3737 139.328 77.4557 139.379 77.5143C139.5 77.6527 139.725 77.5793 139.889 77.496C140.55 77.1604 141.218 76.8197 141.776 76.3317C142.224 75.9403 142.588 75.464 142.932 74.9787C143.65 73.9647 144.309 72.8333 144.355 71.5917C144.402 70.35 143.64 69 142.418 68.776C141.124 68.5383 139.947 69.5857 139.232 70.6903ZM82.996 73.3263C82.5 73.7607 82.3203 74.451 82.238 75.1053C82.1623 75.7043 82.1493 76.3284 82.3573 76.8954C82.644 77.6773 83.3253 78.2637 84.079 78.618C84.833 78.9727 85.6633 79.1247 86.483 79.273C86.8877 79.3467 87.292 79.42 87.6967 79.4933C87.797 79.5113 87.9157 79.5243 87.9863 79.451C88.0453 79.3903 88.0453 79.2953 88.0413 79.211C87.9747 77.7127 87.9077 76.2143 87.8407 74.716C87.8123 74.0793 87.3573 73.5187 86.7963 73.2163C86.2353 72.914 85.5823 72.8327 84.9457 72.8167C84.2577 72.799 83.5133 72.8727 82.996 73.3263ZM213.039 98.966C212.742 98.6407 212.302 98.4917 211.88 98.3654C211.433 98.2314 210.949 98.1087 210.506 98.255C210.002 98.4207 209.669 98.8917 209.403 99.3507C209.001 100.045 208.667 100.778 208.409 101.538C208.317 101.807 208.234 102.089 208.272 102.371C208.31 102.652 208.502 102.932 208.781 102.984C209.921 103.198 210.916 104.057 211.295 105.153C211.824 104.043 212.354 102.934 212.883 101.825C213.102 101.366 213.324 100.899 213.399 100.396C213.474 99.8933 213.383 99.3407 213.039 98.966ZM217.006 101.289C216.464 100.779 215.562 100.815 214.935 101.216C214.309 101.617 213.918 102.303 213.666 103.003C213.379 103.8 213.239 104.65 213.256 105.498C213.26 105.7 213.275 105.909 213.368 106.089C213.593 106.522 214.187 106.619 214.66 106.499C215.695 106.238 216.384 105.277 216.895 104.341C217.158 103.859 217.403 103.352 217.472 102.807C217.54 102.262 217.406 101.665 217.006 101.289ZM107.93 209.471C107.675 208 107.421 206.529 107.166 205.059C107.137 204.887 107.097 204.699 106.958 204.596C106.866 204.528 106.748 204.51 106.635 204.495C105.324 204.325 103.992 204.316 102.679 204.47C104.229 206.331 105.995 208.013 107.93 209.471Z" fill="#00160A"/>
<path d="M32.644 66.0727C31.3352 68.5813 30.6563 71.365 30.6728 74.181C29.586 72.04 28.2845 69.8263 25.7751 69.1773C23.6734 68.6153 21.2394 69.77 20.9548 72.0403C20.6144 74.768 23.0707 77.1497 24.9132 78.8307C27.0717 80.8167 29.5664 82.4113 32.1236 83.849C33.433 84.582 34.7563 85.2593 36.085 85.9517C35.791 86.8817 35.5103 87.9413 36.0713 88.7787C36.5117 89.4247 37.4003 89.706 38.047 89.1347C38.6937 88.5633 38.6767 87.5783 38.2517 86.9267C37.8793 86.3737 37.298 85.9973 36.6823 85.667C36.7157 85.571 36.7393 85.495 36.7727 85.399C37.0137 84.6057 37.2753 83.8217 37.5573 83.0473C38.1013 81.4887 38.701 79.9433 39.2393 78.37C40.1973 75.6023 41.0013 72.7397 41.1293 69.804C41.222 67.5697 41.118 64.2313 38.9587 62.9007C36.3463 61.2647 33.7633 63.935 32.644 66.0727ZM37.9317 87.3623C38.1337 87.776 38.1607 88.3203 37.8137 88.682C37.2287 89.2813 36.495 88.6747 36.3243 88.065C36.1537 87.4553 36.3217 86.7893 36.5207 86.1627C37.0903 86.4593 37.6607 86.806 37.9317 87.3623ZM40.6337 68.2543C40.7013 69.708 40.5963 71.157 40.3287 72.5817C39.8147 75.4897 38.7907 78.2647 37.7667 81.0393C37.236 82.4923 36.6953 83.9657 36.241 85.4413C35.8873 85.2677 35.5443 85.1237 35.2263 84.954C33.9697 84.3193 32.7381 83.659 31.5108 82.9637C29.0042 81.5243 26.5796 79.887 24.5062 77.8533C23.3088 76.6767 21.9808 75.329 21.4732 73.6997C20.9386 71.996 21.604 70.2083 23.3957 69.59C26.7829 68.4243 29.2473 71.861 30.6633 74.4363C30.6731 74.6513 30.6829 74.866 30.6927 75.081C30.7144 75.3753 31.1489 75.301 31.138 75.0363C31.0503 72.2127 31.5416 69.4303 32.7727 66.8487C33.3833 65.5683 34.174 64.172 35.461 63.4347C36.8883 62.613 38.5963 62.7973 39.5543 64.162C40.3713 65.3263 40.5727 66.8653 40.6337 68.2543Z" fill="#9E3C0E"/>
<path d="M206.681 31.344C204.066 32.4247 201.757 34.1207 199.959 36.2883C200.503 33.9497 200.929 31.4172 199.424 29.3072C198.175 27.5257 195.568 26.8457 193.891 28.402C191.877 30.2726 192.228 33.676 192.558 36.148C192.935 39.0567 193.821 41.882 194.856 44.6273C195.388 46.0303 195.966 47.3997 196.539 48.784C195.716 49.3077 194.82 49.939 194.712 50.941C194.634 51.7187 195.133 52.5053 195.996 52.4833C196.859 52.4617 197.479 51.6963 197.572 50.924C197.643 50.2607 197.439 49.5987 197.18 48.95C197.267 48.8977 197.334 48.855 197.421 48.8027C198.116 48.35 198.82 47.9177 199.534 47.5057C200.952 46.6613 202.405 45.863 203.829 45.0037C206.342 43.4997 208.798 41.8233 210.783 39.6567C212.29 38.0047 214.356 35.3803 213.557 32.9732C212.608 30.0408 208.913 30.426 206.681 31.344ZM197.047 51.052C196.936 51.4983 196.607 51.933 196.108 51.987C195.275 52.07 195.103 51.1337 195.364 50.557C195.625 49.98 196.182 49.578 196.737 49.2257C196.983 49.819 197.197 50.4513 197.047 51.052ZM211.399 38.151C210.517 39.308 209.505 40.3507 208.384 41.2697C206.121 43.1673 203.553 44.6347 200.985 46.102C199.644 46.874 198.283 47.655 196.987 48.4937C196.827 48.133 196.657 47.8023 196.523 47.468C195.968 46.174 195.449 44.8767 194.956 43.555C193.961 40.841 193.156 38.0283 192.875 35.1377C192.714 33.4667 192.563 31.5806 193.221 30.0062C193.907 28.3575 195.566 27.4159 197.336 28.0937C200.68 29.378 200.358 33.595 199.788 36.478C199.657 36.6487 199.527 36.8197 199.396 36.9903C199.223 37.23 199.604 37.4523 199.766 37.2427C201.514 35.0233 203.678 33.2075 206.281 32.0214C207.572 31.433 209.075 30.8715 210.535 31.1341C212.156 31.4219 213.346 32.6612 213.203 34.3223C213.08 35.7393 212.245 37.048 211.399 38.151Z" fill="#9E3C0E"/>
</svg>
